<svg xmlns="http://www.w3.org/2000/svg" viewBox="0 0 224.51 251.78"><defs><style>.cls-1{fill:none;stroke:#f2f2f2;stroke-miterlimit:10;stroke-width:0.5px;}</style></defs><title>Asset 1</title><g id="Layer_2" data-name="Layer 2"><g id="Layer_2-2" data-name="Layer 2"><path class="cls-1" d="M111.26,228.05c0-.69,1.18-2,1.86-1s.39,2.35,1.76,2.35,3.81.48,4.21-.1,2.14-1.08,2.14-2.15V205.36c0-.78,3.33,0,3.33-1.27V192.75a31.24,31.24,0,0,0,3.13-.39c.68-.2,3.13-1.47,3.72-1.08s1.36,1.76,1.75,1.27a3.64,3.64,0,0,1,2.35-1.47,12.53,12.53,0,0,0,2.22-.42,1.75,1.75,0,0,1-.26-.76c0-.83-5.95.16-6.95.49s-4.13.83-5.12.33-7.28,0-7.28,0L117,189.56H105.56a4.8,4.8,0,0,1-3-.82,3.06,3.06,0,0,0-3.14-.17c-1.16.5-.66-.66-1.49-.66a1.34,1.34,0,0,0-1.16.83l-1,.27c-.11,1,.78,2.87,1.86,4.32a25.7,25.7,0,0,1,3.23,6.75c.73,2.4,2.84,5.08,3.37,6.89s-.39,4.41.15,5.58a21.86,21.86,0,0,1,1.17,5.18c.3,2,.44,6.26,2.25,8a14.4,14.4,0,0,1,2,2.64C110.65,228.47,111.26,228.56,111.26,228.05Z"/><path class="cls-1" d="M155.26,184.34l-.48-1.07-2.84.09c-1.86.49-1.86,1.08-1.86,1.66s-1.76,2-3,2.35-2.64,3.32-3.42,3.71-3.42-.58-4.21-.68a6.53,6.53,0,0,0-1.69.26c.49.86,1.52,1.88,1.89,1.88s.66,3.47,1.82,4,3.3,1.65,3.3,2.31,1.33,1.49,1.33,2.49a2.76,2.76,0,0,0,2.31,2.31c2.12-.07,2.34.81,2.34,1.4s2.78,0,3.15.58,3.09.34,3.76.7A43.75,43.75,0,0,0,161,203c.88-1.17.15-2.78.88-3.22s2.35-2.35,1.76-2.5-.14-1.61-1-2.49,1-1.32.88-2.93.29-4.84-.15-5.14-2.49-.44-3.81-1.32S155.26,184.34,155.26,184.34Z"/><path class="cls-1" d="M148.38,203.62a2.76,2.76,0,0,1-2.31-2.31c0-1-1.33-1.82-1.33-2.49s-2.15-1.81-3.3-2.31-1.33-4-1.82-4-1.4-1-1.89-1.88a12.53,12.53,0,0,1-2.22.42,3.64,3.64,0,0,0-2.35,1.47c-.39.49-1.17-.88-1.75-1.27s-3,.88-3.72,1.08a31.24,31.24,0,0,1-3.13.39v11.34c0,1.27-3.33.49-3.33,1.27v9.73c.72.26,1.4.6,1.57,1,.39,1,1.27,3.13,1.08,3.71s-.69.2-.69.79-.39,1.46.59,1.46,2.64.59,3.32-.19,2.94-2.55,3-3.43.59-2.83,2.25-1.75,1.76,1.27,3.91,1.27,2.74-.1,3.13-1.47,0-2.45,1.27-2.45,2.84-1.17,2.84-2.05.59-2.25,1.37-2.25a3.39,3.39,0,0,0,2.64-2c.19-1,1.56-.58,2.05-1.17.24-.29.72-1,1.14-1.6h0C150.72,204.43,150.5,203.55,148.38,203.62Z"/><path class="cls-1" d="M158.23,218.23c-.81,0-2.25,2-2.25,2.39s1,3,2.05,3.07,1.77,0,1.84-.75a1.35,1.35,0,0,1,.56-.89c-.08-.64-.25-2-.31-2.84A4.58,4.58,0,0,0,158.23,218.23Z"/><path class="cls-1" d="M149.3,228.44c-.39-.79-2.93.59-3.33,1.37s-1.95,2.93-1.95,2.93l1.95,2.74,1.37.19s.39-1,.79-1.76,2.15.2,2.15-.58,1.17-1.57,1.17-2.35S149.69,229.22,149.3,228.44Z"/><path class="cls-1" d="M160.47,222.4s0-.14,0-.35a1.35,1.35,0,0,0-.56.89c-.07.75-.82.81-1.84.75S156,221,156,220.62s1.44-2.39,2.25-2.39a4.58,4.58,0,0,1,1.89,1,3.62,3.62,0,0,1,0-.62c.08-.45.59-5.51-.29-6s-1.76-5.65-2.05-6.16-3.52-.22-3.89-.81-3.08,0-3.14-.57c-.42.63-.9,1.31-1.14,1.6-.49.59-1.86.2-2.05,1.17a3.39,3.39,0,0,1-2.64,2c-.78,0-1.37,1.37-1.37,2.25s-1.57,2.05-2.84,2.05-.88,1.08-1.27,2.45-1,1.47-3.13,1.47-2.24-.2-3.91-1.27-2.15.87-2.25,1.75-2.34,2.64-3,3.43-2.34.19-3.32.19-.59-.88-.59-1.46.49-.2.69-.79-.69-2.73-1.08-3.71c-.17-.43-.85-.77-1.57-1v12.08c0,1.07-1.76,1.56-2.14,2.15s-2.84.1-4.21.1-1.07-1.37-1.76-2.35-1.86.29-1.86,1c0,.51-.61.42-1.42.34a22.85,22.85,0,0,1,2.5,5.28c.78,2.59,2.69,5,3.17,6.55s1,2.93,0,3.08-1,1,0,2.69.15,2.64,1.08,2.84.64.78,1.37.83,1.27.78,1.76,1.41a1.36,1.36,0,0,0,2.15-.14c.54-.79,2.2-1,3.91-1s1.37-.73,3-1.22a9,9,0,0,1,5.09-.05,3.51,3.51,0,0,0,3.18-.39c.68-.44,2,.68,2.1-.44s1.46-.93,2.73-.93,4.35-2,6.8-4.3a62.17,62.17,0,0,0,7.87-9.63,24.94,24.94,0,0,1,4.75-5.29c.84-.76,1.32-3.47,1.55-5.44A18.12,18.12,0,0,0,160.47,222.4Zm-10.19,10.93c0,.78-1.76-.2-2.15.58s-.79,1.76-.79,1.76l-1.37-.19L144,232.74s1.56-2.15,1.95-2.93,2.94-2.16,3.33-1.37,2.15,1.76,2.15,2.54S150.28,232.54,150.28,233.33Z"/><path class="cls-1" d="M98,187.91c.83,0,.33,1.16,1.49.66a3.06,3.06,0,0,1,3.14.17,4.8,4.8,0,0,0,3,.82H117l1.15,1.16s6.29-.49,7.28,0,4.13,0,5.12-.33c.18-.06.5-.13.91-.22L127.66,185l.34-11,4.9.17.85-.85.7-6.57a1,1,0,0,0-.9,0,6.67,6.67,0,0,1-2.93.29c-1,0-1.17,1-1.76.88s-.15-1.91,0-2.64-.88-2.05-1.61-2.64.88-4.25.44-4.7a4.39,4.39,0,0,1-.59-2.63c0-1-.73-.44-2.2-.44s-1.61-.74-1.61-.74a5,5,0,0,0-2.64,0c-.88.44-.74,3.08-1.32,2.94a10.74,10.74,0,0,0-3.82.58c-1.46.44-2.05-.29-2.78-2s-1.62-1.17-1.32-2.49a4.46,4.46,0,0,0-.59-2.79s-9.68-.15-10.71,0a6,6,0,0,0-1.86,1,49.27,49.27,0,0,0,2.89,6.9c.44.93-.54,1.76-.54,3.47s1.86,4.84,2.06,6.94-1.18,3.43-2.35,4.8a12.15,12.15,0,0,0-2.39,6.35c0,1.91-1.77,3.77-1.72,4.65a27.69,27.69,0,0,1-.44,4.44V189l1-.27A1.34,1.34,0,0,1,98,187.91Z"/><path class="cls-1" d="M156.94,159.29a7.07,7.07,0,0,1-2.39-1.36c-.64.71-2.88.59-4,.59s-.15,1.62-.88,2.2-1,1.47-.44,1.76-.15,2.79-.15,3.67-1.17,2.79-.73,3.08,1.17,2.35,2.2,2.64,1.76-.73,2.2-.73.44,1.32.44,2.34a1.84,1.84,0,0,1-.59,1.47s-1.61.59-2.34,0a4.85,4.85,0,0,1-1.32-2.79c0-.58-1.76-.58-2.5-.58s-1.46-1.32-1.76-1.91-1.17.15-1.17.59-.73.44-1.47.44-2.2-1.18-2.78-.88-1.18-1-1-1.62-1.47-.14-2.05.15-.88-.73-.88-.73a2.4,2.4,0,0,0-.87-.85l-.7,6.57-.85.85L128,174l-.34,11,3.77,5.15c2-.4,6-1,6-.27a1.75,1.75,0,0,0,.26.76,6.53,6.53,0,0,1,1.69-.26c.79.1,3.43,1.08,4.21.68s2.15-3.32,3.42-3.71,3-1.76,3-2.35,0-1.17,1.86-1.66l2.84-.09H155l-.68-2.44s8.66-3.24,9.16-3.32c-.39-.78-.78-1.36-.59-1.45s.51-2.54.51-3.22,2-.17,1.35-.85-.5-4.56-.17-5.41,1.19,0,1.19-.68a10.8,10.8,0,0,0-1.52-3.55,14.49,14.49,0,0,0-4.24-1.86C159.14,160.31,157.78,159.29,156.94,159.29Z"/><path class="cls-1" d="M155.55,134.15a13.46,13.46,0,0,0-1.83.6,2.31,2.31,0,0,1-1.65.29,1,1,0,0,1-.4.31c-.81.29-.66,2.12-.66,2.12a.88.88,0,0,0-.73,1,1,1,0,0,0,.66,1,8,8,0,0,1,1.09.1c1.86.34,1.69-1,1.69-1s2.71.17,2.88-.67a4.5,4.5,0,0,0-.51-2.2Z"/><path class="cls-1" d="M198.09,98.46c.59.29,1.54,1.83,2.2,2s4.33,1.39,6.68,2.35a11.67,11.67,0,0,0,4.54,1c.74,0,1.84.22,1.18.74s-7.85,7.77-8.81,8.8-1.54.66-3.66.66-3.74,2.34-4.33,2.27a13.54,13.54,0,0,0-2.68.42L191.63,119l-1.52,2.37.17,11.85,1.64,2.6c1.29-1.73,4.77-5.06,7.34-7.76a17.25,17.25,0,0,1,5.77-4.4c1.57-.79,5.53-4.65,8.22-8.07,1.69-2.16,3.57-4.55,3.81-6.11s1.81-3.62,3-5.14,3.13-5.38,3.08-6.55,1-3.67,1.13-5.77-1.61-2.3-2.15-1.12-4.74,2-7.43,2-4.31.3-5.28,1.22-3.43-.24-4.31.79-4.35,1.9-5.47-.44a4.21,4.21,0,0,0-1.7-1.89c-.95,1-2.08,2.4-1.87,2.86C196.33,96.11,197.5,98.17,198.09,98.46Z"/><path class="cls-1" d="M28.1,37.27C28.05,35.1,28,33,28,32.76c.11-.43,4.52-3,5.28-3.45s2.15.21,2.15-.65,1.84-.43,2.92-.65a2,2,0,0,0,1.72-1.94c0-1,1.51-.75,2.48-.86s.86-1,1.51-1,.32-1,.43-2,.11-.86,1.08-.86,1.94-.54,1.94-1.19,4.2-.21,4.85-.21.86-.76.75-1.3-.64-2.15-1.29-2.26-.22-1.72-.22-3a5.44,5.44,0,0,0-1-3.45,5.43,5.43,0,0,1-.55-1c-1.18,0-2.61-.87-3.83-.9-1.72,0-4.36.83-5.63-.59S38.51,5.54,37.58,6,34.94,11.31,34,12.73s-3.72,2.4-5,2.4-1.47,2-2.49,2.83-.64,2.15-1.86,3.13-.64,4,0,5-2.25,4.45-3.91,5.42-2.2,2.84-4.84,3.28A4.49,4.49,0,0,0,13.43,36h12.3C28.28,36,27.69,36.57,28.1,37.27Z"/><path class="cls-1" d="M85.15,6.67c.79,1.17-.19,3.13-1,3.52S82.81,12.34,82,12.34s0,2.93,1.36,3.52A2,2,0,0,1,84.76,18c0,.59,2,1.17,2.55,2a17.3,17.3,0,0,1,1.56,5.86,1.44,1.44,0,0,0,.29.87,4.16,4.16,0,0,0,1.37-1.21,4.69,4.69,0,0,0,.59-2.64,1.31,1.31,0,0,1,.29-1.47C91.85,21,93.61,19.13,94,19s1.47.05,1.42-1a12.64,12.64,0,0,1,.1-1.72c-.79-.51-1.27-1.11-1.27-1.41,0-.63-.88-1.71-1.37-1.12s-2.34.1-2.59-1.13,1.22-1.17,2.59-2.29a2.86,2.86,0,0,0,.1-4.45C91.46,4.66,92.49,4,93.51,3s.1-1.66-.43-1.17-1.42.63-1.57-.54S88.19-.13,87,1a2.59,2.59,0,0,1-1.77.51C84.9,3.45,84.63,5.88,85.15,6.67Z"/><path class="cls-1" d="M51.63,13.35c0,1.3-.43,2.91.22,3S53,18.1,53.14,18.63s-.1,1.3-.75,1.3-4.85-.43-4.85.21-1,1.19-1.94,1.19-1-.21-1.08.86.22,2-.43,2-.54.86-1.51,1-2.48-.11-2.48.86A2,2,0,0,1,38.38,28c-1.08.22-2.92-.21-2.92.65s-1.4.22-2.15.65-5.17,3-5.28,3.45c-.06.21,0,2.34.07,4.51a1.73,1.73,0,0,0,.65.59c1.63.93,31.16,20.46,32.09,21.39a17.81,17.81,0,0,1,2.09,3,11.24,11.24,0,0,1,3.72,1.17c1.63.93,1.63,3.48,1.63,3.48s2.09-.46,3.25-.69,5.12-1.63,5.12-1.63l6-4.88,14.19-8.84h0c-.44-1.56-.91-2.82-1.67-2.82s-1.46-.73-2.44-.73-2.19-.49-2.31-1.34.36-1.47-.37-2.56-1.46-1.59-1.46-2.08,1.24-1.44,1.43-1.63-.49-1-.49-1.52-.49-1.46,0-2.05a1.77,1.77,0,0,0,.25-2.25c-.54-1.08.73-2,.1-3.47s-1.62-2.54-1.52-3c0-.21.36-.44.73-.7a1.44,1.44,0,0,1-.29-.87A17.3,17.3,0,0,0,87.31,20c-.59-.79-2.55-1.37-2.55-2a2,2,0,0,0-1.37-2.15C82,15.27,81.24,12.34,82,12.34s1.36-1.76,2.15-2.15,1.76-2.35,1-3.52c-.52-.79-.25-3.22,0-5.16A11.1,11.1,0,0,1,82.07.9c-.58-.2-2.29.29-3.37.34S75,3,74.11,2.17s-9.88.64-12.42.73-3.62,2.74-5.14,2.74a8.52,8.52,0,0,0-5.18,2.69,1.63,1.63,0,0,1-1.25.56,5.43,5.43,0,0,0,.55,1A5.44,5.44,0,0,1,51.63,13.35Z"/><path class="cls-1" d="M94,19c-.34.14-2.1,2-2.54,2.39a1.31,1.31,0,0,0-.29,1.47,4.69,4.69,0,0,1-.59,2.64c-.44.83-2,1.42-2.1,1.91s.88,1.61,1.52,3-.64,2.39-.1,3.47a1.77,1.77,0,0,1-.25,2.25c-.49.59,0,1.51,0,2.05s.69,1.32.49,1.52-1.43,1.15-1.43,1.63.73,1,1.46,2.08.25,1.7.37,2.56,1.34,1.34,2.31,1.34,1.59.73,2.44.73,1.23,1.26,1.67,2.82c.37,0,3.53.06,4.85.93a7.49,7.49,0,0,1,2.09,2.09l5.58-3,25.24,13.58V62.71h3.06V30.28c0-2.24-1-3.67,0-4.89s-.41-1.84.41-4.08c.1-.27.19-.54.3-.82,0,0-.08-.09-.09-.13-.25-.69-1.57-.74-4.45-1.18s-1.81-2.39-5-2.59-7.33,2.4-7.38,3.77,1.51,2.88.44,4.3a3.48,3.48,0,0,1-5.09.05,9.36,9.36,0,0,0-6.11-2.2c-2,0-3.42-1.27-3.27-2.35s-.49-1.56-2.15-1.9-3.08-1.72-6-1.23a5.44,5.44,0,0,1-3.82-.79,12.64,12.64,0,0,0-.1,1.72C95.42,19,94.3,18.84,94,19Z"/><path class="cls-1" d="M6.35,85.67c.68-.62,1.8.62,2.78.74a3.69,3.69,0,0,0,2-.55,6,6,0,0,0-1.8-.25c-1.6-.13-1.73-2-3.15-1.36A6.79,6.79,0,0,1,2,84.93c0,.54-.33,1.27-.43,2a8.27,8.27,0,0,1,1-.2C3.57,86.66,5.67,86.29,6.35,85.67Z"/><path class="cls-1" d="M4,89.32a4.52,4.52,0,0,0,1.86-.75l4.82-.36a1.7,1.7,0,0,1,.84.22c0-.18,0-.31,0-.31s2.19.44,2.34.95,3.15.88,4.84.3l.37-.13a17.42,17.42,0,0,0,0-2.1A8.32,8.32,0,0,0,17.3,85a3.3,3.3,0,0,1-.5-2l-.6-.9s-.47-1.86-1.86-2.33-2.33-3-2.33-3H10.85A7.18,7.18,0,0,0,9,75.06a3.91,3.91,0,0,0-2.56.23,11.67,11.67,0,0,1-3,0c-1.16-.23-.93,1.4-1.86,1.63l-.17,0a6,6,0,0,1-.76,2.65c-1.07,1.62.44,4,1.22,4.7a.74.74,0,0,1,.2.62,6.79,6.79,0,0,0,4.19-.68c1.42-.69,1.55,1.23,3.15,1.36a6,6,0,0,1,1.8.25,3.69,3.69,0,0,1-2,.55c-1-.12-2.1-1.36-2.78-.74s-2.78,1-3.77,1a8.27,8.27,0,0,0-1,.2A1.84,1.84,0,0,0,2,88.46l.33.4C4,88.44,3.48,89.27,4,89.32Z"/><path class="cls-1" d="M7.12,93.33c.74-.52,2.2-1.84,2.72-1.62S11,91.49,11,91.2s-1-1.25-.22-1.54a1.35,1.35,0,0,0,.73-1.23,1.7,1.7,0,0,0-.84-.22l-4.82.36A4.52,4.52,0,0,1,4,89.32c-.52,0,0-.88-1.68-.46.84,1,1,1.57,2.65,2,1.91.53-.14,1.51,1.42,2.49a4.17,4.17,0,0,1,.38.28A2.79,2.79,0,0,1,7.12,93.33Z"/><path class="cls-1" d="M142.22,109.41c0-.61,0-1.23-1.23-2.25s-2-1.22-2-1.83-.4-.82-1.42-2a3.76,3.76,0,0,0-2.65-1.22l-.41-1-1.43-.21s-.82-.61.41-1.22,0-2.24-.21-2.86a22.93,22.93,0,0,0-2.34-3.13,1.23,1.23,0,0,1-.57-.13c-.69-.39-2.06.39-2.74,1.07s-.2,1.08-.68,1.57a36.46,36.46,0,0,0-3.23,3.32c-1.08,1.37-3.81.49-4.69,1s.39,1.27-.2,1.76a22,22,0,0,1-2.93,1.57c-.59.29-2.94.19-3.62,1.07s-1.47-1-2.15,0-1.47,1.08-1.86.78a1.49,1.49,0,0,1-.29-.34,5.35,5.35,0,0,0-1.66,2c-.44,1.4-1.62,2.64-1.62,3.3s.44,1.54.44,2.72a3.79,3.79,0,0,0,1,2.64,3,3,0,0,1,.51,2,7.54,7.54,0,0,0,.73,1.1c.51.66,2,1.61,2.13,2.12a1.08,1.08,0,0,0,.57.56,2.36,2.36,0,0,1,.2-.31,3.52,3.52,0,0,0,.61-2.45l1.84-.41,1.42-.4,2.86.4v-2.24s2-2.65,3.47-2.65,2.65,1.84,2.65,1.84l6.32,1.22s.41-1.83,1-2.24,1.83.41,2.65,0a7.71,7.71,0,0,1,3.47-1c1.42,0,2,.81,2.65-.41s3.67.41,3.67.41l2.45-.41-.82-2S142.22,110,142.22,109.41Z"/><path class="cls-1" d="M90.24,107.58c.39-.1,1.27.19,2-.29s2.16.68,2.35,1.66.79-.39,1.37-1.47,2.44-4.3,2.44-5.08,1.57-1.47,1.57-2-.1-1.56.39-1.76.88-1.66.78-2.15,1.66-3.23,2-3.62,1.86-.19,2-1.07.39-1.86-.2-2.06-1.37-.88-1.37-1.37a9.32,9.32,0,0,1,.2-1.78c-.78-.11-.82-.89-1.28-1.35s-.48-.88-1.17-.68-1.47,1.86-2.35,2.15-2.15-.39-2.73-.68-3.33,0-4.21-.1-1.76,1.17-2.44,1.56a6,6,0,0,1-3.23,0c-.59-.19-2-1.36-2.54-1.36A5.85,5.85,0,0,0,81,87c-1,.58-1.27-1.08-1.86-1.76s-1.86-.1-2.64-.79-1.27.79-2,.69-2.45-.49-3,0-.49,2.35-.79,2.64-1.46,1.66-1.46,2.35a.71.71,0,0,1-.32.65c.13.81.3,1.85.34,2.23.07.66.37,4-.37,4.69a7.38,7.38,0,0,0-1.24,1.91,3.7,3.7,0,0,0-1.4,2.42,22.13,22.13,0,0,0,.08,3.89c0,.88.65,1.51,1,2.6,0,0,0,0,0,0,.58.78,3.37.93,4.93,1.27s3.18,2.54,3.14,3.37A4.29,4.29,0,0,0,77.19,116c.73.39,2.54-.74,3.37-.74s3.81,0,4.4-.49a.41.41,0,0,1,.53,0,20.38,20.38,0,0,0,1-3.55A46.38,46.38,0,0,1,90.24,107.58Z"/><path class="cls-1" d="M66.23,102a3.7,3.7,0,0,1,1.4-2.42,7.38,7.38,0,0,1,1.24-1.91c.74-.73.44-4,.37-4.69,0-.38-.21-1.42-.34-2.23a1.14,1.14,0,0,1-1.05-.07c-.88-.39-.1-1.27-1.08-1.56s-1.37.78-1.17,1.56-.49.78-.88,1.27-2.15.59-2.74.59-1.27,1.08-1.86,1.27a1.37,1.37,0,0,1-.52,0c.13,2.58.56,2.38,1.79,3.09,1.4.81.08,1.91.66,2.49s.37,2.06.52,3.89c.09,1.11.2,4,.28,6.09a12.7,12.7,0,0,1,2.21-.2c1,0,1.69-1.39,2.26-.72-.36-1.09-1-1.72-1-2.6A22.13,22.13,0,0,1,66.23,102Z"/><path class="cls-1" d="M62.05,99.41c-.58-.58.74-1.68-.66-2.49-1.23-.71-1.66-.51-1.79-3.09-.71,0-1.75-.35-2.51-.43a.74.74,0,0,0-.4.07,4.74,4.74,0,0,0,.67,2.13,1.91,1.91,0,0,1,.81,2c-.08,1.1-.37,3.52.07,4.62a13.18,13.18,0,0,1,.88,4.55,9.91,9.91,0,0,0,1.21,3.8,3.36,3.36,0,0,0,.67-.43,4.2,4.2,0,0,1,1.85-.73c-.08-2.1-.19-5-.28-6.09C62.42,101.47,62.64,100,62.05,99.41Z"/><path class="cls-1" d="M95.72,122.87s7.75.41,8.77.2,4.69,1.63,4.69,1.63a8.64,8.64,0,0,1,.82-3,1.08,1.08,0,0,1-.57-.56c-.15-.51-1.62-1.46-2.13-2.12a7.54,7.54,0,0,1-.73-1.1,3,3,0,0,0-.51-2,3.79,3.79,0,0,1-1-2.64c0-1.18-.44-2.06-.44-2.72s1.18-1.9,1.62-3.3a5.35,5.35,0,0,1,1.66-2,10.88,10.88,0,0,1-1-2.39c-.39-1.28-1.47-1.67-2.74-2.84a2.08,2.08,0,0,1-.78-2.35c0-.49,1.66-.49,2.84-.39s1.85-.19,1.37-.49-1.47-2.54-1.37-4.1-.49-2.06-.4-2.94-1.07-3.13-2-3.13l-.19,0a9.32,9.32,0,0,0-.2,1.78c0,.49.78,1.18,1.37,1.37s.29,1.18.2,2.06-1.67.68-2,1.07-2,3.13-2,3.62-.29,2-.78,2.15-.39,1.27-.39,1.76-1.57,1.17-1.57,2-1.85,4-2.44,5.08-1.17,2.45-1.37,1.47-1.66-2.15-2.35-1.66-1.56.19-2,.29a46.38,46.38,0,0,0-3.79,3.61,20.38,20.38,0,0,1-1,3.55,8.46,8.46,0,0,1,1.38,1.83c.68,1,2,.25,2.54.54s1.12,2.6.93,3.23-1,2.17-.63,2.94h4.58Z"/><path class="cls-1" d="M47.68,112.25a10.64,10.64,0,0,1-1.39-3.67c.07-.59,1.32-2.35,1.24-3.23s1.25-1.46,1.25-2.2A17.16,17.16,0,0,0,47.63,98,.83.83,0,0,1,47,97.7c-.59-.58-3-.49-3.91.49s-2.64-.88-2.93-1.37-1.57-1.56-2.55-.88-1.27.49-1.17-.39S35,95,34.8,95.75s-1.47,1.46-1.86.88-1.27-1.37-1.66-.49a.66.66,0,0,1-1.12.27c-.25,1.09-.55,2.33,0,2.64a1.29,1.29,0,0,1,.59,1.54c-.15.44,1.1,1.54.59,2s-1.18-.51-1.55.22.74,1.39.3,2-1.1.66-.95,1.83.07,2-.37,2.35.07.37,1.1,1,2.71,1.39,2.57,2.49-.58,1.23-1,3.08c2,0,5.55-1.4,9.75-2.13a14.19,14.19,0,0,1,6.42.38C47.79,113.25,47.9,112.54,47.68,112.25Z"/><path class="cls-1" d="M58.24,102.2c-.44-1.1-.15-3.52-.07-4.62a1.91,1.91,0,0,0-.81-2,4.74,4.74,0,0,1-.67-2.13c-.58.26-.62,1.22-.87.81s-7.92-.78-8.31-.2.68,2.74.59,3.33c-.06.35-.23.59-.47.61a17.16,17.16,0,0,1,1.15,5.13c0,.74-1.32,1.32-1.25,2.2s-1.17,2.64-1.24,3.23a10.64,10.64,0,0,0,1.39,3.67c.22.29.11,1-.06,1.62,1.33.38,2.21.83,2.48.89.59.15,4.74-1.75,6.41-2.59,1.32-.66,2.8-1.08,3.82-1.62a9.91,9.91,0,0,1-1.21-3.8A13.18,13.18,0,0,0,58.24,102.2Z"/><path class="cls-1" d="M15.12,98.17c.07-.81.73-.52,1.54-.37s1.76-.51,2.49-.51,2.64,2.56,2.64,3.3a3.66,3.66,0,0,0,.44,2,.67.67,0,0,1,.1.23,17.88,17.88,0,0,1,2.4-.42c.35,0,1.08,1.73.93,2.81s1.08,1.88,1.59,1.16,1.15-1.66,1.3-1c0,.19.31.36.66.5.18-.43.57-.6.87-1,.44-.59-.66-1.25-.3-2s1,.29,1.55-.22-.74-1.61-.59-2a1.29,1.29,0,0,0-.59-1.54c-.54-.31-.24-1.55,0-2.64a2,2,0,0,1-.45-.47c-.39-.58-.09-1.86-.78-1.86s-.59-1,0-1.17-1.17-.88-1.17-1.56a4.14,4.14,0,0,0-1.28-2.45c-.39-.1-1.75,1.67-2.34,1.67s-1.86-1.18-2.25-.2-1.27-.49-1.86.29-1-.88-1-.88,0-.23,0-.54l-.37.13c-1.69.58-4.69.22-4.84-.3s-2.34-.95-2.34-.95.07,1.25-.74,1.54S11,90.91,11,91.2s-.66.73-1.17.51-2,1.1-2.72,1.62a2.79,2.79,0,0,0-.35.35c1.13.91,1,1.92,2.36,2.9a11.05,11.05,0,0,1,3.72,4.06C13.8,99.84,15.07,98.72,15.12,98.17Z"/><path class="cls-1" d="M29.86,110.05c-1-.66-1.54-.66-1.1-1s.51-1.17.37-2.35a1.49,1.49,0,0,1,.08-.83c-.35-.14-.62-.31-.66-.5-.15-.65-.8.29-1.3,1s-1.73-.07-1.59-1.16-.58-2.81-.93-2.81a17.88,17.88,0,0,0-2.4.42c.16.52-.19,1.1-.32,1.67s-1.91,1.62-2.64,2.2a4.39,4.39,0,0,0-.75,1.12c1.38.87,3,1.88,4.3,2.87a43.62,43.62,0,0,0,7.72,4.84,2.47,2.47,0,0,0,.81.12c.4-1.85.84-2.08,1-3.08S30.89,110.71,29.86,110.05Z"/><path class="cls-1" d="M22,104.47c.15-.66.59-1.32.22-1.9a3.66,3.66,0,0,1-.44-2c0-.74-1.91-3.3-2.64-3.3s-1.69.66-2.49.51-1.47-.44-1.54.37c0,.55-1.32,1.67-2.27,2.47a7.4,7.4,0,0,1,.49,1.22c.78,2.69,1.51,3.23,2.64,4.15.5.42,1.5,1,2.64,1.78a4.39,4.39,0,0,1,.75-1.12C20.1,106.09,21.87,105.13,22,104.47Z"/><path class="cls-1" d="M13.47,53.35c0-.76,3.45-1.73,3.45-2.48V42S27.7,42.25,28,42a26.46,26.46,0,0,0,.07-4.76c-.41-.7.18-1.27-2.37-1.27H13.43a7.93,7.93,0,0,0-1.81,3C11,40.6,7.37,42.9,7.22,45.1S3.65,50.72,1.4,55.41a9.21,9.21,0,0,0-1,3.11h13Z"/><path class="cls-1" d="M3.41,75.29a11.67,11.67,0,0,0,3,0A3.91,3.91,0,0,1,9,75.06a7.18,7.18,0,0,1,1.86,1.63H12s.93,2.56,2.33,3a2.87,2.87,0,0,1,1.56,1.56c1,0,1.77-.35,1.77-1.06,0-.89.44-2.08,1.93-.74s1.48.14,1.77-.3,1.34.15,2.23.15a5.83,5.83,0,0,0,2.08-.6s12.31.15,12.9-.15.45-2.81.45-2.81l-1-1L34.87,45.5h5.57c-5.94-3.93-11-7.27-11.69-7.64a1.73,1.73,0,0,1-.65-.59A26.46,26.46,0,0,1,28,42c-.33.22-11.11,0-11.11,0v8.84c0,.75-3.45,1.72-3.45,2.48v5.17H.43c-.19,2.13,1.11,2.89,1.85,3.74,1,1.17-.78,3.22.74,5.33s-.34,5.33-1.08,6.5A7.71,7.71,0,0,0,1.38,77l.17,0C2.48,76.69,2.25,75.06,3.41,75.29Z"/><path class="cls-1" d="M68.28,66.92s0-2.55-1.63-3.48a11.24,11.24,0,0,0-3.72-1.17,17.81,17.81,0,0,0-2.09-3c-.56-.56-11.44-7.83-20.4-13.75H34.87L38,74.72l1,1s.14,2.52-.45,2.81-12.9.15-12.9.15a5.83,5.83,0,0,1-2.08.6c-.89,0-1.93-.6-2.23-.15s-.29,1.63-1.77.3-1.93-.15-1.93.74c0,.71-.77,1-1.77,1.06a4.69,4.69,0,0,1,.3.77l.6.9a3.3,3.3,0,0,0,.5,2,8.32,8.32,0,0,1,1.76,2.15,25.33,25.33,0,0,1,0,2.64s.38,1.66,1,.88,1.47.69,1.86-.29,1.66.2,2.25.2,1.95-1.77,2.34-1.67a4.14,4.14,0,0,1,1.28,2.45c0,.68,1.76,1.37,1.17,1.56s-.68,1.17,0,1.17.39,1.28.78,1.86,1.18,1.08,1.57.2,1.27-.1,1.66.49,1.66-.1,1.86-.88,1.76-1.08,1.66-.2.19,1.08,1.17.39a1.28,1.28,0,0,1,.94-.19,19.53,19.53,0,0,1,.92-2.54c.29-.59-.68-2-.2-2.16s2.16.2,2.64-1.17A7.05,7.05,0,0,1,43,87.82s.2-2.93,1.08-2.44,1.95,1.27,2,.1,1.17-.49,1.47-1.56.88-1,1.56-.79,1.27-.09,1.27-.68,1.57-.29,2.84-1.17,1.95-1.57,2.44-1.08,3.72.39,4.21.2,1.46-1.08,2.64-.88,4-.49,5.18-.49,1.66-1.08,2-1.47.69-2.15,1.08-2.44.25-6.38.21-8.8C69.91,66.56,68.28,66.92,68.28,66.92Z"/><path class="cls-1" d="M65.59,90.63a2.37,2.37,0,0,0-1.34-.6c-.29,0-.07-1.62-.22-1.84s-1.1.44-1.68.22-.81-1.17-1.32-1.17-.59-.59-.59-1.25-.95-1.32-1.54-1.76-.73-1.68-1.1-1.9c-.21-.13-.13-1,0-1.78a4.12,4.12,0,0,1-2.06-.35c-.49-.49-1.17.2-2.44,1.08s-2.84.58-2.84,1.17-.59.88-1.27.68-1.27-.29-1.56.79-1.37.39-1.47,1.56-1.17.39-2-.1S43,87.82,43,87.82a7.05,7.05,0,0,0-1.08,2.06c-.48,1.37-2.15,1-2.64,1.17s.49,1.57.2,2.16a19.53,19.53,0,0,0-.92,2.54,2.73,2.73,0,0,1,1.61,1.07c.29.49,2,2.35,2.93,1.37s3.32-1.07,3.91-.49,1,.3,1.08-.29-1-2.74-.59-3.33,8-.29,8.31.2.29-1,1.27-.88,2.45.59,3,.39,1.27-1.27,1.86-1.27,2.35-.1,2.74-.59,1.07-.49.88-1.27A0,0,0,0,0,65.59,90.63Z"/><path class="cls-1" d="M106.67,56.73c0-.48-.11-2.64-.2-4.25l-2.62,1.42a7.49,7.49,0,0,0-2.09-2.09c-1.4-.93-4.88-.93-4.88-.93L82.69,59.72l-6,4.88s-4,1.39-5.12,1.63l-.44.09c0,2.42.1,8.56-.21,8.8s-.69,2-1.08,2.44-.88,1.47-2,1.47-4,.68-5.18.49-2.16.68-2.64.88a9.3,9.3,0,0,1-2.15.15c-.11.75-.19,1.65,0,1.78.37.22.51,1.46,1.1,1.9s1.54,1.1,1.54,1.76.07,1.25.59,1.25.73,1,1.32,1.17S63.89,88,64,88.19,64,90,64.25,90a2.37,2.37,0,0,1,1.34.6c-.17-.78.22-1.82,1.18-1.53s.2,1.17,1.08,1.56,1.37.1,1.37-.58,1.17-2.06,1.46-2.35.2-2.15.79-2.64,2.34-.1,3,0,1.17-1.37,2-.69,2.06.1,2.64.79S80,87.53,81,87a5.85,5.85,0,0,1,2.74-.78c.58,0,2,1.17,2.54,1.36a6,6,0,0,0,3.23,0c.68-.39,1.56-1.66,2.44-1.56s3.62-.2,4.21.1,1.85,1,2.73.68,1.67-2,2.35-2.15a.75.75,0,0,1,.47,0c0-.38,0-.74,0-1.07,0-1.76.39-1.07.69-2.83s4.88-6.36,5.28-6.65.38-7.24.38-8.21a13.21,13.21,0,0,1,.59-3.52c.39-1.37-.68-1.27-.59-2.55S106.67,57.52,106.67,56.73Z"/><path class="cls-1" d="M134.67,64.46,109.43,50.88l-3,1.6c.09,1.61.2,3.77.2,4.25,0,.79,1.46,1.76,1.36,3s1,1.18.59,2.55a13.21,13.21,0,0,0-.59,3.52c0,1,0,7.92-.38,8.21s-5,4.89-5.28,6.65-.69,1.07-.69,2.83c0,.33,0,.69,0,1.07.25.09.37.36.7.69.49.49.49,1.37,1.47,1.37s2.15,2.25,2,3.13.49,1.37.4,2.94.87,3.81,1.37,4.1-.2.59-1.37.49-2.84-.1-2.84.39a2.08,2.08,0,0,0,.78,2.35c1.27,1.17,2.35,1.56,2.74,2.84a7,7,0,0,0,1.27,2.73c.39.3,1.17.2,1.86-.78s1.47.88,2.15,0,3-.78,3.62-1.07a22,22,0,0,0,2.93-1.57c.59-.49-.68-1.27.2-1.76s3.61.39,4.69-1a36.46,36.46,0,0,1,3.23-3.32c.48-.49,0-.88.68-1.57s2-1.46,2.74-1.07a1.23,1.23,0,0,0,.57.13l-.1-.13.4-1.43s-1.63-.81-1.63-2,.41-2.44-.61-2.44-1.23-1-.41-1.84-1.22-2.45.21-2.45.41-2.24,1.42-2.44,1.23-1,1.23-2,2.24-1.64,2.85-1.84.41-3.46.41-3.46Z"/><path class="cls-1" d="M170.53,28.3l-2.38-5.82a4.44,4.44,0,0,1-.37.52c-.39.39-2-.59-3.52-.2s-2.69-.14-4.16-.88-6.25.2-6.89,1.13-2.25.93-3.72.34a19.5,19.5,0,0,0-6.06-1.71c-2.51-.23-4.53-.59-5-1.19-.11.28-.2.55-.3.82-.82,2.24.61,2.85-.41,4.08s0,2.65,0,4.89V55.76H157.9l1.18-.79c.58-.39,1.56.59,1.56.59h4.3a2.69,2.69,0,0,0,1.76,1c1,0,.39-1.57,2-1.57s1.17-2.35,2.15-2.35.78.2,1.76-1.17a1.71,1.71,0,0,0,.11-.14,4.16,4.16,0,0,1,0-1.32c.24-1.57-.83-1.47-1.52-3.67s-3.42-5.48-3.52-6.75-1.61-2-1.56-3.37-.73-1.52-2.25-3.67-2-5.92-1.52-6.06,1.71,3.18,2.2,4.25,2.15,4.35,3.33,4.35,1.61-4.93,2-4.69c0,0,.06.08.09.14l.12-.89Z"/><path class="cls-1" d="M95.38,142.64c1.64,0,1-1,.41-2.66s1-1.43,2-1.43.62-1.84,1.43-1.84,1,2.25,1.84,2,1.43.61,2.46.41,1-2.25,1-3.88.2-2.87-.82-3.48-1.84-2-.61-2.66a1.49,1.49,0,0,0,.41-2.65c-1-.82-3.27.81-3.27,0,0-.45.18-2,.34-3.41-2.36-.08-4.91-.21-4.91-.21l-.61.17A22.83,22.83,0,0,1,95,127.3s-3.68.21-4.5.21c-.17,0-.73.08-1.53.2a4.18,4.18,0,0,1-.56.7c-.44.44,1,1,1.27,1.66s-1.86.44-1.81,1.37a2.7,2.7,0,0,1-1.32,2.1c-.58.44,1.57,2.3,1.62,2.93s.53,1.22,2.39,3,.93,2.17,3.27,4.08A1.85,1.85,0,0,1,95.38,142.64Z"/><path class="cls-1" d="M95,127.3a22.83,22.83,0,0,0,.14-4.26l-.82.24H89.71s0,.06,0,.09a1.41,1.41,0,0,1-.78,2.15c-1,.35-1,1.27-.15,1.32.51,0,.39.45.12.87.8-.12,1.36-.2,1.53-.2C91.29,127.51,95,127.3,95,127.3Z"/><path class="cls-1" d="M100.08,145.7c.62.21,1,1.23,2.25.21s2.66-.82,2.66.2.41.82,1.43-.2,2,.2,2-1.85,1.23-.2,1.23-2.45.2-4.5.2-5.52,2.87-2,2.87-3.68,2.45-4.9,2.45-7a5,5,0,0,1,1.23-3.47,5.47,5.47,0,0,0,.49-3.43v0l-2.86-.4-1.42.4-1.84.41a3.52,3.52,0,0,1-.61,2.45,7.66,7.66,0,0,0-1,3.26s-3.67-1.83-4.69-1.63a32.38,32.38,0,0,1-3.86,0c-.16,1.36-.34,3-.34,3.41,0,.81,2.24-.82,3.27,0a1.49,1.49,0,0,1-.41,2.65c-1.23.62-.41,2.05.61,2.66s.82,1.84.82,3.48,0,3.68-1,3.88-1.64-.61-2.46-.41-1-2-1.84-2-.4,1.84-1.43,1.84-2.65-.21-2,1.43,1.23,2.66-.41,2.66a1.85,1.85,0,0,0-1.58.94c.11.09.22.18.35.27A9.7,9.7,0,0,1,97,147.34C98.34,146.42,99.74,145.59,100.08,145.7Z"/><path class="cls-1" d="M170.81,52.62c-1,0-.59,2.35-2.15,2.35s-1,1.57-2,1.57a2.69,2.69,0,0,1-1.76-1h-4.3s-1-1-1.56-.59l-1.18.79H137.73v7h-3.06V73.52s.21,3.26-.41,3.46-2.85.82-2.85,1.84-.21,1.83-1.23,2,0,2.44-1.42,2.44.61,1.64-.21,2.45-.61,1.84.41,1.84.61,1.22.61,2.44,1.63,2,1.63,2l-.4,1.43a26.61,26.61,0,0,1,2.44,3.26c.21.62,1.43,2.25.21,2.86s-.41,1.22-.41,1.22l1.43.21.41,1a3.76,3.76,0,0,1,2.65,1.22c1,1.22,1.42,1.43,1.42,2s.82.81,2,1.83,1.23,1.64,1.23,2.25,2.24,1.63,2.24,1.63l.76,1.91a1.64,1.64,0,0,1,.86.86,3.9,3.9,0,0,0,1.43,1.64s1.23.81,2.05,0,1.84.2,1.84.2,1-.82,1.63-.41c.42.28,2.24,1.78,3.82,3.22a16.2,16.2,0,0,1,2.45-.71c.73-.08,1.76,1.17,2,.73a2.9,2.9,0,0,1,2.42-.81c.59.3,2,.37,2-.14.05-.35.68-.7,1.12-1.08a1.11,1.11,0,0,0,.42-.53c.15-.59,1.91-1.62,2.64-1.77s1.62-.22,2,.22a2.21,2.21,0,0,0,.83.5c.25-1.87.66-2.9.05-2.9a3.84,3.84,0,0,1-3.06-2.45c-.62-1.64-2.46-2.66-2.86-3.68s-2.66-.82-3.07-1.64.61-.82.61-1.84,2.46-.41,2.66-.61a14.13,14.13,0,0,0,.41-3.68c0-1.23,1.63-2.45,1-3.07s.61-.81,1.43-1.43.2-2.45,1-3.27,1.43-2.45,2-2.45a1.76,1.76,0,0,0,1.43-1.64c0-.82,1.43-2.45,1.23-3.88s-.82-3.27.2-4.5,1.43-2.25,1.23-3.27,1.22-1.23,1.84-1.84a10.91,10.91,0,0,0,3.16-2.94,7.44,7.44,0,0,0-2.06-1.9c-1.17-.54-2-2.59-2-5.18a29.1,29.1,0,0,0-.73-5.48,6.25,6.25,0,0,0-2.88-3.42,3.48,3.48,0,0,1-1.85-2.49,1.71,1.71,0,0,1-.11.14C171.59,52.82,171.79,52.62,170.81,52.62Z"/><path class="cls-1" d="M194.84,88.7a20.47,20.47,0,0,1-1.61,2.3c-.72.83-.31,2.37-.11,2.78s1.24.31,1.86-.1.84-.13,1.56.54a13,13,0,0,1,1.37-1.63c-.82-.48-1.57-.56-1.77-.75-.34-.34,1-1.32,1.9-1.52s.49-1.27-.29-2l-.44-.4a4.06,4.06,0,0,0-.89.63C196.17,88.91,195.63,88.79,194.84,88.7Z"/><path class="cls-1" d="M179,72.72c-.62.61-2.05.82-1.84,1.84s-.21,2-1.23,3.27-.42,3-.21,4.47c1.23-.09,2.51-.11,2.77.15.51.51.72,0,1-1s.93-.93,1.55-.42,1,1.34,2.06.83.92-.21,1.44,0,2.58-.1,3.3,0,7,6.8,7,6.8l0,.07c.79.09,1.33.21,1.58-.11a4.06,4.06,0,0,1,.89-.63A36.62,36.62,0,0,1,193.79,84c-1.86-2.35-4.06-3.61-5.23-3.61s-1.37-2-2.1-2.11-2.4-3-2.45-4.84a7.46,7.46,0,0,0-1.85-3.67A10.91,10.91,0,0,1,179,72.72Z"/><path class="cls-1" d="M166.94,105.84c.4,1,2.24,2,2.86,3.68a3.84,3.84,0,0,0,3.06,2.45c.61,0,.2,1-.05,2.9a9.73,9.73,0,0,1,1.08.46c.51.29,2.64,0,3.37.66s3.08,2.2,3.82,2.2a14.48,14.48,0,0,1,3.81.66c.44.29,1-1.1,2.2-1.76s2.64-1.1,2.86-.59a1.32,1.32,0,0,0,1.61.66,9.76,9.76,0,0,1,1.65-.46,13.54,13.54,0,0,1,2.68-.42c.59.07,2.2-2.27,4.33-2.27s2.71.36,3.66-.66,8.15-8.29,8.81-8.8-.44-.74-1.18-.74a11.67,11.67,0,0,1-4.54-1c-2.35-1-6-2.2-6.68-2.35s-1.61-1.69-2.2-2-1.76-2.35-2.05-3c-.1-.23.13-.7.5-1.23-.72-.67-1.08-.86-1.56-.54s-1.65.52-1.86.1-.61-2,.11-2.78a20.94,20.94,0,0,0,1.65-2.37s-6.29-6.7-7-6.8-2.78.21-3.3,0-.41-.52-1.44,0-1.45-.31-2.06-.83-1.24-.62-1.55.42-.52,1.54-1,1c-.26-.26-1.54-.24-2.77-.15a0,0,0,0,0,0,0c.2,1.43-1.23,3.06-1.23,3.88a1.76,1.76,0,0,1-1.43,1.64c-.62,0-1.23,1.63-2,2.45s-.2,2.66-1,3.27-2,.82-1.43,1.43-1,1.84-1,3.07a14.13,14.13,0,0,1-.41,3.68c-.2.2-2.66-.41-2.66.61s-1,1-.61,1.84S166.52,104.81,166.94,105.84Z"/><path class="cls-1" d="M190.11,121.38l1.52-2.37,1.58-2.31a9.76,9.76,0,0,0-1.65.46,1.32,1.32,0,0,1-1.61-.66c-.22-.51-1.69-.07-2.86.59s-1.76,2-2.2,1.76a14.48,14.48,0,0,0-3.81-.66c-.74,0-3.08-1.54-3.82-2.2s-2.86-.37-3.37-.66-1.54-.52-1.91-1-1.24-.36-2-.22-2.49,1.18-2.64,1.77a1.11,1.11,0,0,1-.42.53l1.51,1.37.34,2.37,1.35,1.19a25,25,0,0,1-.17,2.71,8.1,8.1,0,0,1-2.2,3.89,7.69,7.69,0,0,0-1,2.06c1.29.32,2.26.81,2.19,1.2-.15.81-2.35.44-2.35,2.13,0,.11,0,.22,0,.33l12.5,6.64-.17,2s2.81,2,5.55,3.94a70.92,70.92,0,0,1,3.24-7.2c.73-1.12,1.46-.92,2.1-1.71s.83.39,1.81-1.17a3.72,3.72,0,0,1,.28-.4l-1.64-2.6Z"/><path class="cls-1" d="M168.79,120.19l-.34-2.37-1.51-1.37c-.44.38-1.07.73-1.12,1.08-.07.51-1.46.44-2,.14a2.9,2.9,0,0,0-2.42.81c-.29.44-1.32-.81-2-.73a15.44,15.44,0,0,0-2.5.73s-.29,2-.29,2.86,1.1,1,1.1,1.61-.88,1.25-1,1.69-.66.73-1.4,1-.66,1.4-1.24,1.84-.44,1.54-.81,2.35a7.26,7.26,0,0,0-.59,2.85,4.28,4.28,0,0,1-.55,2.41,2.31,2.31,0,0,0,1.65-.29,31.43,31.43,0,0,1,3.39-1l2.76-.22c.61-1.73,1.51-3.29,2.51-3.59a9.18,9.18,0,0,1,4.41.12,7.69,7.69,0,0,1,1-2.06,8.1,8.1,0,0,0,2.2-3.89,25,25,0,0,0,.17-2.71Z"/><path class="cls-1" d="M217.65,171c-.44-1.6-.78.59-1.17,1a3.48,3.48,0,0,0-.5,2.34c.1.79-1.17,1.57-1.95,1.47s-2.05.39-1.66,1.47-.59.88-.1,1.76-1.07,1.95-2.45,2.05-3.12,2.54-4.59,2.35-2.93,1-4.2.78-.4,2.64-1.37,4.4-.49,3.81.39,6,1.56,3.92-.79,6.75a7.53,7.53,0,0,0-1.27,7.92c.88,2,.88,4.89,2.16,6.26s4.79,2.54,5.86,1.47,2.21.14,3.42-1.27,3.13-8.9,4.79-13.89,3.82-11.54,3.62-12.91,1.18-2.25.59-3.71.2-3.23.88-2.06,1.66,1.18,2-.39-1.18-4-1.27-6.26S217.94,172.12,217.65,171Z"/><path class="cls-1" d="M152.48,153.9c-1.62-.88-2.28-12-1.47-12.24.1,0,.21.07.31.3l-.16-2.51a.86.86,0,0,1-.22-.06,1,1,0,0,1-.66-1,.88.88,0,0,1,.73-1s-.15-1.83.66-2.12a1,1,0,0,0,.4-.31,4.28,4.28,0,0,0,.55-2.41,7.26,7.26,0,0,1,.59-2.85c.37-.81.22-1.91.81-2.35s.51-1.62,1.24-1.84,1.32-.51,1.4-1,1-1,1-1.69-1.1-.8-1.1-1.61.29-2.86.29-2.86l0,0c-1.58-1.44-3.4-2.94-3.82-3.22-.61-.41-1.63.41-1.63.41s-1-1-1.84-.2-2.05,0-2.05,0a3.9,3.9,0,0,1-1.43-1.64,1.64,1.64,0,0,0-.86-.86l.06.13-2.45.41s-3.06-1.63-3.67-.41-1.23.41-2.65.41a7.71,7.71,0,0,0-3.47,1c-.82.41-2-.41-2.65,0s-1,2.24-1,2.24l-6.32-1.22s-1.23-1.84-2.65-1.84-3.47,2.65-3.47,2.65v2.22a5.47,5.47,0,0,1-.49,3.43,5,5,0,0,0-1.23,3.47c0,2.05-2.45,5.32-2.45,7s-2.87,2.66-2.87,3.68-.2,3.27-.2,5.52-1.23.41-1.23,2.45-1,.82-2,1.85-1.43,1.22-1.43.2-1.43-1.23-2.66-.2-1.63,0-2.25-.21c-.34-.11-1.74.72-3.1,1.64A16.05,16.05,0,0,1,98.16,151a2.46,2.46,0,0,0,.09.34,6,6,0,0,1,1.86-1c1-.15,10.71,0,10.71,0a4.46,4.46,0,0,1,.59,2.79c-.3,1.32.59.73,1.32,2.49s1.32,2.49,2.78,2a10.74,10.74,0,0,1,3.82-.58c.58.14.44-2.5,1.32-2.94a5,5,0,0,1,2.64,0s.15.74,1.61.74,2.2-.59,2.2.44a4.39,4.39,0,0,0,.59,2.63c.44.45-1.17,4.11-.44,4.7s1.76,1.91,1.61,2.64-.59,2.49,0,2.64.74-.88,1.76-.88a6.67,6.67,0,0,0,2.93-.29,1,1,0,0,1,.9,0,2.4,2.4,0,0,1,.87.85s.29,1,.88.73,2.2-.73,2.05-.15.44,1.91,1,1.62,2.05.88,2.78.88,1.47,0,1.47-.44.88-1.18,1.17-.59,1,1.91,1.76,1.91,2.5,0,2.5.58a4.85,4.85,0,0,0,1.32,2.79c.73.59,2.34,0,2.34,0a1.84,1.84,0,0,0,.59-1.47c0-1,0-2.34-.44-2.34s-1.17,1-2.2.73-1.76-2.35-2.2-2.64.73-2.2.73-3.08.74-3.37.15-3.67-.29-1.17.44-1.76-.29-2.2.88-2.2,3.34.12,4-.59c0-.05.1-.08.13-.14a4.55,4.55,0,0,0,.21-.51C154.14,156,153.38,154.4,152.48,153.9Z"/><path class="cls-1" d="M151.32,142a23.06,23.06,0,0,1,.82,3.44,12.66,12.66,0,0,1,1.41-.83c.85-.34,2.71-3.9,2.71-3.9l-.85-.5a5.35,5.35,0,0,0-.13-1.74,10,10,0,0,1-1.56,0s.17,1.36-1.69,1a8,8,0,0,0-1.09-.1.86.86,0,0,0,.22.06Z"/><path class="cls-1" d="M189.24,180.23a22.77,22.77,0,0,1-.83-6.45c.2-1.62-.29-5.87-.29-7.92,0-.05,0-.09,0-.13a15.39,15.39,0,0,0-3.51,1.89c-.3.58-1.57-.1-2.35.58s-1.27.1-1.95-.09-1,.68-1.08,1.27-1.47.29-2,.19-2,.39-2.83.39-.2-.68-1.08-1-1.46.39-1.95.39c-.3,0-1.21-.11-1.88-.2a3.38,3.38,0,0,1-.18,1.15c-.63,1.66,1.33,5.41,1.42,7a18.94,18.94,0,0,1,2,1.94c.88,1.07,0,1,.09,3.32s-1,1.37-1.85,2.15-.1,2.54-.3,3-2.83-3.42-3-4,1-2.93.69-4.3-2.06-.49-2.64-.39-2-1.57-2.25-1.57-9.19,3.33-9.19,3.33l.68,2.44h-.19l.48,1.07s2.94.14,4.26,1,3.37,1,3.81,1.32,0,3.52.15,5.14-1.76,2.05-.88,2.93.44,2.35,1,2.49-1,2.06-1.76,2.5,0,2-.88,3.22a43.75,43.75,0,0,1-3.35,3.34.47.47,0,0,1,.13.11c.29.51,1.17,5.65,2.05,6.16s.37,5.57.29,6,.37,3.81.37,3.81a18.12,18.12,0,0,1,2.46-.19c.08-.67.13-1.25.16-1.65.09-1.56-1-.29-1.32-1.27s2.39-2.78,5.18-3.81,3.86-1.61,4.15-2.59,0-3.72.35-4.79-.25-1.71-.59-4.16-1.22-2.83-1.61-4.2-.3-2.45.53-2.5.83-.44,1.52-1.76,1.47-.78,2.79-1.76,1.37-2.2,3.47-3.81,4.4-1.56,6.45-2.79S189.58,181.11,189.24,180.23Z"/><path class="cls-1" d="M185.77,162.73c-.1-2-1.27-2-1.22-3.38s.15-2.59-.34-2.73-.2-1.32.58-2.5-1.41-1.32-1.76-2.78c-.14-.63.56-2.73,1.46-5-2.74-1.89-5.55-3.94-5.55-3.94l.17-2-12.5-6.64a3.51,3.51,0,0,1-1.59,3.12c-1,.43,1.32,1.83.22,2.05s-3.6-1-5.36-.3c-1.18.5-.94-2.46,0-5.06l-2.76.22s-.75.19-1.56.42l.54,1.45a4.5,4.5,0,0,1,.51,2.2c-.08.38-.68.55-1.32.63a5.35,5.35,0,0,1,.13,1.74l.85.5s-1.86,3.56-2.71,3.9a12.66,12.66,0,0,0-1.41.83c.5,2.5,1.11,5.47,2,6.3,1.69,1.54,1.4,3.3,1.76,4.33s1.84,2.2.81,2.64c-.66.28-1.25-.43-1.84-1.39a4.55,4.55,0,0,1-.21.51c0,.06-.09.09-.13.14a7.07,7.07,0,0,0,2.39,1.36c.84,0,2.2,1,3,1.19a14.49,14.49,0,0,1,4.24,1.86c.06.08.13.2.21.32a16.43,16.43,0,0,1,2.23,0,.68.68,0,0,1,.48-.19c1.12,0,2.44,4.24,2.38,6.7.67.09,1.58.2,1.88.2.49,0,1.07-.69,1.95-.39s.3,1,1.08,1,2.34-.49,2.83-.39,1.86.39,2-.19.39-1.47,1.08-1.27,1.17.78,1.95.09,2.05,0,2.35-.58a15.39,15.39,0,0,1,3.51-1.89C188,163.85,185.87,164.69,185.77,162.73Z"/><path class="cls-1" d="M172.77,179.26a18.94,18.94,0,0,0-2-1.94.83.83,0,0,1-.1.56c-.86,1.25-3.3-2.64-3.59-5.06s1.39-3.59.37-5.86c-.86-1.9-1.4-3.73-.78-4.29a16.43,16.43,0,0,0-2.23,0,10.66,10.66,0,0,1,1.31,3.23c0,.68-.85-.17-1.19.68s-.5,4.74.17,5.41-1.35.18-1.35.85-.17,3-.51,3.22.2.67.59,1.45h0c.29,0,1.66,1.67,2.25,1.57s2.34-1,2.64.39-.88,3.71-.69,4.3,2.84,4.5,3,4-.58-2.25.3-3,2,.19,1.85-2.15S173.65,180.33,172.77,179.26Z"/></g></g></svg>