<svg xmlns="http://www.w3.org/2000/svg" viewBox="0 0 43.2 45.25"><defs><style>.cls-1{isolation:isolate;}.cls-2{fill:#481212;}.cls-3{fill:#581616;}.cls-4{fill:#611818;}.cls-5{fill:#7c1e1e;}.cls-6{fill:#761d1d;}.cls-7{fill:#a22828;}.cls-8{fill:#9f2727;}.cls-9{fill:#a82929;}.cls-10{fill:#9c2626;}.cls-11{fill:#4f1313;}.cls-12{fill:#811f1f;}.cls-13{fill:#671919;}.cls-14{fill:#691a1a;}.cls-15{fill:#a92929;}.cls-16{fill:#9e2727;}.cls-17{fill:#922424;}.cls-18{fill:#731c1c;}.cls-19{fill:#852121;}.cls-20{fill:#9a2626;}.cls-21{fill:#741d1d;}.cls-22{fill:#6c1b1b;}.cls-23{fill:#8c2222;}.cls-24{fill:#751d1d;}.cls-25{fill:#7e1f1f;}.cls-26{fill:#5d1717;}.cls-27{fill:#5a1616;}.cls-28{fill:#8b2222;}.cls-29{fill:#9d2626;}.cls-30{fill:#a32828;}.cls-31{fill:#551515;}.cls-32{fill:#6a1a1a;}.cls-33{fill:#4d1313;}.cls-34{fill:#651919;}.cls-35{fill:#5b1616;}.cls-36{fill:#541414;}.cls-37{fill:#6b1a1a;}.cls-38{fill:#4a1212;}.cls-39{fill:#561515;}.cls-40{fill:#4e1313;}.cls-41{fill:#7b1e1e;}.cls-42{fill:#591616;}.cls-43{fill:#5e1717;}.cls-44{fill:#711c1c;}.cls-45{fill:#8a2222;}.cls-46{fill:#6e1b1b;}.cls-47{fill:#7f1f1f;}.cls-48{fill:#8d2323;}.cls-49{fill:#641818;}.cls-50{fill:#832020;}.cls-51{fill:#4b1212;}.cls-52{fill:#541515;}.cls-53{fill:#a62929;}.cls-54{fill:#a02727;}.cls-55{fill:#681919;}.cls-56{fill:#812020;}.cls-57{fill:#842020;}.cls-58{fill:#4c1313;}.cls-59{fill:#681a1a;}.cls-60{fill:#932424;}.cls-61{fill:#521414;}.cls-62{fill:#822020;}.cls-63{fill:#621818;}.cls-64{fill:#a52828;}.cls-65{fill:#c83131;}</style></defs><title>Benin</title><g id="Layer_2" data-name="Layer 2"><g id="Layer_1-2" data-name="Layer 1"><g class="cls-1"><polygon class="cls-2" points="3.71 0.4 3.66 16.7 3.64 16.6 3.68 0.29 3.71 0.4"/><polygon class="cls-2" points="3.22 1.41 3.17 17.71 3.15 17.52 3.19 1.22 3.22 1.41"/><polygon class="cls-2" points="1.71 2.86 1.66 19.16 1.6 19.06 1.65 2.76 1.71 2.86"/><polygon class="cls-3" points="1.86 2.94 1.82 19.25 1.66 19.16 1.71 2.86 1.86 2.94"/><polygon class="cls-4" points="2.31 3.12 2.26 19.43 1.82 19.25 1.86 2.94 2.31 3.12"/><polygon class="cls-5" points="3.85 3.35 3.81 19.66 2.26 19.43 2.31 3.12 3.85 3.35"/><polygon class="cls-2" points="3.81 3.95 3.76 20.25 3.73 19.89 3.78 3.58 3.81 3.95"/><polygon class="cls-6" points="4.08 4.01 4.03 20.31 3.76 20.25 3.81 3.95 4.08 4.01"/><polygon class="cls-7" points="23.26 4.49 23.22 20.79 23.13 20.86 23.18 4.56 23.26 4.49"/><polygon class="cls-2" points="4.5 4.52 4.45 20.82 4.03 20.31 4.08 4.01 4.5 4.52"/><polygon class="cls-8" points="23.18 4.56 23.13 20.86 22.49 20.98 22.53 4.67 23.18 4.56"/><polygon class="cls-2" points="4.58 4.68 4.53 20.98 4.45 20.82 4.5 4.52 4.58 4.68"/><polygon class="cls-9" points="22.53 4.67 22.49 20.98 22.32 21.04 22.37 4.74 22.53 4.67"/><polygon class="cls-10" points="22.37 4.74 22.32 21.04 22.23 21.14 22.27 4.84 22.37 4.74"/><polygon class="cls-2" points="4.61 4.99 4.56 21.29 4.53 20.98 4.58 4.68 4.61 4.99"/><polygon class="cls-2" points="4.73 5.14 4.68 21.44 4.56 21.29 4.61 4.99 4.73 5.14"/><polygon class="cls-11" points="4.96 5.3 4.92 21.61 4.68 21.44 4.73 5.14 4.96 5.3"/><polygon class="cls-2" points="4.96 5.41 4.92 21.71 4.92 21.61 4.96 5.3 4.96 5.41"/><polygon class="cls-12" points="24.55 6.13 24.5 22.43 24.43 22.6 24.48 6.3 24.55 6.13"/><polygon class="cls-13" points="24.48 6.3 24.43 22.6 24.42 22.71 24.47 6.41 24.48 6.3"/><polygon class="cls-2" points="4.75 7.29 4.7 23.6 4.67 22.54 4.72 6.24 4.75 7.29"/><polygon class="cls-14" points="25.32 7.53 25.28 23.83 25.26 23.96 25.31 7.66 25.32 7.53"/><polygon class="cls-15" points="25.31 7.66 25.26 23.96 24.83 24.17 24.88 7.87 25.31 7.66"/><polygon class="cls-16" points="24.88 7.87 24.83 24.17 24.64 24.36 24.68 8.05 24.88 7.87"/><polygon class="cls-17" points="24.68 8.05 24.64 24.36 24.36 24.75 24.41 8.45 24.68 8.05"/><polygon class="cls-18" points="24.41 8.45 24.36 24.75 24.33 24.86 24.38 8.56 24.41 8.45"/><polygon class="cls-19" points="25.42 9.11 25.37 25.42 25.28 25.61 25.33 9.31 25.42 9.11"/><polygon class="cls-15" points="25.33 9.31 25.28 25.61 25.16 25.67 25.21 9.37 25.33 9.31"/><polygon class="cls-9" points="25.21 9.37 25.16 25.67 25 25.74 25.05 9.43 25.21 9.37"/><polygon class="cls-20" points="25.05 9.43 25 25.74 24.93 25.81 24.98 9.51 25.05 9.43"/><polygon class="cls-2" points="0.68 9.71 0.63 26.02 0.58 25.81 0.62 9.51 0.68 9.71"/><polygon class="cls-21" points="0.88 9.76 0.83 26.06 0.63 26.02 0.68 9.71 0.88 9.76"/><polygon class="cls-2" points="0.78 10.22 0.73 26.52 0.66 26.42 0.71 10.12 0.78 10.22"/><polygon class="cls-22" points="0.93 10.27 0.89 26.57 0.73 26.52 0.78 10.22 0.93 10.27"/><polygon class="cls-23" points="25.42 10.25 25.37 26.55 25.29 26.69 25.34 10.39 25.42 10.25"/><polygon class="cls-24" points="1.19 10.32 1.15 26.63 0.89 26.57 0.93 10.27 1.19 10.32"/><polygon class="cls-2" points="0.97 10.71 0.92 27.01 0.83 26.84 0.88 10.54 0.97 10.71"/><polygon class="cls-2" points="1.04 10.85 1 27.15 0.92 27.01 0.97 10.71 1.04 10.85"/><polygon class="cls-2" points="0.13 11.38 0.08 27.68 0 27.43 0.05 11.13 0.13 11.38"/><polygon class="cls-25" points="0.46 11.42 0.41 27.72 0.08 27.68 0.13 11.38 0.46 11.42"/><polygon class="cls-26" points="0.72 11.54 0.67 27.84 0.41 27.72 0.46 11.42 0.72 11.54"/><polygon class="cls-2" points="0.77 11.62 0.73 27.92 0.67 27.84 0.72 11.54 0.77 11.62"/><polygon class="cls-2" points="0.58 11.86 0.53 28.17 0.47 28.03 0.51 11.73 0.58 11.86"/><polygon class="cls-27" points="1.24 12.19 1.2 28.5 0.53 28.17 0.58 11.86 1.24 12.19"/><polygon class="cls-28" points="1.4 12.2 1.35 28.5 1.2 28.5 1.24 12.19 1.4 12.2"/><polygon class="cls-5" points="27.47 12.25 27.42 28.55 27.37 28.71 27.41 12.41 27.47 12.25"/><polygon class="cls-29" points="27.41 12.41 27.37 28.71 27.04 29.04 27.08 12.74 27.41 12.41"/><polygon class="cls-9" points="27.08 12.74 27.04 29.04 26.36 29.3 26.41 13 27.08 12.74"/><polygon class="cls-2" points="0.87 13.08 0.83 29.39 0.43 28.82 0.48 12.52 0.87 13.08"/><polygon class="cls-30" points="26.41 13 26.36 29.3 25.65 29.88 25.69 13.58 26.41 13"/><polygon class="cls-2" points="0.58 13.59 0.53 29.89 0.29 29.55 0.33 13.25 0.58 13.59"/><polygon class="cls-31" points="0.78 13.71 0.73 30.01 0.53 29.89 0.58 13.59 0.78 13.71"/><polygon class="cls-32" points="1.05 13.79 1.01 30.09 0.73 30.01 0.78 13.71 1.05 13.79"/><polygon class="cls-2" points="1.21 14.02 1.17 30.32 1.01 30.09 1.05 13.79 1.21 14.02"/><polygon class="cls-33" points="1.41 14.16 1.36 30.47 1.17 30.32 1.21 14.02 1.41 14.16"/><polygon class="cls-2" points="1.44 14.28 1.39 30.59 1.36 30.47 1.41 14.16 1.44 14.28"/><polygon class="cls-34" points="27.21 14.59 27.17 30.89 27.16 31.06 27.21 14.76 27.21 14.59"/><polygon class="cls-2" points="1.56 14.87 1.51 31.18 1.38 30.99 1.43 14.69 1.56 14.87"/><polygon class="cls-35" points="2.21 15.2 2.17 31.5 1.51 31.18 1.56 14.87 2.21 15.2"/><polygon class="cls-36" points="2.47 15.35 2.42 31.65 2.17 31.5 2.21 15.2 2.47 15.35"/><polygon class="cls-37" points="10.25 15.58 10.2 31.88 9.83 31.77 9.88 15.47 10.25 15.58"/><polygon class="cls-20" points="9.88 15.47 9.83 31.77 8.67 31.91 8.71 15.6 9.88 15.47"/><polygon class="cls-38" points="2.75 15.62 2.7 31.93 2.42 31.65 2.47 15.35 2.75 15.62"/><polygon class="cls-20" points="8.71 15.6 8.67 31.91 7.08 32.09 7.13 15.78 8.71 15.6"/><polygon class="cls-39" points="10.74 15.86 10.7 32.16 10.2 31.88 10.25 15.58 10.74 15.86"/><polygon class="cls-20" points="7.13 15.78 7.08 32.09 6.14 32.2 6.19 15.89 7.13 15.78"/><polygon class="cls-20" points="6.19 15.89 6.14 32.2 5.51 32.27 5.55 15.97 6.19 15.89"/><polygon class="cls-40" points="3.36 16.08 3.31 32.38 2.7 31.93 2.75 15.62 3.36 16.08"/><polygon class="cls-20" points="5.55 15.97 5.51 32.27 4.46 32.39 4.5 16.09 5.55 15.97"/><polygon class="cls-31" points="3.51 16.16 3.46 32.47 3.31 32.38 3.36 16.08 3.51 16.16"/><polygon class="cls-41" points="3.67 16.19 3.62 32.49 3.46 32.47 3.51 16.16 3.67 16.19"/><polygon class="cls-20" points="4.5 16.09 4.46 32.39 3.62 32.49 3.67 16.19 4.5 16.09"/><polygon class="cls-39" points="11.49 16.27 11.45 32.58 10.7 32.16 10.74 15.86 11.49 16.27"/><polygon class="cls-39" points="12.02 16.57 11.98 32.88 11.45 32.58 11.49 16.27 12.02 16.57"/><polygon class="cls-42" points="12.51 16.82 12.46 33.13 11.98 32.88 12.02 16.57 12.51 16.82"/><polygon class="cls-33" points="12.75 17.02 12.7 33.32 12.46 33.13 12.51 16.82 12.75 17.02"/><polygon class="cls-2" points="12.87 17.25 12.83 33.56 12.7 33.32 12.75 17.02 12.87 17.25"/><polygon class="cls-43" points="13.03 17.32 12.98 33.63 12.83 33.56 12.87 17.25 13.03 17.32"/><polygon class="cls-44" points="13.78 17.35 13.74 33.65 13.47 33.58 13.52 17.28 13.78 17.35"/><polygon class="cls-18" points="13.26 17.38 13.21 33.68 12.98 33.63 13.03 17.32 13.26 17.38"/><polygon class="cls-23" points="13.46 17.38 13.41 33.68 13.21 33.68 13.26 17.38 13.46 17.38"/><polygon class="cls-45" points="13.52 17.28 13.47 33.58 13.41 33.68 13.46 17.38 13.52 17.28"/><polygon class="cls-42" points="14.5 17.71 14.46 34.02 13.74 33.65 13.78 17.35 14.5 17.71"/><polygon class="cls-46" points="14.87 17.81 14.82 34.12 14.46 34.02 14.5 17.71 14.87 17.81"/><polygon class="cls-47" points="15.28 17.86 15.23 34.17 14.82 34.12 14.87 17.81 15.28 17.86"/><polygon class="cls-48" points="16.36 17.87 16.32 34.18 15.23 34.17 15.28 17.86 16.36 17.87"/><polygon class="cls-23" points="17.2 17.89 17.16 34.19 16.32 34.18 16.36 17.87 17.2 17.89"/><polygon class="cls-5" points="17.59 17.95 17.54 34.25 17.16 34.19 17.2 17.89 17.59 17.95"/><polygon class="cls-37" points="17.8 18.01 17.75 34.31 17.54 34.25 17.59 17.95 17.8 18.01"/><polygon class="cls-49" points="18.01 18.09 17.97 34.4 17.75 34.31 17.8 18.01 18.01 18.09"/><polygon class="cls-39" points="18.87 18.57 18.82 34.87 17.97 34.4 18.01 18.09 18.87 18.57"/><polygon class="cls-39" points="19.6 18.99 19.56 35.29 18.82 34.87 18.87 18.57 19.6 18.99"/><polygon class="cls-39" points="20.23 19.34 20.18 35.65 19.56 35.29 19.6 18.99 20.23 19.34"/><polygon class="cls-39" points="21.14 19.85 21.09 36.16 20.18 35.65 20.23 19.34 21.14 19.85"/><polygon class="cls-17" points="36.66 19.75 36.62 36.06 36.51 36.21 36.55 19.91 36.66 19.75"/><polygon class="cls-43" points="21.54 20.03 21.49 36.33 21.09 36.16 21.14 19.85 21.54 20.03"/><polygon class="cls-50" points="22.02 20.07 21.97 36.38 21.49 36.33 21.54 20.03 22.02 20.07"/><polygon class="cls-51" points="22.12 20.16 22.07 36.46 21.97 36.38 22.02 20.07 22.12 20.16"/><polygon class="cls-2" points="22.3 20.53 22.26 36.84 22.07 36.46 22.12 20.16 22.3 20.53"/><polygon class="cls-31" points="22.42 20.6 22.37 36.9 22.26 36.84 22.3 20.53 22.42 20.6"/><polygon class="cls-49" points="22.74 20.72 22.7 37.02 22.37 36.9 22.42 20.6 22.74 20.72"/><polygon class="cls-26" points="23.39 21.01 23.34 37.31 22.7 37.02 22.74 20.72 23.39 21.01"/><polygon class="cls-52" points="24.14 21.46 24.09 37.76 23.34 37.31 23.39 21.01 24.14 21.46"/><polygon class="cls-52" points="25.19 22.08 25.14 38.38 24.09 37.76 24.14 21.46 25.19 22.08"/><polygon class="cls-31" points="26.25 22.69 26.2 39 25.14 38.38 25.19 22.08 26.25 22.69"/><polygon class="cls-31" points="27.58 23.45 27.53 39.76 26.2 39 26.25 22.69 27.58 23.45"/><polygon class="cls-31" points="27.7 23.52 27.65 39.83 27.53 39.76 27.58 23.45 27.7 23.52"/><polygon class="cls-39" points="28.27 23.85 28.23 40.15 27.65 39.83 27.7 23.52 28.27 23.85"/><polygon class="cls-31" points="28.93 24.23 28.88 40.53 28.23 40.15 28.27 23.85 28.93 24.23"/><polygon class="cls-39" points="29.93 24.8 29.89 41.1 28.88 40.53 28.93 24.23 29.93 24.8"/><polygon class="cls-39" points="30.91 25.35 30.86 41.66 29.89 41.1 29.93 24.8 30.91 25.35"/><polygon class="cls-53" points="43.2 24.18 43.16 40.49 40.78 42.16 40.83 25.86 43.2 24.18"/><polygon class="cls-31" points="31.89 25.92 31.84 42.22 30.86 41.66 30.91 25.35 31.89 25.92"/><polygon class="cls-54" points="40.83 25.86 40.78 42.16 40.36 42.53 40.41 26.23 40.83 25.86"/><polygon class="cls-55" points="31.9 26.49 31.86 42.8 31.26 42.6 31.3 26.29 31.9 26.49"/><polygon class="cls-56" points="32.1 26.52 32.06 42.82 31.86 42.8 31.9 26.49 32.1 26.52"/><polygon class="cls-57" points="32.51 26.55 32.47 42.85 32.06 42.82 32.1 26.52 32.51 26.55"/><polygon class="cls-58" points="32.74 26.74 32.7 43.05 32.47 42.85 32.51 26.55 32.74 26.74"/><polygon class="cls-42" points="32.86 26.81 32.82 43.11 32.7 43.05 32.74 26.74 32.86 26.81"/><polygon class="cls-59" points="33.01 26.85 32.96 43.16 32.82 43.11 32.86 26.81 33.01 26.85"/><polygon class="cls-22" points="33.19 26.91 33.14 43.21 32.96 43.16 33.01 26.85 33.19 26.91"/><polygon class="cls-14" points="33.39 26.97 33.35 43.27 33.14 43.21 33.19 26.91 33.39 26.97"/><polygon class="cls-2" points="33.48 27.12 33.44 43.42 33.35 43.27 33.39 26.97 33.48 27.12"/><polygon class="cls-2" points="33.52 27.25 33.48 43.55 33.44 43.42 33.48 27.12 33.52 27.25"/><polygon class="cls-60" points="33.89 27.38 33.84 43.68 33.69 43.69 33.73 27.39 33.89 27.38"/><polygon class="cls-61" points="33.73 27.39 33.69 43.69 33.48 43.55 33.52 27.25 33.73 27.39"/><polygon class="cls-62" points="35.06 27.5 35.02 43.81 33.84 43.68 33.89 27.38 35.06 27.5"/><polygon class="cls-19" points="35.43 27.53 35.39 43.84 35.02 43.81 35.06 27.5 35.43 27.53"/><polygon class="cls-63" points="35.71 27.64 35.67 43.95 35.39 43.84 35.43 27.53 35.71 27.64"/><polygon class="cls-10" points="36.03 27.6 35.98 43.9 35.67 43.95 35.71 27.64 36.03 27.6"/><polygon class="cls-25" points="36.48 27.66 36.43 43.96 35.98 43.9 36.03 27.6 36.48 27.66"/><polygon class="cls-64" points="40.41 26.23 40.36 42.53 38.36 44 38.41 27.7 40.41 26.23"/><polygon class="cls-13" points="37.1 27.87 37.06 44.17 36.43 43.96 36.48 27.66 37.1 27.87"/><polygon class="cls-13" points="37.71 28.08 37.67 44.38 37.06 44.17 37.1 27.87 37.71 28.08"/><polygon class="cls-22" points="37.06 28.95 37.01 45.25 36.83 45.2 36.88 28.9 37.06 28.95"/><polygon class="cls-8" points="38.41 27.7 38.36 44 37.01 45.25 37.06 28.95 38.41 27.7"/><polygon class="cls-65" points="22.4 3.49 22.53 3.62 22.69 3.92 22.82 4.05 23.16 4.26 23.24 4.35 23.26 4.49 23.18 4.56 22.53 4.67 22.37 4.74 22.27 4.84 22.28 4.99 22.45 5.17 22.59 5.47 22.75 5.73 22.89 5.8 23.14 5.83 24.05 5.84 24.32 5.91 24.43 5.98 24.55 6.13 24.48 6.3 24.47 6.41 24.53 6.5 25.07 6.85 25.14 6.97 25.18 7.24 25.32 7.53 25.31 7.66 24.88 7.87 24.68 8.05 24.41 8.45 24.38 8.56 24.46 8.67 24.59 8.76 24.74 8.82 25.03 8.89 25.29 8.98 25.42 9.11 25.33 9.31 25.21 9.37 25.05 9.43 24.98 9.51 25.09 9.64 25.42 10.25 25.34 10.39 25.41 10.63 25.57 10.76 25.81 10.83 26.1 10.91 26.23 10.96 26.67 11.21 26.76 11.31 26.89 11.54 27.36 12.07 27.47 12.25 27.41 12.41 27.08 12.74 26.41 13 25.69 13.58 25.89 13.66 26.3 13.92 26.45 14.05 26.51 14.19 26.93 14.45 27.01 14.52 27.21 14.59 27.21 14.76 29.06 15.72 29.26 15.83 29.44 15.99 29.48 16.23 29.73 16.39 30.02 16.62 30.13 16.7 30.32 16.78 30.52 16.83 30.93 16.92 31.12 16.97 31.26 17.06 31.33 17.16 31.37 17.27 31.43 17.36 31.54 17.44 31.92 17.68 32.26 17.97 32.66 18.23 32.76 18.39 33.26 18.54 33.59 18.55 33.75 18.57 34.7 19.17 34.9 19.3 35.2 19.44 35.58 19.5 36.01 19.53 36.4 19.58 36.66 19.75 36.55 19.91 38.3 20.91 38.51 21.2 39.13 21.3 39.21 21.8 39.47 21.92 39.82 22.02 40.13 22.16 40.34 22.36 40.46 22.46 40.62 22.51 41.5 22.63 41.5 22.91 41.56 23.03 41.7 23.11 42.04 23.24 42.16 23.33 42.4 23.61 42.55 23.75 42.8 23.95 43.2 24.18 40.83 25.86 40.41 26.23 38.41 27.7 37.06 28.95 36.88 28.9 36.94 28.77 37.59 28.17 37.71 28.08 37.1 27.87 36.48 27.66 36.03 27.6 35.71 27.64 35.43 27.53 35.06 27.5 33.89 27.38 33.73 27.39 33.52 27.25 33.48 27.12 33.39 26.97 33.19 26.91 33.01 26.85 32.86 26.81 32.74 26.74 32.51 26.55 32.1 26.52 31.9 26.49 31.3 26.29 31.8 26.01 31.89 25.92 30.91 25.35 29.93 24.8 28.93 24.23 28.27 23.85 27.7 23.52 27.58 23.45 26.25 22.69 25.19 22.08 24.14 21.46 23.39 21.01 22.74 20.72 22.42 20.6 22.3 20.53 22.12 20.16 22.02 20.07 21.54 20.03 21.14 19.85 20.23 19.34 19.6 18.99 18.87 18.57 18.01 18.09 17.8 18.01 17.59 17.95 17.2 17.89 16.36 17.87 15.28 17.86 14.87 17.81 14.5 17.71 13.78 17.35 13.52 17.28 13.46 17.38 13.26 17.38 13.03 17.32 12.87 17.25 12.75 17.02 12.51 16.82 12.02 16.57 11.49 16.27 10.74 15.86 10.25 15.58 9.88 15.47 8.71 15.6 7.13 15.78 6.19 15.89 5.55 15.97 4.5 16.09 3.67 16.19 3.51 16.16 3.36 16.08 2.75 15.62 2.47 15.35 2.21 15.2 1.56 14.87 1.43 14.69 1.44 14.28 1.41 14.16 1.21 14.02 1.05 13.79 0.78 13.71 0.58 13.59 0.33 13.25 0.65 13.2 0.87 13.08 0.48 12.52 1.16 12.3 1.4 12.2 1.24 12.19 0.58 11.86 0.51 11.73 0.77 11.62 0.72 11.54 0.46 11.42 0.13 11.38 0.05 11.13 0.57 10.96 0.71 10.91 1.04 10.85 0.97 10.71 0.88 10.54 1.19 10.32 0.93 10.27 0.78 10.22 0.71 10.12 0.75 9.99 0.84 9.86 0.88 9.76 0.68 9.71 0.62 9.51 0.65 9.31 0.82 9.28 0.97 9.22 1.65 8.89 1.89 8.95 2.29 9.02 2.38 8.91 2.43 8.82 2.67 8.6 2.74 8.49 2.81 8.41 3.12 8.25 3.24 8.17 3.39 7.97 3.49 7.88 3.64 7.83 4 7.67 4.39 7.58 4.65 7.45 4.75 7.29 4.72 6.24 4.81 5.73 4.96 5.41 4.96 5.3 4.73 5.14 4.61 4.99 4.58 4.68 4.5 4.52 4.08 4.01 3.81 3.95 3.78 3.58 3.85 3.35 2.31 3.12 1.86 2.94 1.71 2.86 1.65 2.76 1.74 2.62 1.97 2.47 2.69 1.7 3.22 1.41 3.19 1.22 3.29 0.73 3.5 0.54 3.71 0.4 3.68 0.29 4.29 0.28 4.49 0.24 4.77 0.26 4.96 0.32 5.53 0.17 5.86 0.18 6.52 0.26 8.7 0.2 8.92 0.2 9.14 0.28 9.32 0.35 9.49 0.39 9.9 0.45 10.11 0.46 10.55 0.24 11.34 0.09 11.66 0 12.43 0.04 12.85 0.09 13.33 0.15 13.42 0.32 13.76 1.05 13.97 1.27 14.04 1.35 14.27 1.64 14.43 1.72 14.71 1.77 17.58 2.05 17.89 2.05 18.38 2.13 18.53 2.21 18.69 2.28 18.86 2.32 19.04 2.35 19.78 2.61 19.97 2.74 20.18 3.02 20.29 3.09 21.11 3.24 21.8 3.19 22.03 3.28 22.19 3.37 22.4 3.49"/></g></g></g></svg>