<svg xmlns="http://www.w3.org/2000/svg" viewBox="0 0 53.82 55.92"><defs><style>.cls-1{isolation:isolate;}.cls-2{fill:#932424;}.cls-3{fill:#a12727;}.cls-4{fill:#9f2727;}.cls-5{fill:#481212;}.cls-6{fill:#811f1f;}.cls-7{fill:#a72929;}.cls-8{fill:#a32828;}.cls-9{fill:#6f1b1b;}.cls-10{fill:#882121;}.cls-11{fill:#a92929;}.cls-12{fill:#a42828;}.cls-13{fill:#a22828;}.cls-14{fill:#a82929;}.cls-15{fill:#952424;}.cls-16{fill:#a62929;}.cls-17{fill:#892222;}.cls-18{fill:#7b1e1e;}.cls-19{fill:#a02727;}.cls-20{fill:#491212;}.cls-21{fill:#862121;}.cls-22{fill:#8e2323;}.cls-23{fill:#4f1313;}.cls-24{fill:#972525;}.cls-25{fill:#5b1616;}.cls-26{fill:#691a1a;}.cls-27{fill:#7d1f1f;}.cls-28{fill:#751d1d;}.cls-29{fill:#9b2626;}.cls-30{fill:#962525;}.cls-31{fill:#681919;}.cls-32{fill:#511414;}.cls-33{fill:#661919;}.cls-34{fill:#4a1212;}.cls-35{fill:#902323;}.cls-36{fill:#5a1616;}.cls-37{fill:#4e1313;}.cls-38{fill:#a52828;}.cls-39{fill:#611818;}.cls-40{fill:#6a1a1a;}.cls-41{fill:#631818;}.cls-42{fill:#581515;}.cls-43{fill:#6d1b1b;}.cls-44{fill:#721c1c;}.cls-45{fill:#641919;}.cls-46{fill:#671919;}.cls-47{fill:#771d1d;}.cls-48{fill:#872121;}.cls-49{fill:#701b1b;}.cls-50{fill:#731c1c;}.cls-51{fill:#781d1d;}.cls-52{fill:#852020;}.cls-53{fill:#912323;}.cls-54{fill:#912424;}.cls-55{fill:#501414;}.cls-56{fill:#5d1717;}.cls-57{fill:#551515;}.cls-58{fill:#541515;}.cls-59{fill:#581616;}.cls-60{fill:#852121;}.cls-61{fill:#9d2626;}.cls-62{fill:#761d1d;}.cls-63{fill:#9e2727;}.cls-64{fill:#812020;}.cls-65{fill:#8d2323;}.cls-66{fill:#741c1c;}.cls-67{fill:#5c1717;}.cls-68{fill:#c83131;}</style></defs><title>Burkina Faso</title><g id="Layer_2" data-name="Layer 2"><g id="Layer_1-2" data-name="Layer 1"><g class="cls-1"><polygon class="cls-2" points="35.85 2.13 35.81 18.43 35.7 18.57 35.74 2.27 35.85 2.13"/><polygon class="cls-3" points="35.74 2.27 35.7 18.57 35.5 18.61 35.55 2.31 35.74 2.27"/><polygon class="cls-4" points="48.57 1.99 48.52 18.29 48.11 18.68 48.16 2.37 48.57 1.99"/><polygon class="cls-5" points="44.62 2.48 44.57 18.78 44.52 18.62 44.56 2.31 44.62 2.48"/><polygon class="cls-6" points="35.55 2.31 35.5 18.61 35.36 18.95 35.41 2.64 35.55 2.31"/><polygon class="cls-7" points="35.41 2.64 35.36 18.95 35.12 19.03 35.16 2.73 35.41 2.64"/><polygon class="cls-4" points="48.16 2.37 48.11 18.68 47.63 19.12 47.68 2.82 48.16 2.37"/><polygon class="cls-7" points="35.16 2.73 35.12 19.03 34.67 19.19 34.72 2.88 35.16 2.73"/><polygon class="cls-8" points="34.72 2.88 34.67 19.19 33.93 19.37 33.98 3.07 34.72 2.88"/><polygon class="cls-5" points="10.67 3.72 10.62 20.02 10.62 19.61 10.66 3.3 10.67 3.72"/><polygon class="cls-9" points="53.82 5.21 53.78 21.52 53.69 22.02 53.74 5.72 53.82 5.21"/><polygon class="cls-10" points="53.76 6.74 53.71 23.05 53.61 23.24 53.66 6.93 53.76 6.74"/><polygon class="cls-11" points="53.66 6.93 53.61 23.24 53.36 23.36 53.41 7.06 53.66 6.93"/><polygon class="cls-12" points="53.41 7.06 53.36 23.36 52.97 23.46 53.02 7.16 53.41 7.06"/><polygon class="cls-13" points="53.02 7.16 52.97 23.46 52.72 23.52 52.77 7.21 53.02 7.16"/><polygon class="cls-13" points="52.77 7.21 52.72 23.52 52.2 23.96 52.25 7.66 52.77 7.21"/><polygon class="cls-14" points="52.25 7.66 52.2 23.96 51.78 24.2 51.83 7.9 52.25 7.66"/><polygon class="cls-15" points="51.83 7.9 51.78 24.2 51.63 24.39 51.68 8.08 51.83 7.9"/><polygon class="cls-4" points="51.68 8.08 51.63 24.39 51.4 24.6 51.45 8.3 51.68 8.08"/><polygon class="cls-8" points="51.45 8.3 51.4 24.6 50.86 24.73 50.91 8.43 51.45 8.3"/><polygon class="cls-16" points="50.91 8.43 50.86 24.73 49.94 25.01 49.98 8.71 50.91 8.43"/><polygon class="cls-9" points="49.98 8.71 49.94 25.01 49.85 25.54 49.89 9.24 49.98 8.71"/><polygon class="cls-17" points="49.89 9.24 49.85 25.54 49.72 25.77 49.77 9.47 49.89 9.24"/><polygon class="cls-18" points="49.77 9.47 49.72 25.77 49.68 25.9 49.72 9.6 49.77 9.47"/><polygon class="cls-18" points="50.19 9.93 50.14 26.24 50.01 26.63 50.06 10.33 50.19 9.93"/><polygon class="cls-19" points="50.06 10.33 50.01 26.63 49.68 26.7 49.73 10.39 50.06 10.33"/><polygon class="cls-20" points="6.72 10.39 6.67 26.69 6.54 26.55 6.58 10.25 6.72 10.39"/><polygon class="cls-21" points="49.73 10.39 49.68 26.7 49.43 27.21 49.48 10.9 49.73 10.39"/><polygon class="cls-22" points="49.73 11.02 49.69 27.32 49.38 27.81 49.42 11.5 49.73 11.02"/><polygon class="cls-23" points="8.3 11.54 8.26 27.85 6.67 26.69 6.72 10.39 8.3 11.54"/><polygon class="cls-16" points="49.94 11.89 49.89 28.2 49.28 28.38 49.33 12.08 49.94 11.89"/><polygon class="cls-14" points="49.35 12.73 49.3 29.04 48.46 29.54 48.51 13.24 49.35 12.73"/><polygon class="cls-14" points="48.51 13.24 48.46 29.54 47.84 29.92 47.88 13.62 48.51 13.24"/><polygon class="cls-13" points="47.88 13.62 47.84 29.92 47.5 30.21 47.55 13.9 47.88 13.62"/><polygon class="cls-5" points="4.34 14.16 4.3 30.46 4.25 30 4.29 13.7 4.34 14.16"/><polygon class="cls-5" points="4.36 14.3 4.31 30.6 4.3 30.46 4.34 14.16 4.36 14.3"/><polygon class="cls-20" points="47.01 14.55 46.97 30.86 46.76 30.65 46.8 14.34 47.01 14.55"/><polygon class="cls-24" points="47.55 13.9 47.5 30.21 46.97 30.86 47.01 14.55 47.55 13.9"/><polygon class="cls-8" points="46.8 14.34 46.76 30.65 45.59 30.93 45.64 14.63 46.8 14.34"/><polygon class="cls-14" points="45.64 14.63 45.59 30.93 44.9 31.2 44.95 14.9 45.64 14.63"/><polygon class="cls-20" points="4.15 15.42 4.11 31.73 3.88 31.49 3.93 15.18 4.15 15.42"/><polygon class="cls-14" points="44.95 14.9 44.9 31.2 43.08 31.9 43.13 15.59 44.95 14.9"/><polygon class="cls-14" points="43.13 15.59 43.08 31.9 42.1 32.27 42.15 15.97 43.13 15.59"/><polygon class="cls-14" points="42.15 15.97 42.1 32.27 41.69 32.43 41.73 16.13 42.15 15.97"/><polygon class="cls-20" points="4.77 16.08 4.73 32.39 4.11 31.73 4.15 15.42 4.77 16.08"/><polygon class="cls-14" points="41.73 16.13 41.69 32.43 41.28 32.59 41.33 16.28 41.73 16.13"/><polygon class="cls-5" points="4.85 16.26 4.8 32.56 4.73 32.39 4.77 16.08 4.85 16.26"/><polygon class="cls-5" points="5 16.47 4.96 32.78 4.8 32.56 4.85 16.26 5 16.47"/><polygon class="cls-14" points="41.33 16.28 41.28 32.59 40.2 32.99 40.24 16.69 41.33 16.28"/><polygon class="cls-25" points="5.4 16.66 5.35 32.97 4.96 32.78 5 16.47 5.4 16.66"/><polygon class="cls-26" points="6.23 16.93 6.18 33.23 5.35 32.97 5.4 16.66 6.23 16.93"/><polygon class="cls-15" points="40.2 17.32 40.15 33.62 39.92 33.64 39.97 17.33 40.2 17.32"/><polygon class="cls-21" points="40.46 17.34 40.41 33.64 40.15 33.62 40.2 17.32 40.46 17.34"/><polygon class="cls-27" points="39.97 17.33 39.92 33.64 39.83 33.88 39.88 17.58 39.97 17.33"/><polygon class="cls-28" points="40.08 17.75 40.04 34.05 39.96 34.34 40.01 18.04 40.08 17.75"/><polygon class="cls-29" points="40.01 18.04 39.96 34.34 39.68 34.65 39.73 18.34 40.01 18.04"/><polygon class="cls-30" points="3.56 18.24 3.52 34.54 3.28 34.56 3.33 18.25 3.56 18.24"/><polygon class="cls-5" points="3.33 18.25 3.28 34.56 3.28 34.4 3.33 18.1 3.33 18.25"/><polygon class="cls-31" points="3.77 18.31 3.73 34.61 3.52 34.54 3.56 18.24 3.77 18.31"/><polygon class="cls-32" points="4.13 18.54 4.08 34.84 3.73 34.61 3.77 18.31 4.13 18.54"/><polygon class="cls-33" points="39.73 18.34 39.68 34.65 39.67 35.03 39.71 18.73 39.73 18.34"/><polygon class="cls-34" points="4.25 18.65 4.2 34.96 4.08 34.84 4.13 18.54 4.25 18.65"/><polygon class="cls-5" points="4.41 18.86 4.36 35.16 4.2 34.96 4.25 18.65 4.41 18.86"/><polygon class="cls-4" points="39.8 18.86 39.76 35.16 39.08 35.28 39.13 18.97 39.8 18.86"/><polygon class="cls-16" points="39.13 18.97 39.08 35.28 37.91 35.63 37.95 19.32 39.13 18.97"/><polygon class="cls-35" points="37.95 19.32 37.91 35.63 37.66 35.99 37.71 19.69 37.95 19.32"/><polygon class="cls-36" points="6.3 19.79 6.26 36.09 4.36 35.16 4.41 18.86 6.3 19.79"/><polygon class="cls-7" points="37.71 19.69 37.66 35.99 36.12 36.53 36.16 20.23 37.71 19.69"/><polygon class="cls-12" points="36.16 20.23 36.12 36.53 35.96 36.66 36.01 20.35 36.16 20.23"/><polygon class="cls-37" points="5.36 20.7 5.31 37 5.15 36.88 5.19 20.57 5.36 20.7"/><polygon class="cls-38" points="36.01 20.35 35.96 36.66 35.2 37.21 35.24 20.9 36.01 20.35"/><polygon class="cls-20" points="5.7 21.06 5.65 37.36 5.31 37 5.36 20.7 5.7 21.06"/><polygon class="cls-14" points="35.24 20.9 35.2 37.21 34.35 37.69 34.4 21.39 35.24 20.9"/><polygon class="cls-14" points="34.4 21.39 34.35 37.69 34.15 37.77 34.2 21.47 34.4 21.39"/><polygon class="cls-12" points="34.2 21.47 34.15 37.77 33.85 37.85 33.89 21.55 34.2 21.47"/><polygon class="cls-11" points="33.89 21.55 33.85 37.85 32.77 38.37 32.82 22.07 33.89 21.55"/><polygon class="cls-5" points="0.12 22.74 0.07 39.05 0.02 38.81 0.07 22.51 0.12 22.74"/><polygon class="cls-8" points="32.82 22.07 32.77 38.37 31.72 39.23 31.76 22.93 32.82 22.07"/><polygon class="cls-5" points="0.28 22.97 0.23 39.27 0.07 39.05 0.12 22.74 0.28 22.97"/><polygon class="cls-5" points="0.34 23.12 0.3 39.43 0.23 39.27 0.28 22.97 0.34 23.12"/><polygon class="cls-14" points="31.76 22.93 31.72 39.23 30.28 40.08 30.33 23.78 31.76 22.93"/><polygon class="cls-20" points="0.3 23.9 0.25 40.2 0.05 39.99 0.09 23.68 0.3 23.9"/><polygon class="cls-39" points="0.56 24 0.51 40.31 0.25 40.2 0.3 23.9 0.56 24"/><polygon class="cls-14" points="30.33 23.78 30.28 40.08 28.82 40.95 28.86 24.65 30.33 23.78"/><polygon class="cls-34" points="0.41 24.68 0.36 40.99 0 40.64 0.05 24.33 0.41 24.68"/><polygon class="cls-35" points="0.78 24.68 0.73 40.98 0.36 40.99 0.41 24.68 0.78 24.68"/><polygon class="cls-28" points="1.35 24.8 1.3 41.1 0.73 40.98 0.78 24.68 1.35 24.8"/><polygon class="cls-2" points="1.91 24.8 1.86 41.1 1.5 41.12 1.55 24.81 1.91 24.8"/><polygon class="cls-21" points="1.55 24.81 1.5 41.12 1.3 41.1 1.35 24.8 1.55 24.81"/><polygon class="cls-21" points="2.18 24.82 2.13 41.12 1.86 41.1 1.91 24.8 2.18 24.82"/><polygon class="cls-40" points="2.43 24.89 2.38 41.2 2.13 41.12 2.18 24.82 2.43 24.89"/><polygon class="cls-32" points="2.79 25.13 2.74 41.43 2.38 41.2 2.43 24.89 2.79 25.13"/><polygon class="cls-41" points="3.25 25.31 3.21 41.61 2.74 41.43 2.79 25.13 3.25 25.31"/><polygon class="cls-14" points="28.86 24.65 28.82 40.95 27.23 41.89 27.27 25.59 28.86 24.65"/><polygon class="cls-14" points="27.27 25.59 27.23 41.89 25.95 42.65 26 26.34 27.27 25.59"/><polygon class="cls-14" points="26 26.34 25.95 42.65 25.34 43.01 25.38 26.71 26 26.34"/><polygon class="cls-14" points="25.38 26.71 25.34 43.01 25.19 43.1 25.24 26.8 25.38 26.71"/><polygon class="cls-35" points="3.29 26.93 3.25 43.24 3.02 43.24 3.07 26.94 3.29 26.93"/><polygon class="cls-30" points="3.07 26.94 3.02 43.24 2.52 43.28 2.56 26.98 3.07 26.94"/><polygon class="cls-42" points="2.56 26.98 2.52 43.28 2.03 43.02 2.08 26.72 2.56 26.98"/><polygon class="cls-11" points="25.24 26.8 25.19 43.1 24.54 43.39 24.59 27.08 25.24 26.8"/><polygon class="cls-43" points="4.03 27.14 3.99 43.45 3.25 43.24 3.29 26.93 4.03 27.14"/><polygon class="cls-5" points="4.06 27.27 4.01 43.57 3.99 43.45 4.03 27.14 4.06 27.27"/><polygon class="cls-5" points="4.07 27.41 4.02 43.71 4.01 43.57 4.06 27.27 4.07 27.41"/><polygon class="cls-5" points="4.09 27.55 4.04 43.86 4.02 43.71 4.07 27.41 4.09 27.55"/><polygon class="cls-5" points="4.2 27.68 4.15 43.99 4.04 43.86 4.09 27.55 4.2 27.68"/><polygon class="cls-44" points="5.01 27.88 4.96 44.18 4.15 43.99 4.2 27.68 5.01 27.88"/><polygon class="cls-45" points="5.36 28 5.32 44.31 4.96 44.18 5.01 27.88 5.36 28"/><polygon class="cls-46" points="5.42 29.29 5.37 45.6 4.88 45.43 4.92 29.13 5.42 29.29"/><polygon class="cls-5" points="5.34 29.89 5.29 46.19 5.08 45.94 5.13 29.63 5.34 29.89"/><polygon class="cls-46" points="35.71 32.37 35.66 48.67 35.65 48.91 35.7 32.61 35.71 32.37"/><polygon class="cls-22" points="32.25 32.67 32.2 48.98 31.99 48.98 32.03 32.67 32.25 32.67"/><polygon class="cls-47" points="32.48 32.72 32.43 49.02 32.2 48.98 32.25 32.67 32.48 32.72"/><polygon class="cls-5" points="2.8 32.68 2.75 48.98 2.73 48.76 2.77 32.46 2.8 32.68"/><polygon class="cls-48" points="30.75 32.79 30.71 49.09 30.41 49.07 30.46 32.77 30.75 32.79"/><polygon class="cls-49" points="32.91 32.83 32.87 49.13 32.43 49.02 32.48 32.72 32.91 32.83"/><polygon class="cls-14" points="30.46 32.77 30.41 49.07 30.23 49.14 30.27 32.84 30.46 32.77"/><polygon class="cls-38" points="32.03 32.67 31.99 48.98 31.68 49.2 31.72 32.9 32.03 32.67"/><polygon class="cls-9" points="30.12 32.92 30.07 49.23 29.58 49.1 29.63 32.79 30.12 32.92"/><polygon class="cls-11" points="30.27 32.84 30.23 49.14 30.07 49.23 30.12 32.92 30.27 32.84"/><polygon class="cls-46" points="31.16 32.92 31.11 49.23 30.71 49.09 30.75 32.79 31.16 32.92"/><polygon class="cls-50" points="31.39 32.98 31.34 49.28 31.11 49.23 31.16 32.92 31.39 32.98"/><polygon class="cls-13" points="31.72 32.9 31.68 49.2 31.34 49.28 31.39 32.98 31.72 32.9"/><polygon class="cls-51" points="33.89 33.01 33.84 49.31 32.87 49.13 32.91 32.83 33.89 33.01"/><polygon class="cls-43" points="35.88 32.9 35.83 49.2 35.81 49.34 35.86 33.03 35.88 32.9"/><polygon class="cls-11" points="35.86 33.03 35.81 49.34 35.65 49.42 35.7 33.11 35.86 33.03"/><polygon class="cls-52" points="35.43 33.13 35.38 49.44 33.84 49.31 33.89 33.01 35.43 33.13"/><polygon class="cls-24" points="35.7 33.11 35.65 49.42 35.38 49.44 35.43 33.13 35.7 33.11"/><polygon class="cls-17" points="29.63 32.79 29.58 49.1 29.39 49.45 29.43 33.15 29.63 32.79"/><polygon class="cls-53" points="29.43 33.15 29.39 49.45 29.24 49.66 29.29 33.36 29.43 33.15"/><polygon class="cls-54" points="29.29 33.36 29.24 49.66 28.29 49.69 28.34 33.39 29.29 33.36"/><polygon class="cls-55" points="3.69 33.74 3.64 50.04 3.51 49.95 3.55 33.65 3.69 33.74"/><polygon class="cls-24" points="3.55 33.65 3.51 49.95 2.1 50.07 2.15 33.77 3.55 33.65"/><polygon class="cls-11" points="28.34 33.39 28.29 49.69 27.06 50.27 27.1 33.97 28.34 33.39"/><polygon class="cls-15" points="4.84 34.04 4.79 50.34 4.36 50.37 4.41 34.07 4.84 34.04"/><polygon class="cls-56" points="4.41 34.07 4.36 50.37 3.64 50.04 3.69 33.74 4.41 34.07"/><polygon class="cls-33" points="5.13 34.15 5.08 50.45 4.79 50.34 4.84 34.04 5.13 34.15"/><polygon class="cls-38" points="27.1 33.97 27.06 50.27 26.71 50.53 26.76 34.23 27.1 33.97"/><polygon class="cls-57" points="5.69 34.47 5.64 50.77 5.08 50.45 5.13 34.15 5.69 34.47"/><polygon class="cls-58" points="5.99 34.65 5.94 50.95 5.64 50.77 5.69 34.47 5.99 34.65"/><polygon class="cls-11" points="26.76 34.23 26.71 50.53 25.62 51.04 25.66 34.73 26.76 34.23"/><polygon class="cls-18" points="25.66 34.73 25.62 51.04 25.53 51.3 25.57 35 25.66 34.73"/><polygon class="cls-5" points="5.99 34.97 5.94 51.27 5.94 50.95 5.99 34.65 5.99 34.97"/><polygon class="cls-12" points="25.57 35 25.53 51.3 25 51.72 25.04 35.41 25.57 35"/><polygon class="cls-59" points="6.83 35.42 6.79 51.72 5.94 51.27 5.99 34.97 6.83 35.42"/><polygon class="cls-5" points="6.89 35.55 6.85 51.85 6.79 51.72 6.83 35.42 6.89 35.55"/><polygon class="cls-48" points="25.04 35.41 25 51.72 24.82 52.06 24.87 35.75 25.04 35.41"/><polygon class="cls-5" points="6.89 35.79 6.85 52.09 6.85 51.85 6.89 35.55 6.89 35.79"/><polygon class="cls-5" points="6.98 35.91 6.94 52.22 6.85 52.09 6.89 35.79 6.98 35.91"/><polygon class="cls-60" points="24.87 35.75 24.82 52.06 24.59 52.53 24.64 36.22 24.87 35.75"/><polygon class="cls-20" points="7.25 36.19 7.2 52.49 6.94 52.22 6.98 35.91 7.25 36.19"/><polygon class="cls-14" points="24.64 36.22 24.59 52.53 23.89 52.94 23.94 36.63 24.64 36.22"/><polygon class="cls-35" points="23.94 36.63 23.89 52.94 23.76 53.13 23.8 36.83 23.94 36.63"/><polygon class="cls-41" points="7.01 37.3 6.96 53.61 6.55 53.45 6.6 37.15 7.01 37.3"/><polygon class="cls-61" points="23.88 37.09 23.84 53.4 23.56 53.67 23.61 37.37 23.88 37.09"/><polygon class="cls-62" points="7.53 37.38 7.49 53.68 7.21 53.63 7.26 37.32 7.53 37.38"/><polygon class="cls-63" points="7.26 37.32 7.21 53.63 7.1 53.74 7.15 37.43 7.26 37.32"/><polygon class="cls-34" points="7.15 37.43 7.1 53.74 6.96 53.61 7.01 37.3 7.15 37.43"/><polygon class="cls-46" points="8.13 37.58 8.08 53.88 7.49 53.68 7.53 37.38 8.13 37.58"/><polygon class="cls-62" points="8.46 37.65 8.41 53.95 8.08 53.88 8.13 37.58 8.46 37.65"/><polygon class="cls-11" points="24.09 38.13 24.04 54.43 23.8 54.55 23.85 38.24 24.09 38.13"/><polygon class="cls-5" points="8.9 38.23 8.85 54.53 8.41 53.95 8.46 37.65 8.9 38.23"/><polygon class="cls-7" points="23.85 38.24 23.8 54.55 23.38 54.69 23.42 38.39 23.85 38.24"/><polygon class="cls-29" points="23.42 38.39 23.38 54.69 23.02 54.74 23.06 38.44 23.42 38.39"/><polygon class="cls-7" points="23.06 38.44 23.02 54.74 22.79 54.88 22.84 38.58 23.06 38.44"/><polygon class="cls-20" points="22.37 38.67 22.32 54.97 22.11 54.75 22.16 38.45 22.37 38.67"/><polygon class="cls-11" points="22.84 38.58 22.79 54.88 22.56 55 22.6 38.69 22.84 38.58"/><polygon class="cls-64" points="22.6 38.69 22.56 55 22.32 54.97 22.37 38.67 22.6 38.69"/><polygon class="cls-14" points="22.16 38.45 22.11 54.75 21.53 55.1 21.58 38.8 22.16 38.45"/><polygon class="cls-42" points="9.95 38.79 9.9 55.09 8.85 54.53 8.9 38.23 9.95 38.79"/><polygon class="cls-8" points="14.38 38.62 14.34 54.92 13.36 55.17 13.4 38.86 14.38 38.62"/><polygon class="cls-41" points="15.2 38.93 15.15 55.23 14.34 54.92 14.38 38.62 15.2 38.93"/><polygon class="cls-35" points="15.89 38.93 15.85 55.23 15.5 55.24 15.55 38.93 15.89 38.93"/><polygon class="cls-65" points="15.55 38.93 15.5 55.24 15.15 55.23 15.2 38.93 15.55 38.93"/><polygon class="cls-20" points="10.21 39.05 10.16 55.35 9.9 55.09 9.95 38.79 10.21 39.05"/><polygon class="cls-11" points="13.4 38.86 13.36 55.17 12.93 55.4 12.98 39.1 13.4 38.86"/><polygon class="cls-47" points="17.33 39.21 17.29 55.51 15.85 55.23 15.89 38.93 17.33 39.21"/><polygon class="cls-66" points="17.62 39.27 17.57 55.57 17.29 55.51 17.33 39.21 17.62 39.27"/><polygon class="cls-63" points="19.53 39.13 19.49 55.44 18.55 55.59 18.6 39.29 19.53 39.13"/><polygon class="cls-5" points="10.33 39.32 10.28 55.62 10.16 55.35 10.21 39.05 10.33 39.32"/><polygon class="cls-67" points="20.05 39.37 20 55.68 19.49 55.44 19.53 39.13 20.05 39.37"/><polygon class="cls-14" points="21.58 38.8 21.53 55.1 20 55.68 20.05 39.37 21.58 38.8"/><polygon class="cls-34" points="17.88 39.52 17.83 55.83 17.57 55.57 17.62 39.27 17.88 39.52"/><polygon class="cls-7" points="18.6 39.29 18.55 55.59 17.83 55.83 17.88 39.52 18.6 39.29"/><polygon class="cls-59" points="10.86 39.6 10.81 55.9 10.28 55.62 10.33 39.32 10.86 39.6"/><polygon class="cls-21" points="11.12 39.62 11.08 55.92 10.81 55.9 10.86 39.6 11.12 39.62"/><polygon class="cls-38" points="12.98 39.1 12.93 55.4 11.08 55.92 11.12 39.62 12.98 39.1"/><polygon class="cls-68" points="53.09 3.49 53.51 4 53.59 4.16 53.62 4.47 53.74 4.62 53.82 5.21 53.74 5.72 53.76 6.74 53.66 6.93 53.41 7.06 53.02 7.16 52.77 7.21 52.25 7.66 51.83 7.9 51.68 8.08 51.45 8.3 50.91 8.43 49.98 8.71 49.89 9.24 49.77 9.47 49.72 9.6 50.19 9.93 50.06 10.33 49.73 10.39 49.48 10.9 49.73 11.02 49.42 11.5 49.94 11.89 49.33 12.08 49.35 12.73 48.51 13.24 47.88 13.62 47.55 13.9 47.01 14.55 46.8 14.34 45.64 14.63 44.95 14.9 43.13 15.59 42.15 15.97 41.73 16.13 41.33 16.28 40.24 16.69 40.46 17.34 40.2 17.32 39.97 17.33 39.88 17.58 40.08 17.75 40.01 18.04 39.73 18.34 39.71 18.73 39.8 18.86 39.13 18.97 37.95 19.32 37.71 19.69 36.16 20.23 36.01 20.35 35.24 20.9 34.4 21.39 34.2 21.47 33.89 21.55 32.82 22.07 31.76 22.93 30.33 23.78 28.86 24.65 27.27 25.59 26 26.34 25.38 26.71 25.24 26.8 24.59 27.08 25.3 27.38 25.4 27.82 25.64 28.04 25.71 28.21 25.84 28.31 26.35 28.82 27.11 29.01 27.35 29.12 28.46 29.22 28.87 29.05 30.23 29.94 30.28 30.08 30.79 30.29 31.36 30.62 31.9 30.73 32.23 30.87 32.48 31.09 32.67 31.16 33.09 31.22 33.22 31.59 33.33 31.79 33.64 31.93 35.17 32.33 35.71 32.37 35.7 32.61 35.88 32.9 35.86 33.03 35.7 33.11 35.43 33.13 33.89 33.01 32.91 32.83 32.48 32.72 32.25 32.67 32.03 32.67 31.72 32.9 31.39 32.98 31.16 32.92 30.75 32.79 30.46 32.77 30.27 32.84 30.12 32.92 29.63 32.79 29.43 33.15 29.29 33.36 28.34 33.39 27.1 33.97 26.76 34.23 25.66 34.73 25.57 35 25.04 35.41 24.87 35.75 24.64 36.22 23.94 36.63 23.8 36.83 23.88 37.09 23.61 37.37 23.68 37.75 23.94 37.92 24.09 38.13 23.85 38.24 23.42 38.39 23.06 38.44 22.84 38.58 22.6 38.69 22.37 38.67 22.16 38.45 21.58 38.8 20.05 39.37 19.53 39.13 18.6 39.29 17.88 39.52 17.62 39.27 17.33 39.21 15.89 38.93 15.55 38.93 15.2 38.93 14.38 38.62 13.4 38.86 12.98 39.1 11.12 39.62 10.86 39.6 10.33 39.32 10.21 39.05 9.95 38.79 8.9 38.23 8.46 37.65 8.13 37.58 7.53 37.38 7.26 37.32 7.15 37.43 7.01 37.3 6.6 37.15 7.05 36.52 7.25 36.19 6.98 35.91 6.89 35.79 6.89 35.55 6.83 35.42 5.99 34.97 5.99 34.65 5.69 34.47 5.13 34.15 4.84 34.04 4.41 34.07 3.69 33.74 3.55 33.65 2.15 33.77 2.5 33.35 2.75 32.95 2.8 32.68 2.77 32.46 2.93 32.2 3.01 32 3.43 31.7 3.79 31.29 3.95 31.21 4.44 30.85 4.82 30.76 5.05 30.54 5.34 29.89 5.13 29.63 5.22 29.42 5.42 29.29 4.92 29.13 5.02 28.51 5.36 28 5.01 27.88 4.2 27.68 4.09 27.55 4.07 27.41 4.06 27.27 4.03 27.14 3.29 26.93 3.07 26.94 2.56 26.98 2.08 26.72 2.32 26.47 2.48 26.31 2.69 26.17 2.92 26.09 3.23 26.04 3.25 25.31 2.79 25.13 2.43 24.89 2.18 24.82 1.91 24.8 1.55 24.81 1.35 24.8 0.78 24.68 0.41 24.68 0.05 24.33 0.56 24 0.3 23.9 0.09 23.68 0.1 23.55 0.34 23.12 0.28 22.97 0.12 22.74 0.07 22.51 0.23 22.33 0.24 22.15 0.78 21.66 0.79 21.97 1.11 22.04 1.81 21.76 2.16 21.64 3.22 21.54 3.7 21.47 4.67 21.4 5.08 21.31 5.37 21.19 5.7 21.06 5.36 20.7 5.19 20.57 5.28 20.45 6.3 19.79 4.41 18.86 4.25 18.65 4.13 18.54 3.77 18.31 3.56 18.24 3.33 18.25 3.33 18.1 3.56 18.04 4.08 17.99 4.29 17.9 4.4 17.79 4.8 17.67 5.03 17.67 5.44 17.57 5.69 17.38 6.09 17.11 6.23 16.93 5.4 16.66 5 16.47 4.85 16.26 4.77 16.08 4.15 15.42 3.93 15.18 4.36 14.3 4.34 14.16 4.29 13.7 4.31 13.54 4.54 13.05 4.8 12.79 5.43 12.56 7.71 12.09 7.98 11.99 8.3 11.54 6.72 10.39 6.58 10.25 6.69 10.09 7 9.89 7.59 9.6 8.03 9.32 8.4 9 9.19 6.8 9.35 6.56 10.29 5.65 10.44 5.44 10.52 5.22 10.67 3.72 10.66 3.3 10.71 3.1 10.88 2.94 12.32 2.1 12.53 1.97 13.19 2.1 13.53 2 13.66 1.81 13.82 1.42 14.16 1.14 14.73 0.93 15.98 0.63 18.23 0 18.4 0.08 18.63 0.49 19.21 0.61 19.46 0.7 20.29 1.69 20.67 1.86 21.2 1.94 23.2 1.89 23.87 1.95 24.2 2.27 24.34 2.57 24.71 2.68 26.91 3.04 27.96 3.05 28.72 3.25 29.06 3.37 29.29 3.31 30.15 2.78 30.82 2.85 31.16 2.63 31.56 2.5 32.14 2.41 32.69 2.42 33.03 2.58 33.36 2.63 33.74 2.6 34.8 2.37 35.27 2.18 35.85 2.13 35.74 2.27 35.55 2.31 35.41 2.64 35.16 2.73 34.72 2.88 33.98 3.07 34 3.34 34.58 3.67 35.22 4.04 35.65 4.29 36.39 4.4 36.9 4.15 37.21 4.09 37.9 4.06 38.64 4.02 39.54 3.98 39.85 3.96 40.85 3.91 41.52 3.88 42.37 3.84 42.65 3.79 42.92 3.7 43.66 3.34 44.58 2.89 44.62 2.48 44.56 2.31 44.7 1.92 45.42 1.51 45.76 1.41 46.14 1.42 47.67 1.73 48.57 1.99 48.16 2.37 47.68 2.82 47.85 3.05 48.21 3.11 48.88 3.18 50.08 3.29 51.2 3.4 52.46 3.52 53.09 3.49"/></g></g></g></svg>