<svg xmlns="http://www.w3.org/2000/svg" viewBox="0 0 17.41 28.57"><defs><style>.cls-1{isolation:isolate;}.cls-2{fill:#481212;}.cls-3{fill:#551515;}.cls-4{fill:#4a1212;}.cls-5{fill:#681919;}.cls-6{fill:#4f1313;}.cls-7{fill:#7a1e1e;}.cls-8{fill:#5b1616;}.cls-9{fill:#a62929;}.cls-10{fill:#9f2727;}.cls-11{fill:#812020;}.cls-12{fill:#491212;}.cls-13{fill:#952424;}.cls-14{fill:#801f1f;}.cls-15{fill:#661919;}.cls-16{fill:#521414;}.cls-17{fill:#651919;}.cls-18{fill:#8d2323;}.cls-19{fill:#6b1a1a;}.cls-20{fill:#902323;}.cls-21{fill:#a02727;}.cls-22{fill:#a22828;}.cls-23{fill:#a82929;}.cls-24{fill:#4c1313;}.cls-25{fill:#721c1c;}.cls-26{fill:#a52929;}.cls-27{fill:#7b1e1e;}.cls-28{fill:#7e1f1f;}.cls-29{fill:#6c1a1a;}.cls-30{fill:#832020;}.cls-31{fill:#a92929;}.cls-32{fill:#972525;}.cls-33{fill:#7d1f1f;}.cls-34{fill:#501414;}.cls-35{fill:#6e1b1b;}.cls-36{fill:#9b2626;}.cls-37{fill:#a32828;}.cls-38{fill:#791e1e;}.cls-39{fill:#5e1717;}.cls-40{fill:#a42828;}.cls-41{fill:#621818;}.cls-42{fill:#761d1d;}.cls-43{fill:#5f1717;}.cls-44{fill:#4b1212;}.cls-45{fill:#581616;}.cls-46{fill:#962525;}.cls-47{fill:#6f1b1b;}.cls-48{fill:#511414;}.cls-49{fill:#842020;}.cls-50{fill:#5a1616;}.cls-51{fill:#852121;}.cls-52{fill:#541414;}.cls-53{fill:#4d1313;}.cls-54{fill:#982525;}.cls-55{fill:#8f2323;}.cls-56{fill:#8b2222;}.cls-57{fill:#691a1a;}.cls-58{fill:#6a1a1a;}.cls-59{fill:#c83131;}</style></defs><title>Burundi</title><g id="Layer_2" data-name="Layer 2"><g id="Layer_1-2" data-name="Layer 1"><g class="cls-1"><polygon class="cls-2" points="6.78 0.49 6.73 16.8 6.72 16.76 6.76 0.46 6.78 0.49"/><polygon class="cls-2" points="6.78 0.53 6.74 16.84 6.73 16.8 6.78 0.49 6.78 0.53"/><polygon class="cls-2" points="6.78 0.63 6.74 16.93 6.74 16.84 6.78 0.53 6.78 0.63"/><polygon class="cls-2" points="5.98 1.14 5.93 17.45 5.91 17.41 5.96 1.1 5.98 1.14"/><polygon class="cls-3" points="6.04 1.18 5.99 17.48 5.93 17.45 5.98 1.14 6.04 1.18"/><polygon class="cls-4" points="6.08 1.21 6.03 17.52 5.99 17.48 6.04 1.18 6.08 1.21"/><polygon class="cls-5" points="9.35 1.21 9.3 17.52 9.29 17.69 9.33 1.39 9.35 1.21"/><polygon class="cls-2" points="6.14 1.6 6.09 17.91 6.03 17.52 6.08 1.21 6.14 1.6"/><polygon class="cls-2" points="4 2.11 3.95 18.41 3.93 18.38 3.98 2.08 4 2.11"/><polygon class="cls-3" points="4.06 2.15 4.02 18.45 3.95 18.41 4 2.11 4.06 2.15"/><polygon class="cls-2" points="11.81 2.33 11.77 18.63 11.74 18.43 11.79 2.12 11.81 2.33"/><polygon class="cls-6" points="4.36 2.36 4.32 18.67 4.02 18.45 4.06 2.15 4.36 2.36"/><polygon class="cls-7" points="16.07 2.4 16.02 18.71 15.97 18.86 16.02 2.56 16.07 2.4"/><polygon class="cls-8" points="4.92 2.63 4.87 18.93 4.32 18.67 4.36 2.36 4.92 2.63"/><polygon class="cls-9" points="16.02 2.56 15.97 18.86 15.8 18.98 15.85 2.68 16.02 2.56"/><polygon class="cls-10" points="15.85 2.68 15.8 18.98 15.54 19.03 15.59 2.72 15.85 2.68"/><polygon class="cls-11" points="15.67 2.84 15.62 19.14 15.6 19.2 15.64 2.9 15.67 2.84"/><polygon class="cls-9" points="15.64 2.9 15.6 19.2 15.52 19.26 15.57 2.95 15.64 2.9"/><polygon class="cls-12" points="5.28 3 5.23 19.3 4.87 18.93 4.92 2.63 5.28 3"/><polygon class="cls-13" points="15.57 2.95 15.52 19.26 15.41 19.4 15.45 3.1 15.57 2.95"/><polygon class="cls-14" points="15.45 3.1 15.41 19.4 15.35 19.54 15.4 3.24 15.45 3.1"/><polygon class="cls-15" points="15.4 3.24 15.35 19.54 15.35 19.68 15.39 3.37 15.4 3.24"/><polygon class="cls-16" points="5.92 3.41 5.88 19.71 5.23 19.3 5.28 3 5.92 3.41"/><polygon class="cls-3" points="6 3.45 5.95 19.76 5.88 19.71 5.92 3.41 6 3.45"/><polygon class="cls-12" points="6.11 3.56 6.06 19.86 5.95 19.76 6 3.45 6.11 3.56"/><polygon class="cls-2" points="6.18 3.68 6.14 19.98 6.06 19.86 6.11 3.56 6.18 3.68"/><polygon class="cls-17" points="15.96 3.57 15.92 19.88 15.91 20.07 15.96 3.77 15.96 3.57"/><polygon class="cls-2" points="6.25 3.8 6.2 20.11 6.14 19.98 6.18 3.68 6.25 3.8"/><polygon class="cls-2" points="6.28 3.93 6.23 20.23 6.2 20.11 6.25 3.8 6.28 3.93"/><polygon class="cls-18" points="15.96 3.77 15.91 20.07 15.75 20.34 15.8 4.03 15.96 3.77"/><polygon class="cls-2" points="6.28 4.08 6.23 20.39 6.23 20.23 6.28 3.93 6.28 4.08"/><polygon class="cls-19" points="15.81 4.14 15.76 20.45 15.76 20.5 15.8 4.2 15.81 4.14"/><polygon class="cls-20" points="15.8 4.2 15.76 20.5 15.73 20.54 15.78 4.24 15.8 4.2"/><polygon class="cls-21" points="15.78 4.24 15.73 20.54 15.59 20.66 15.64 4.36 15.78 4.24"/><polygon class="cls-22" points="15.69 4.42 15.64 20.72 15.54 20.82 15.58 4.51 15.69 4.42"/><polygon class="cls-2" points="5.69 4.55 5.65 20.85 5.63 20.79 5.68 4.49 5.69 4.55"/><polygon class="cls-23" points="15.58 4.51 15.54 20.82 15.41 20.89 15.46 4.58 15.58 4.51"/><polygon class="cls-24" points="5.81 4.64 5.76 20.95 5.65 20.85 5.69 4.55 5.81 4.64"/><polygon class="cls-2" points="5.85 4.7 5.8 21 5.76 20.95 5.81 4.64 5.85 4.7"/><polygon class="cls-25" points="15.51 4.66 15.47 20.97 15.42 21.18 15.47 4.87 15.51 4.66"/><polygon class="cls-26" points="16.7 5.97 16.66 22.28 16.27 22.39 16.32 6.09 16.7 5.97"/><polygon class="cls-14" points="16.32 6.09 16.27 22.39 16.21 22.55 16.25 6.24 16.32 6.09"/><polygon class="cls-2" points="0.05 6.69 0 22.99 0 22.82 0.05 6.52 0.05 6.69"/><polygon class="cls-24" points="0.6 7.14 0.55 23.44 0 22.99 0.05 6.69 0.6 7.14"/><polygon class="cls-27" points="0.84 7.18 0.8 23.48 0.55 23.44 0.6 7.14 0.84 7.18"/><polygon class="cls-28" points="1.61 7.43 1.56 23.73 1.48 23.72 1.53 7.42 1.61 7.43"/><polygon class="cls-22" points="1.53 7.42 1.48 23.72 1.33 23.76 1.38 7.45 1.53 7.42"/><polygon class="cls-2" points="0.78 7.45 0.74 23.76 0.67 23.66 0.71 7.36 0.78 7.45"/><polygon class="cls-29" points="1.85 7.5 1.8 23.8 1.56 23.73 1.61 7.43 1.85 7.5"/><polygon class="cls-30" points="2.09 7.52 2.04 23.83 1.8 23.8 1.85 7.5 2.09 7.52"/><polygon class="cls-31" points="1.38 7.45 1.33 23.76 1.19 23.83 1.24 7.52 1.38 7.45"/><polygon class="cls-32" points="4.05 7.52 4 23.83 3.84 23.84 3.88 7.54 4.05 7.52"/><polygon class="cls-33" points="4.2 7.55 4.16 23.85 4 23.83 4.05 7.52 4.2 7.55"/><polygon class="cls-34" points="0.91 7.54 0.86 23.84 0.74 23.76 0.78 7.45 0.91 7.54"/><polygon class="cls-35" points="2.18 7.55 2.14 23.85 2.04 23.83 2.09 7.52 2.18 7.55"/><polygon class="cls-36" points="2.93 7.55 2.88 23.85 2.72 23.87 2.76 7.57 2.93 7.55"/><polygon class="cls-37" points="3.88 7.54 3.84 23.84 3.68 23.88 3.73 7.58 3.88 7.54"/><polygon class="cls-38" points="1.08 7.57 1.03 23.88 0.86 23.84 0.91 7.54 1.08 7.57"/><polygon class="cls-9" points="1.24 7.52 1.19 23.83 1.03 23.88 1.08 7.57 1.24 7.52"/><polygon class="cls-35" points="3.08 7.59 3.03 23.89 2.88 23.85 2.93 7.55 3.08 7.59"/><polygon class="cls-39" points="2.3 7.6 2.25 23.9 2.14 23.85 2.18 7.55 2.3 7.6"/><polygon class="cls-40" points="2.76 7.57 2.72 23.87 2.55 23.91 2.6 7.61 2.76 7.57"/><polygon class="cls-31" points="3.73 7.58 3.68 23.88 3.54 23.95 3.59 7.64 3.73 7.58"/><polygon class="cls-35" points="2.44 7.64 2.4 23.95 2.25 23.9 2.3 7.6 2.44 7.64"/><polygon class="cls-21" points="2.6 7.61 2.55 23.91 2.4 23.95 2.44 7.64 2.6 7.61"/><polygon class="cls-41" points="3.23 7.65 3.19 23.95 3.03 23.89 3.08 7.59 3.23 7.65"/><polygon class="cls-42" points="3.41 7.69 3.37 23.99 3.19 23.95 3.23 7.65 3.41 7.69"/><polygon class="cls-37" points="3.59 7.64 3.54 23.95 3.37 23.99 3.41 7.69 3.59 7.64"/><polygon class="cls-39" points="4.63 7.74 4.59 24.04 4.16 23.85 4.2 7.55 4.63 7.74"/><polygon class="cls-43" points="4.69 7.76 4.64 24.06 4.59 24.04 4.63 7.74 4.69 7.76"/><polygon class="cls-2" points="4.72 7.82 4.68 24.12 4.64 24.06 4.69 7.76 4.72 7.82"/><polygon class="cls-2" points="4.75 7.99 4.71 24.29 4.64 24.2 4.69 7.9 4.75 7.99"/><polygon class="cls-44" points="4.86 8.08 4.81 24.38 4.71 24.29 4.75 7.99 4.86 8.08"/><polygon class="cls-45" points="5.33 8.33 5.28 24.63 4.81 24.38 4.86 8.08 5.33 8.33"/><polygon class="cls-35" points="5.5 8.38 5.45 24.68 5.28 24.63 5.33 8.33 5.5 8.38"/><polygon class="cls-46" points="5.7 8.36 5.66 24.66 5.45 24.68 5.5 8.38 5.7 8.36"/><polygon class="cls-2" points="5.7 8.4 5.66 24.7 5.66 24.66 5.7 8.36 5.7 8.4"/><polygon class="cls-2" points="5.74 8.63 5.7 24.94 5.64 24.87 5.69 8.57 5.74 8.63"/><polygon class="cls-47" points="17.19 8.26 17.15 24.57 17.07 25.04 17.11 8.74 17.19 8.26"/><polygon class="cls-48" points="5.93 8.76 5.88 25.06 5.7 24.94 5.74 8.63 5.93 8.76"/><polygon class="cls-49" points="17.41 9.28 17.36 25.58 17.3 25.71 17.35 9.41 17.41 9.28"/><polygon class="cls-42" points="17.35 9.41 17.3 25.71 17.28 25.78 17.33 9.48 17.35 9.41"/><polygon class="cls-50" points="7.73 9.65 7.69 25.95 5.88 25.06 5.93 8.76 7.73 9.65"/><polygon class="cls-51" points="17.33 9.48 17.28 25.78 17.18 25.99 17.23 9.69 17.33 9.48"/><polygon class="cls-15" points="17.23 9.69 17.18 25.99 17.17 26.26 17.22 9.95 17.23 9.69"/><polygon class="cls-52" points="8.24 9.96 8.2 26.26 7.69 25.95 7.73 9.65 8.24 9.96"/><polygon class="cls-53" points="8.48 10.15 8.43 26.45 8.2 26.26 8.24 9.96 8.48 10.15"/><polygon class="cls-18" points="17.22 9.95 17.17 26.26 16.98 26.56 17.03 10.26 17.22 9.95"/><polygon class="cls-54" points="17.03 10.26 16.98 26.56 16.94 26.6 16.99 10.3 17.03 10.26"/><polygon class="cls-23" points="16.99 10.3 16.94 26.6 16.82 26.65 16.86 10.35 16.99 10.3"/><polygon class="cls-37" points="16.86 10.35 16.82 26.65 16.71 26.68 16.75 10.38 16.86 10.35"/><polygon class="cls-23" points="16.75 10.38 16.71 26.68 16.63 26.71 16.67 10.41 16.75 10.38"/><polygon class="cls-53" points="8.89 10.46 8.84 26.77 8.43 26.45 8.48 10.15 8.89 10.46"/><polygon class="cls-7" points="16.67 10.41 16.63 26.71 16.59 26.81 16.64 10.51 16.67 10.41"/><polygon class="cls-55" points="16.76 10.65 16.72 26.96 16.65 27.05 16.7 10.75 16.76 10.65"/><polygon class="cls-50" points="9.72 10.88 9.68 27.18 8.84 26.77 8.89 10.46 9.72 10.88"/><polygon class="cls-35" points="9.97 10.95 9.92 27.25 9.68 27.18 9.72 10.88 9.97 10.95"/><polygon class="cls-30" points="10.21 10.97 10.16 27.27 9.92 27.25 9.97 10.95 10.21 10.97"/><polygon class="cls-56" points="10.73 10.98 10.69 27.29 10.16 27.27 10.21 10.97 10.73 10.98"/><polygon class="cls-35" points="16.9 10.97 16.86 27.27 16.84 27.35 16.89 11.05 16.9 10.97"/><polygon class="cls-33" points="11.83 11.14 11.79 27.45 10.69 27.29 10.73 10.98 11.83 11.14"/><polygon class="cls-31" points="16.89 11.05 16.84 27.35 16.52 27.51 16.56 11.21 16.89 11.05"/><polygon class="cls-23" points="16.56 11.21 16.52 27.51 16.11 27.66 16.16 11.35 16.56 11.21"/><polygon class="cls-57" points="12.65 11.4 12.61 27.71 11.79 27.45 11.83 11.14 12.65 11.4"/><polygon class="cls-58" points="12.82 11.46 12.78 27.76 12.61 27.71 12.65 11.4 12.82 11.46"/><polygon class="cls-23" points="16.16 11.35 16.11 27.66 14.58 28.57 14.63 12.26 16.16 11.35"/><polygon class="cls-39" points="14.63 12.26 14.58 28.57 12.78 27.76 12.82 11.46 14.63 12.26"/><polygon class="cls-59" points="15.54 1.83 15.61 1.89 15.71 2.01 15.75 2.15 15.8 2.17 15.95 2.22 16.07 2.4 16.02 2.56 15.85 2.68 15.59 2.72 15.65 2.78 15.67 2.84 15.64 2.9 15.57 2.95 15.45 3.1 15.4 3.24 15.39 3.37 15.42 3.53 15.49 3.52 15.79 3.46 15.96 3.57 15.96 3.77 15.8 4.03 15.81 4.14 15.8 4.2 15.78 4.24 15.64 4.36 15.69 4.42 15.58 4.51 15.46 4.58 15.51 4.66 15.47 4.87 15.52 4.94 15.67 5.01 15.78 5.08 15.86 5.18 16.01 5.58 16.09 5.68 16.21 5.76 16.35 5.81 16.49 5.84 16.61 5.89 16.7 5.97 16.32 6.09 16.25 6.24 16.44 6.65 16.45 7.05 16.5 7.18 16.86 7.52 17.01 7.73 17.04 7.76 17.15 8.01 17.19 8.26 17.11 8.74 17.15 8.84 17.38 9.17 17.41 9.28 17.35 9.41 17.33 9.48 17.23 9.69 17.22 9.95 17.03 10.26 16.99 10.3 16.86 10.35 16.75 10.38 16.67 10.41 16.64 10.51 16.74 10.6 16.76 10.65 16.7 10.75 16.71 10.8 16.77 10.86 16.85 10.92 16.9 10.97 16.89 11.05 16.56 11.21 16.16 11.35 14.63 12.26 12.82 11.46 12.65 11.4 11.83 11.14 10.73 10.98 10.21 10.97 9.97 10.95 9.72 10.88 8.89 10.46 8.48 10.15 8.24 9.96 7.73 9.65 5.93 8.76 5.74 8.63 5.69 8.57 5.7 8.4 5.7 8.36 5.5 8.38 5.33 8.33 4.86 8.08 4.75 7.99 4.69 7.9 4.72 7.82 4.69 7.76 4.63 7.74 4.2 7.55 4.05 7.52 3.88 7.54 3.73 7.58 3.59 7.64 3.41 7.69 3.23 7.65 3.08 7.59 2.93 7.55 2.76 7.57 2.6 7.61 2.44 7.64 2.3 7.6 2.18 7.55 2.09 7.52 1.85 7.5 1.61 7.43 1.53 7.42 1.38 7.45 1.24 7.52 1.08 7.57 0.91 7.54 0.78 7.45 0.71 7.36 0.72 7.27 0.84 7.18 0.6 7.14 0.05 6.69 0.05 6.52 0.41 6.28 0.54 6.23 1.11 6.1 1.3 6.03 1.62 5.89 1.79 5.83 1.98 5.8 2.12 5.79 2.23 5.85 2.34 5.89 2.62 5.89 2.75 5.91 2.81 5.96 2.83 6.09 2.88 6.14 2.96 6.17 3.17 6.21 3.26 6.26 3.44 6.3 3.59 6.19 3.75 5.96 3.85 5.88 4.01 5.82 4.29 5.71 4.53 5.67 4.62 5.57 4.66 5.45 4.79 5.36 4.86 5.32 4.89 5.28 4.91 5.23 5.03 5.07 5.08 5.05 5.18 5.02 5.55 4.91 5.69 4.86 5.82 4.75 5.85 4.7 5.81 4.64 5.69 4.55 5.68 4.49 5.76 4.45 5.95 4.38 6.11 4.29 6.22 4.2 6.28 4.08 6.28 3.93 6.25 3.8 6.18 3.68 6.11 3.56 6 3.45 5.92 3.41 5.28 3 4.92 2.63 4.36 2.36 4.06 2.15 4 2.11 3.98 2.08 4.05 2.04 4.13 2.02 4.22 2.02 4.46 2 4.51 1.98 4.57 1.95 4.63 1.91 4.73 1.88 4.88 1.87 5.33 1.89 5.53 1.88 5.75 1.86 5.96 1.8 6.11 1.71 6.14 1.6 6.08 1.21 6.04 1.18 5.98 1.14 5.96 1.1 6.04 1.06 6.35 0.99 6.46 0.96 6.55 0.9 6.65 0.81 6.73 0.71 6.78 0.63 6.78 0.53 6.78 0.49 6.76 0.46 6.78 0.38 6.85 0.31 7.15 0.2 7.24 0.19 7.36 0.22 7.46 0.23 8.11 0.19 8.44 0.12 8.66 0 8.71 0.29 8.76 0.42 9.13 0.92 9.28 1.07 9.33 1.13 9.35 1.21 9.33 1.39 9.36 1.47 9.5 1.58 9.65 1.58 9.77 1.5 9.87 1.4 9.99 1.2 10.09 1.08 10.18 1.17 10.2 1.62 10.23 1.71 10.31 1.78 10.48 1.87 10.53 2.07 10.6 2.2 10.73 2.26 11.1 2.29 11.3 2.28 11.45 2.23 11.5 2.29 11.59 2.3 11.7 2.3 11.81 2.33 11.79 2.12 11.79 2.04 11.85 1.97 11.91 1.94 12.61 1.84 12.73 1.81 12.84 1.82 12.96 1.87 13.11 1.84 13.17 1.79 13.21 1.73 13.28 1.69 13.39 1.65 13.64 1.62 13.76 1.58 13.9 1.49 14.12 1.26 14.28 1.17 14.31 1.24 14.36 1.53 14.42 1.61 14.55 1.65 14.87 1.64 15.03 1.66 15.12 1.75 15.22 1.79 15.38 1.78 15.45 1.79 15.54 1.83"/></g></g></g></svg>