<svg xmlns="http://www.w3.org/2000/svg" viewBox="0 0 5.73 26.25"><defs><style>.cls-1{isolation:isolate;}.cls-2{fill:#651919;}.cls-3{fill:#481212;}.cls-4{fill:#982525;}.cls-5{fill:#4c1313;}.cls-6{fill:#9b2626;}.cls-7{fill:#7b1e1e;}.cls-8{fill:#8a2222;}.cls-9{fill:#a32828;}.cls-10{fill:#952525;}.cls-11{fill:#4a1212;}.cls-12{fill:#551515;}.cls-13{fill:#7d1f1f;}.cls-14{fill:#a82929;}.cls-15{fill:#a72929;}.cls-16{fill:#872121;}.cls-17{fill:#6b1a1a;}.cls-18{fill:#a02727;}.cls-19{fill:#842020;}.cls-20{fill:#711c1c;}.cls-21{fill:#4f1313;}.cls-22{fill:#491212;}.cls-23{fill:#a12727;}.cls-24{fill:#701b1b;}.cls-25{fill:#912424;}.cls-26{fill:#c83131;}.cls-27{fill:#6e1b1b;}.cls-28{fill:#7e1f1f;}.cls-29{fill:#9d2626;}.cls-30{fill:#4d1313;}.cls-31{fill:#7f1f1f;}.cls-32{fill:#811f1f;}.cls-33{fill:#6f1b1b;}.cls-34{fill:#852020;}.cls-35{fill:#912323;}.cls-36{fill:#771d1d;}.cls-37{fill:#791e1e;}.cls-38{fill:#a52828;}.cls-39{fill:#a92929;}.cls-40{fill:#5b1616;}</style></defs><title>Cape Verde</title><g id="Layer_2" data-name="Layer 2"><g id="Layer_1-2" data-name="Layer 1"><g class="cls-1"><polygon class="cls-2" points="5.53 8.38 5.48 24.69 5.47 24.87 5.52 8.56 5.53 8.38"/><polygon class="cls-3" points="3.3 8.95 3.26 25.25 3.25 24.99 3.3 8.69 3.3 8.95"/><polygon class="cls-4" points="5.66 8.96 5.61 25.26 5.59 25.29 5.63 8.99 5.66 8.96"/><polygon class="cls-3" points="3.33 8.99 3.28 25.29 3.26 25.25 3.3 8.95 3.33 8.99"/><polygon class="cls-5" points="3.36 9.01 3.31 25.32 3.28 25.29 3.33 8.99 3.36 9.01"/><polygon class="cls-6" points="5.63 8.99 5.59 25.29 5.54 25.34 5.59 9.04 5.63 8.99"/><polygon class="cls-3" points="3.4 9.06 3.35 25.37 3.31 25.32 3.36 9.01 3.4 9.06"/><polygon class="cls-7" points="5.59 9.04 5.54 25.34 5.53 25.38 5.58 9.07 5.59 9.04"/><polygon class="cls-8" points="5.73 9.11 5.69 25.42 5.66 25.46 5.71 9.16 5.73 9.11"/><polygon class="cls-9" points="5.71 9.16 5.66 25.46 5.6 25.51 5.65 9.21 5.71 9.16"/><polygon class="cls-3" points="3.42 9.23 3.37 25.53 3.35 25.37 3.4 9.06 3.42 9.23"/><polygon class="cls-10" points="5.65 9.21 5.6 25.51 5.57 25.55 5.61 9.25 5.65 9.21"/><polygon class="cls-11" points="3.46 9.27 3.41 25.57 3.37 25.53 3.42 9.23 3.46 9.27"/><polygon class="cls-12" points="3.59 9.35 3.54 25.65 3.41 25.57 3.46 9.27 3.59 9.35"/><polygon class="cls-11" points="3.64 9.38 3.59 25.69 3.54 25.65 3.59 9.35 3.64 9.38"/><polygon class="cls-3" points="3.66 9.44 3.62 25.74 3.59 25.69 3.64 9.38 3.66 9.44"/><polygon class="cls-13" points="3.76 9.45 3.72 25.75 3.62 25.74 3.66 9.44 3.76 9.45"/><polygon class="cls-14" points="5.63 9.39 5.59 25.7 5.37 25.83 5.42 9.53 5.63 9.39"/><polygon class="cls-15" points="5.42 9.53 5.37 25.83 5.34 25.84 5.39 9.54 5.42 9.53"/><polygon class="cls-16" points="4.89 9.75 4.84 26.05 4.79 26.05 4.83 9.75 4.89 9.75"/><polygon class="cls-17" points="4.75 9.75 4.71 26.05 3.72 25.75 3.76 9.45 4.75 9.75"/><polygon class="cls-18" points="4.83 9.75 4.79 26.05 4.75 26.06 4.8 9.75 4.83 9.75"/><polygon class="cls-19" points="4.8 9.75 4.75 26.06 4.71 26.05 4.75 9.75 4.8 9.75"/><polygon class="cls-20" points="4.98 9.77 4.93 26.07 4.84 26.05 4.89 9.75 4.98 9.77"/><polygon class="cls-8" points="5.58 9.81 5.53 26.11 5.34 26.11 5.39 9.8 5.58 9.81"/><polygon class="cls-21" points="5.03 9.81 4.99 26.11 4.93 26.07 4.98 9.77 5.03 9.81"/><polygon class="cls-22" points="5.11 9.89 5.06 26.19 4.99 26.11 5.03 9.81 5.11 9.89"/><polygon class="cls-3" points="5.11 9.9 5.06 26.21 5.06 26.19 5.11 9.89 5.11 9.9"/><polygon class="cls-23" points="5.45 9.9 5.41 26.2 5.36 26.25 5.4 9.94 5.45 9.9"/><polygon class="cls-24" points="5.27 9.95 5.22 26.25 5.06 26.21 5.11 9.9 5.27 9.95"/><polygon class="cls-25" points="5.4 9.94 5.36 26.25 5.22 26.25 5.27 9.95 5.4 9.94"/><polygon class="cls-26" points="5.45 9.9 5.4 9.94 5.27 9.95 5.11 9.9 5.11 9.89 5.03 9.81 4.98 9.77 4.89 9.75 4.83 9.75 4.8 9.75 4.75 9.75 3.76 9.45 3.66 9.44 3.64 9.38 3.59 9.35 3.46 9.27 3.42 9.23 3.4 9.06 3.36 9.01 3.33 8.99 3.3 8.95 3.3 8.69 3.33 8.64 3.48 8.45 3.53 8.23 3.61 8.03 3.89 7.88 4.14 7.86 4.46 7.86 4.77 7.9 5.02 7.97 5.23 8.05 5.33 8.11 5.42 8.2 5.5 8.3 5.53 8.38 5.52 8.56 5.54 8.67 5.66 8.96 5.63 8.99 5.59 9.04 5.58 9.07 5.73 9.11 5.71 9.16 5.65 9.21 5.61 9.25 5.63 9.37 5.63 9.39 5.42 9.53 5.39 9.54 5.55 9.72 5.58 9.81 5.39 9.8 5.45 9.9"/></g><g class="cls-1"><polygon class="cls-27" points="0.68 0.04 0.63 16.34 0.62 16.38 0.67 0.08 0.68 0.04"/><polygon class="cls-25" points="0.67 0.08 0.62 16.38 0.58 16.45 0.63 0.14 0.67 0.08"/><polygon class="cls-28" points="0.63 0.14 0.58 16.45 0.55 16.51 0.6 0.21 0.63 0.14"/><polygon class="cls-6" points="0.96 0.21 0.92 16.52 0.87 16.57 0.92 0.26 0.96 0.21"/><polygon class="cls-29" points="0.92 0.26 0.87 16.57 0.8 16.64 0.85 0.33 0.92 0.26"/><polygon class="cls-3" points="0.06 0.38 0.01 16.69 0 16.58 0.05 0.27 0.06 0.38"/><polygon class="cls-22" points="0.15 0.48 0.1 16.78 0.01 16.69 0.06 0.38 0.15 0.48"/><polygon class="cls-12" points="0.25 0.54 0.2 16.84 0.1 16.78 0.15 0.48 0.25 0.54"/><polygon class="cls-30" points="0.32 0.59 0.28 16.9 0.2 16.84 0.25 0.54 0.32 0.59"/><polygon class="cls-31" points="1.17 0.61 1.12 16.91 1.1 16.96 1.15 0.66 1.17 0.61"/><polygon class="cls-3" points="0.33 0.66 0.28 16.97 0.28 16.9 0.32 0.59 0.33 0.66"/><polygon class="cls-9" points="1.15 0.66 1.1 16.96 1.03 17.02 1.08 0.71 1.15 0.66"/><polygon class="cls-32" points="1.11 0.8 1.06 17.11 1.03 17.1 1.07 0.8 1.11 0.8"/><polygon class="cls-33" points="1.18 0.82 1.13 17.13 1.06 17.11 1.11 0.8 1.18 0.82"/><polygon class="cls-34" points="1.22 0.83 1.17 17.13 1.13 17.13 1.18 0.82 1.22 0.83"/><polygon class="cls-35" points="1.07 0.8 1.03 17.1 1 17.14 1.05 0.84 1.07 0.8"/><polygon class="cls-12" points="0.32 0.85 0.27 17.16 0.15 17.09 0.2 0.79 0.32 0.85"/><polygon class="cls-36" points="1.05 0.84 1 17.14 0.99 17.18 1.04 0.88 1.05 0.84"/><polygon class="cls-37" points="1.04 0.88 0.99 17.18 0.82 17.16 0.87 0.85 1.04 0.88"/><polygon class="cls-38" points="0.87 0.85 0.82 17.16 0.7 17.19 0.75 0.89 0.87 0.85"/><polygon class="cls-39" points="0.75 0.89 0.7 17.19 0.6 17.24 0.65 0.94 0.75 0.89"/><polygon class="cls-9" points="0.65 0.94 0.6 17.24 0.49 17.27 0.54 0.96 0.65 0.94"/><polygon class="cls-40" points="0.54 0.96 0.49 17.27 0.27 17.16 0.32 0.85 0.54 0.96"/><polygon class="cls-26" points="1.1 0.75 1.16 0.78 1.22 0.83 1.18 0.82 1.11 0.8 1.07 0.8 1.05 0.84 1.04 0.88 0.87 0.85 0.75 0.89 0.65 0.94 0.54 0.96 0.32 0.85 0.2 0.79 0.27 0.75 0.33 0.66 0.32 0.59 0.25 0.54 0.15 0.48 0.06 0.38 0.05 0.27 0.11 0.18 0.26 0.13 0.46 0.03 0.57 0 0.68 0.04 0.67 0.08 0.63 0.14 0.6 0.21 0.63 0.28 0.75 0.23 0.87 0.21 0.96 0.21 0.92 0.26 0.85 0.33 0.88 0.38 1.03 0.46 1.14 0.56 1.17 0.61 1.15 0.66 1.08 0.71 1.1 0.75"/></g></g></g></svg>