<svg xmlns="http://www.w3.org/2000/svg" viewBox="0 0 57.58 74.16"><defs><style>.cls-1{isolation:isolate;}.cls-2{fill:#481212;}.cls-3{fill:#681919;}.cls-4{fill:#4f1313;}.cls-5{fill:#491212;}.cls-6{fill:#5d1717;}.cls-7{fill:#4b1212;}.cls-8{fill:#681a1a;}.cls-9{fill:#4e1313;}.cls-10{fill:#701b1b;}.cls-11{fill:#7c1e1e;}.cls-12{fill:#711c1c;}.cls-13{fill:#4c1313;}.cls-14{fill:#671919;}.cls-15{fill:#852121;}.cls-16{fill:#982525;}.cls-17{fill:#a42828;}.cls-18{fill:#952424;}.cls-19{fill:#9c2626;}.cls-20{fill:#a22828;}.cls-21{fill:#6b1a1a;}.cls-22{fill:#832020;}.cls-23{fill:#9b2626;}.cls-24{fill:#661919;}.cls-25{fill:#a02727;}.cls-26{fill:#541515;}.cls-27{fill:#992626;}.cls-28{fill:#771d1d;}.cls-29{fill:#6e1b1b;}.cls-30{fill:#551515;}.cls-31{fill:#801f1f;}.cls-32{fill:#8d2323;}.cls-33{fill:#4a1212;}.cls-34{fill:#5a1616;}.cls-35{fill:#5f1717;}.cls-36{fill:#a82929;}.cls-37{fill:#992525;}.cls-38{fill:#581616;}.cls-39{fill:#a52828;}.cls-40{fill:#7b1e1e;}.cls-41{fill:#862121;}.cls-42{fill:#761d1d;}.cls-43{fill:#8b2222;}.cls-44{fill:#4d1313;}.cls-45{fill:#651919;}.cls-46{fill:#791e1e;}.cls-47{fill:#6a1a1a;}.cls-48{fill:#972525;}.cls-49{fill:#842020;}.cls-50{fill:#751d1d;}.cls-51{fill:#a32828;}.cls-52{fill:#6c1a1a;}.cls-53{fill:#a62929;}.cls-54{fill:#8f2323;}.cls-55{fill:#a92929;}.cls-56{fill:#621818;}.cls-57{fill:#9d2727;}.cls-58{fill:#531414;}.cls-59{fill:#6f1b1b;}.cls-60{fill:#601717;}.cls-61{fill:#932424;}.cls-62{fill:#5b1616;}.cls-63{fill:#5c1616;}.cls-64{fill:#8a2222;}.cls-65{fill:#872121;}.cls-66{fill:#892222;}.cls-67{fill:#641919;}.cls-68{fill:#7e1f1f;}.cls-69{fill:#8e2323;}.cls-70{fill:#9f2727;}.cls-71{fill:#7f1f1f;}.cls-72{fill:#9e2727;}.cls-73{fill:#691a1a;}.cls-74{fill:#922424;}.cls-75{fill:#a52929;}.cls-76{fill:#a72929;}.cls-77{fill:#942424;}.cls-78{fill:#561515;}.cls-79{fill:#731c1c;}.cls-80{fill:#822020;}.cls-81{fill:#8c2222;}.cls-82{fill:#6d1b1b;}.cls-83{fill:#521414;}.cls-84{fill:#a12727;}.cls-85{fill:#601818;}.cls-86{fill:#9d2626;}.cls-87{fill:#962525;}.cls-88{fill:#9a2626;}.cls-89{fill:#912424;}.cls-90{fill:#882121;}.cls-91{fill:#902323;}.cls-92{fill:#c83131;}</style></defs><title>Congo</title><g id="Layer_2" data-name="Layer 2"><g id="Layer_1-2" data-name="Layer 1"><g class="cls-1"><polygon class="cls-2" points="17.12 4.28 17.08 20.59 17.04 20.41 17.09 4.11 17.12 4.28"/><polygon class="cls-3" points="30.46 4.62 30.42 20.93 30.38 21.44 30.43 5.14 30.46 4.62"/><polygon class="cls-2" points="13.06 7.98 13.02 24.28 12.98 24.02 13.02 7.71 13.06 7.98"/><polygon class="cls-2" points="13.26 8.21 13.21 24.51 13.02 24.28 13.06 7.98 13.26 8.21"/><polygon class="cls-4" points="13.75 8.56 13.71 24.87 13.21 24.51 13.26 8.21 13.75 8.56"/><polygon class="cls-5" points="14.27 9.1 14.22 25.41 13.71 24.87 13.75 8.56 14.27 9.1"/><polygon class="cls-2" points="14.35 9.41 14.3 25.72 14.22 25.41 14.27 9.1 14.35 9.41"/><polygon class="cls-6" points="15.18 9.79 15.13 26.09 14.3 25.72 14.35 9.41 15.18 9.79"/><polygon class="cls-7" points="15.37 9.95 15.33 26.26 15.13 26.09 15.18 9.79 15.37 9.95"/><polygon class="cls-2" points="15.61 10.38 15.56 26.69 15.33 26.26 15.37 9.95 15.61 10.38"/><polygon class="cls-8" points="16.64 10.72 16.59 27.02 15.56 26.69 15.61 10.38 16.64 10.72"/><polygon class="cls-2" points="16.85 11.06 16.81 27.36 16.59 27.02 16.64 10.72 16.85 11.06"/><polygon class="cls-2" points="17.02 11.34 16.98 27.64 16.81 27.36 16.85 11.06 17.02 11.34"/><polygon class="cls-2" points="17.12 11.5 17.08 27.8 16.98 27.64 17.02 11.34 17.12 11.5"/><polygon class="cls-2" points="17.45 12.01 17.4 28.31 17.08 27.8 17.12 11.5 17.45 12.01"/><polygon class="cls-2" points="17.78 12.55 17.73 28.86 17.4 28.31 17.45 12.01 17.78 12.55"/><polygon class="cls-2" points="18.02 12.94 17.98 29.24 17.73 28.86 17.78 12.55 18.02 12.94"/><polygon class="cls-2" points="18.36 13.48 18.31 29.79 17.98 29.24 18.02 12.94 18.36 13.48"/><polygon class="cls-2" points="18.92 14.18 18.88 30.48 18.31 29.79 18.36 13.48 18.92 14.18"/><polygon class="cls-9" points="19.24 15.27 19.19 31.57 18.47 31.03 18.52 14.72 19.24 15.27"/><polygon class="cls-2" points="19.32 15.45 19.28 31.76 19.19 31.57 19.24 15.27 19.32 15.45"/><polygon class="cls-10" points="19.81 15.58 19.76 31.88 19.28 31.76 19.32 15.45 19.81 15.58"/><polygon class="cls-11" points="20.12 15.63 20.07 31.93 19.76 31.88 19.81 15.58 20.12 15.63"/><polygon class="cls-12" points="20.93 15.83 20.88 32.13 20.07 31.93 20.12 15.63 20.93 15.83"/><polygon class="cls-13" points="21.62 16.39 21.57 32.69 20.88 32.13 20.93 15.83 21.62 16.39"/><polygon class="cls-2" points="21.75 16.81 21.7 33.11 21.57 32.69 21.62 16.39 21.75 16.81"/><polygon class="cls-14" points="47.64 21.48 47.59 37.78 47.58 37.97 47.63 21.67 47.64 21.48"/><polygon class="cls-15" points="47.66 21.84 47.61 38.14 47.51 38.35 47.56 22.05 47.66 21.84"/><polygon class="cls-16" points="47.59 22.24 47.55 38.55 47.27 38.87 47.32 22.56 47.59 22.24"/><polygon class="cls-17" points="47.32 22.56 47.27 38.87 46.99 39.08 47.03 22.78 47.32 22.56"/><polygon class="cls-18" points="47.03 22.78 46.99 39.08 46.63 39.54 46.68 23.24 47.03 22.78"/><polygon class="cls-19" points="46.68 23.24 46.63 39.54 46.4 39.78 46.45 23.48 46.68 23.24"/><polygon class="cls-20" points="46.45 23.48 46.4 39.78 46.23 39.92 46.28 23.62 46.45 23.48"/><polygon class="cls-3" points="46.28 23.62 46.23 39.92 46.21 40.29 46.25 23.98 46.28 23.62"/><polygon class="cls-21" points="46.25 23.98 46.21 40.29 46.18 40.57 46.22 24.27 46.25 23.98"/><polygon class="cls-12" points="46.26 24.52 46.22 40.83 46.15 41.15 46.2 24.85 46.26 24.52"/><polygon class="cls-22" points="46.2 24.85 46.15 41.15 46.09 41.29 46.14 24.99 46.2 24.85"/><polygon class="cls-23" points="11.98 25.05 11.94 41.35 10.71 41.52 10.76 25.21 11.98 25.05"/><polygon class="cls-24" points="12.5 25.23 12.45 41.53 11.94 41.35 11.98 25.05 12.5 25.23"/><polygon class="cls-6" points="12.69 25.32 12.64 41.62 12.45 41.53 12.5 25.23 12.69 25.32"/><polygon class="cls-25" points="10.76 25.21 10.71 41.52 10.34 41.86 10.38 25.56 10.76 25.21"/><polygon class="cls-26" points="13.18 25.61 13.14 41.91 12.64 41.62 12.69 25.32 13.18 25.61"/><polygon class="cls-27" points="14.33 25.62 14.29 41.93 13.59 42 13.64 25.7 14.33 25.62"/><polygon class="cls-28" points="13.64 25.7 13.59 42 13.14 41.91 13.18 25.61 13.64 25.7"/><polygon class="cls-29" points="15 25.81 14.95 42.11 14.29 41.93 14.33 25.62 15 25.81"/><polygon class="cls-30" points="0.45 25.77 0.4 42.07 0 41.84 0.05 25.54 0.45 25.77"/><polygon class="cls-31" points="15.24 25.84 15.19 42.14 14.95 42.11 15 25.81 15.24 25.84"/><polygon class="cls-32" points="15.72 25.84 15.67 42.14 15.19 42.14 15.24 25.84 15.72 25.84"/><polygon class="cls-33" points="0.72 26.03 0.68 42.34 0.4 42.07 0.45 25.77 0.72 26.03"/><polygon class="cls-34" points="16.21 26.09 16.17 42.39 15.67 42.14 15.72 25.84 16.21 26.09"/><polygon class="cls-35" points="16.57 26.25 16.52 42.55 16.17 42.39 16.21 26.09 16.57 26.25"/><polygon class="cls-36" points="10.38 25.56 10.34 41.86 8.11 42.7 8.16 26.39 10.38 25.56"/><polygon class="cls-2" points="16.61 26.53 16.56 42.84 16.52 42.55 16.57 26.25 16.61 26.53"/><polygon class="cls-2" points="16.65 27.13 16.61 43.43 16.52 43.16 16.57 26.86 16.65 27.13"/><polygon class="cls-33" points="1.56 27.21 1.52 43.51 0.56 42.59 0.61 26.29 1.56 27.21"/><polygon class="cls-9" points="17.07 27.45 17.03 43.75 16.61 43.43 16.65 27.13 17.07 27.45"/><polygon class="cls-23" points="8.3 26.75 8.25 43.06 7.42 43.95 7.47 27.65 8.3 26.75"/><polygon class="cls-2" points="2.22 27.95 2.18 44.25 1.52 43.51 1.56 27.21 2.22 27.95"/><polygon class="cls-37" points="7.52 27.85 7.48 44.15 7.27 44.39 7.32 28.09 7.52 27.85"/><polygon class="cls-36" points="7.32 28.09 7.27 44.39 7.07 44.51 7.12 28.2 7.32 28.09"/><polygon class="cls-38" points="2.7 28.2 2.66 44.51 2.18 44.25 2.22 27.95 2.7 28.2"/><polygon class="cls-36" points="7.12 28.2 7.07 44.51 6.83 44.6 6.88 28.3 7.12 28.2"/><polygon class="cls-2" points="2.72 28.35 2.68 44.65 2.66 44.51 2.7 28.2 2.72 28.35"/><polygon class="cls-39" points="6.88 28.3 6.83 44.6 6.51 44.69 6.56 28.39 6.88 28.3"/><polygon class="cls-40" points="3.02 28.39 2.98 44.7 2.68 44.65 2.72 28.35 3.02 28.39"/><polygon class="cls-41" points="3.92 28.46 3.87 44.76 2.98 44.7 3.02 28.39 3.92 28.46"/><polygon class="cls-42" points="4.58 28.59 4.54 44.89 3.87 44.76 3.92 28.46 4.58 28.59"/><polygon class="cls-43" points="6.56 28.39 6.51 44.69 6.1 45.41 6.14 29.1 6.56 28.39"/><polygon class="cls-44" points="16.52 29.19 16.47 45.49 15.89 45.03 15.94 28.73 16.52 29.19"/><polygon class="cls-2" points="16.54 29.35 16.49 45.65 16.47 45.49 16.52 29.19 16.54 29.35"/><polygon class="cls-17" points="6.14 29.1 6.1 45.41 5.68 45.72 5.73 29.42 6.14 29.1"/><polygon class="cls-4" points="5.73 29.42 5.68 45.72 4.54 44.89 4.58 28.59 5.73 29.42"/><polygon class="cls-42" points="48.01 29.57 47.96 45.87 47.89 46.16 47.93 29.86 48.01 29.57"/><polygon class="cls-2" points="16.32 29.95 16.28 46.26 16.27 46.09 16.32 29.79 16.32 29.95"/><polygon class="cls-45" points="47.93 29.86 47.89 46.16 47.88 46.58 47.92 30.27 47.93 29.86"/><polygon class="cls-46" points="47.92 30.27 47.88 46.58 47.82 46.76 47.87 30.45 47.92 30.27"/><polygon class="cls-2" points="16.61 30.39 16.57 46.7 16.28 46.26 16.32 29.95 16.61 30.39"/><polygon class="cls-47" points="47.87 30.45 47.82 46.76 47.8 46.94 47.85 30.64 47.87 30.45"/><polygon class="cls-2" points="17.05 30.91 17.01 47.21 16.57 46.7 16.61 30.39 17.05 30.91"/><polygon class="cls-14" points="17.51 31.06 17.47 47.36 17.01 47.21 17.05 30.91 17.51 31.06"/><polygon class="cls-48" points="25.75 31.39 25.7 47.7 25.09 47.75 25.13 31.45 25.75 31.39"/><polygon class="cls-49" points="25.13 31.45 25.09 47.75 24.74 47.72 24.79 31.42 25.13 31.45"/><polygon class="cls-23" points="24.79 31.42 24.74 47.72 24.38 47.77 24.43 31.47 24.79 31.42"/><polygon class="cls-50" points="26.22 31.5 26.18 47.8 25.7 47.7 25.75 31.39 26.22 31.5"/><polygon class="cls-51" points="24.43 31.47 24.38 47.77 24.02 47.85 24.07 31.55 24.43 31.47"/><polygon class="cls-52" points="26.48 31.57 26.44 47.88 26.18 47.8 26.22 31.5 26.48 31.57"/><polygon class="cls-53" points="24.07 31.55 24.02 47.85 23.78 47.93 23.82 31.62 24.07 31.55"/><polygon class="cls-33" points="26.64 31.72 26.6 48.03 26.44 47.88 26.48 31.57 26.64 31.72"/><polygon class="cls-54" points="21.81 31.77 21.76 48.07 21.42 48.08 21.47 31.77 21.81 31.77"/><polygon class="cls-42" points="22.14 31.83 22.09 48.14 21.76 48.07 21.81 31.77 22.14 31.83"/><polygon class="cls-25" points="21.47 31.77 21.42 48.08 21.06 48.15 21.11 31.84 21.47 31.77"/><polygon class="cls-26" points="18.87 31.87 18.83 48.17 17.47 47.36 17.51 31.06 18.87 31.87"/><polygon class="cls-21" points="22.49 31.94 22.44 48.24 22.09 48.14 22.14 31.83 22.49 31.94"/><polygon class="cls-55" points="21.11 31.84 21.06 48.15 20.76 48.28 20.8 31.97 21.11 31.84"/><polygon class="cls-56" points="22.82 32.07 22.77 48.37 22.44 48.24 22.49 31.94 22.82 32.07"/><polygon class="cls-55" points="23.82 31.62 23.78 47.93 22.77 48.37 22.82 32.07 23.82 31.62"/><polygon class="cls-57" points="20.8 31.97 20.76 48.28 20.58 48.45 20.63 32.15 20.8 31.97"/><polygon class="cls-2" points="26.96 32.21 26.91 48.52 26.6 48.03 26.64 31.72 26.96 32.21"/><polygon class="cls-2" points="18.97 32.27 18.93 48.57 18.83 48.17 18.87 31.87 18.97 32.27"/><polygon class="cls-51" points="20.63 32.15 20.58 48.45 20.01 48.59 20.05 32.29 20.63 32.15"/><polygon class="cls-9" points="27.25 32.42 27.2 48.73 26.91 48.52 26.96 32.21 27.25 32.42"/><polygon class="cls-2" points="19.07 32.41 19.02 48.71 18.93 48.57 18.97 32.27 19.07 32.41"/><polygon class="cls-3" points="27.46 32.49 27.41 48.8 27.2 48.73 27.25 32.42 27.46 32.49"/><polygon class="cls-39" points="20.05 32.29 20.01 48.59 19.2 48.82 19.25 32.52 20.05 32.29"/><polygon class="cls-58" points="19.25 32.52 19.2 48.82 19.02 48.71 19.07 32.41 19.25 32.52"/><polygon class="cls-9" points="27.76 32.72 27.71 49.02 27.41 48.8 27.46 32.49 27.76 32.72"/><polygon class="cls-2" points="27.77 32.86 27.72 49.16 27.71 49.02 27.76 32.72 27.77 32.86"/><polygon class="cls-2" points="27.94 33.12 27.9 49.42 27.72 49.16 27.77 32.86 27.94 33.12"/><polygon class="cls-7" points="28.37 33.48 28.32 49.78 27.9 49.42 27.94 33.12 28.37 33.48"/><polygon class="cls-59" points="30.18 33.97 30.14 50.27 28.32 49.78 28.37 33.48 30.18 33.97"/><polygon class="cls-9" points="30.99 34.58 30.94 50.88 30.14 50.27 30.18 33.97 30.99 34.58"/><polygon class="cls-38" points="31.74 34.98 31.69 51.28 30.94 50.88 30.99 34.58 31.74 34.98"/><polygon class="cls-60" points="32.31 35.21 32.26 51.52 31.69 51.28 31.74 34.98 32.31 35.21"/><polygon class="cls-54" points="33.13 35.8 33.08 52.1 32.33 52.11 32.38 35.8 33.13 35.8"/><polygon class="cls-2" points="32.38 35.8 32.33 52.11 32.26 51.52 32.31 35.21 32.38 35.8"/><polygon class="cls-2" points="33.17 36.15 33.13 52.45 33.08 52.1 33.13 35.8 33.17 36.15"/><polygon class="cls-58" points="33.68 36.46 33.63 52.76 33.13 52.45 33.17 36.15 33.68 36.46"/><polygon class="cls-7" points="33.86 36.62 33.82 52.92 33.63 52.76 33.68 36.46 33.86 36.62"/><polygon class="cls-30" points="34.24 36.84 34.19 53.14 33.82 52.92 33.86 36.62 34.24 36.84"/><polygon class="cls-2" points="34.3 38.04 34.25 54.34 34.11 53.3 34.16 37 34.3 38.04"/><polygon class="cls-2" points="34.86 38.74 34.81 55.04 34.25 54.34 34.3 38.04 34.86 38.74"/><polygon class="cls-45" points="57.58 38.7 57.53 55.01 57.53 55.19 57.58 38.88 57.58 38.7"/><polygon class="cls-49" points="57.58 38.88 57.53 55.19 57.4 55.45 57.45 39.15 57.58 38.88"/><polygon class="cls-61" points="35.88 39.08 35.83 55.38 34.9 55.43 34.95 39.13 35.88 39.08"/><polygon class="cls-62" points="34.95 39.13 34.9 55.43 34.66 55.31 34.7 39.01 34.95 39.13"/><polygon class="cls-63" points="36.09 39.18 36.04 55.48 35.83 55.38 35.88 39.08 36.09 39.18"/><polygon class="cls-19" points="57.45 39.15 57.4 55.45 57.19 55.67 57.24 39.37 57.45 39.15"/><polygon class="cls-51" points="57.24 39.37 57.19 55.67 56.95 55.87 56.99 39.57 57.24 39.37"/><polygon class="cls-17" points="56.99 39.57 56.95 55.87 56.7 56.06 56.75 39.76 56.99 39.57"/><polygon class="cls-27" points="56.75 39.76 56.7 56.06 56.05 56.79 56.09 40.49 56.75 39.76"/><polygon class="cls-2" points="31.57 40.68 31.52 56.98 31.15 56.41 31.2 40.11 31.57 40.68"/><polygon class="cls-22" points="56.53 41.54 56.49 57.84 56.38 58.07 56.43 41.77 56.53 41.54"/><polygon class="cls-18" points="56.43 41.77 56.38 58.07 56.22 58.27 56.27 41.97 56.43 41.77"/><polygon class="cls-2" points="31.58 41.98 31.54 58.28 31.52 56.98 31.57 40.68 31.58 41.98"/><polygon class="cls-64" points="56.27 41.97 56.22 58.27 55.86 58.92 55.9 42.61 56.27 41.97"/><polygon class="cls-65" points="55.9 42.61 55.86 58.92 55.71 59.19 55.76 42.89 55.9 42.61"/><polygon class="cls-22" points="55.76 42.89 55.71 59.19 55.64 59.34 55.69 43.04 55.76 42.89"/><polygon class="cls-8" points="56.06 44.06 56.01 60.36 56 60.53 56.05 44.22 56.06 44.06"/><polygon class="cls-66" points="56.05 44.22 56 60.53 55.83 60.83 55.88 44.53 56.05 44.22"/><polygon class="cls-34" points="21.9 44.77 21.85 61.07 21.08 60.69 21.13 44.39 21.9 44.77"/><polygon class="cls-67" points="22.22 44.89 22.17 61.19 21.85 61.07 21.9 44.77 22.22 44.89"/><polygon class="cls-68" points="22.57 44.94 22.52 61.24 22.17 61.19 22.22 44.89 22.57 44.94"/><polygon class="cls-69" points="23.03 44.94 22.98 61.24 22.52 61.24 22.57 44.94 23.03 44.94"/><polygon class="cls-2" points="23.23 45.26 23.19 61.56 22.98 61.24 23.03 44.94 23.23 45.26"/><polygon class="cls-56" points="23.56 45.39 23.51 61.69 23.19 61.56 23.23 45.26 23.56 45.39"/><polygon class="cls-5" points="23.7 45.53 23.65 61.83 23.51 61.69 23.56 45.39 23.7 45.53"/><polygon class="cls-2" points="23.84 45.71 23.79 62.02 23.65 61.83 23.7 45.53 23.84 45.71"/><polygon class="cls-62" points="24.23 45.9 24.18 62.2 23.79 62.02 23.84 45.71 24.23 45.9"/><polygon class="cls-31" points="50.69 46.24 50.65 62.54 50.37 62.51 50.42 46.21 50.69 46.24"/><polygon class="cls-66" points="50.97 46.25 50.92 62.55 50.65 62.54 50.69 46.24 50.97 46.25"/><polygon class="cls-48" points="50.42 46.21 50.37 62.51 49.59 62.57 49.64 46.27 50.42 46.21"/><polygon class="cls-70" points="49.64 46.27 49.59 62.57 49.35 62.79 49.4 46.49 49.64 46.27"/><polygon class="cls-12" points="56.29 46.11 56.24 62.41 56.14 62.97 56.19 46.66 56.29 46.11"/><polygon class="cls-44" points="51.62 46.75 51.57 63.05 50.92 62.55 50.97 46.25 51.62 46.75"/><polygon class="cls-59" points="49.4 46.49 49.35 62.79 49.29 63.19 49.33 46.89 49.4 46.49"/><polygon class="cls-71" points="56.19 46.66 56.14 62.97 55.98 63.38 56.02 47.08 56.19 46.66"/><polygon class="cls-69" points="49.33 46.89 49.29 63.19 49.16 63.4 49.2 47.1 49.33 46.89"/><polygon class="cls-16" points="56.02 47.08 55.98 63.38 55.85 63.53 55.9 47.22 56.02 47.08"/><polygon class="cls-2" points="51.75 47.25 51.7 63.55 51.57 63.05 51.62 46.75 51.75 47.25"/><polygon class="cls-37" points="49.2 47.1 49.16 63.4 48.98 63.6 49.03 47.29 49.2 47.1"/><polygon class="cls-53" points="55.9 47.22 55.85 63.53 55.62 63.69 55.67 47.39 55.9 47.22"/><polygon class="cls-72" points="55.67 47.39 55.62 63.69 55.19 63.76 55.24 47.46 55.67 47.39"/><polygon class="cls-39" points="49.03 47.29 48.98 63.6 48.47 63.98 48.52 47.67 49.03 47.29"/><polygon class="cls-73" points="53.37 47.76 53.32 64.06 51.7 63.55 51.75 47.25 53.37 47.76"/><polygon class="cls-74" points="48.52 47.67 48.47 63.98 48.33 64.18 48.37 47.88 48.52 47.67"/><polygon class="cls-55" points="55.24 47.46 55.19 63.76 54.2 64.29 54.25 47.98 55.24 47.46"/><polygon class="cls-75" points="54.25 47.98 54.2 64.29 53.74 64.42 53.78 48.12 54.25 47.98"/><polygon class="cls-7" points="53.78 48.12 53.74 64.42 53.32 64.06 53.37 47.76 53.78 48.12"/><polygon class="cls-55" points="48.44 48.42 48.39 64.72 48.06 64.91 48.1 48.6 48.44 48.42"/><polygon class="cls-64" points="47.92 48.72 47.87 65.03 47.4 65.01 47.44 48.71 47.92 48.72"/><polygon class="cls-76" points="48.1 48.6 48.06 64.91 47.87 65.03 47.92 48.72 48.1 48.6"/><polygon class="cls-77" points="47.44 48.71 47.4 65.01 47.01 65.03 47.06 48.73 47.44 48.71"/><polygon class="cls-25" points="47.06 48.73 47.01 65.03 46.58 65.43 46.63 49.13 47.06 48.73"/><polygon class="cls-21" points="19.09 49.65 19.04 65.95 18.35 65.74 18.39 49.44 19.09 49.65"/><polygon class="cls-78" points="19.72 50.01 19.68 66.31 19.04 65.95 19.09 49.65 19.72 50.01"/><polygon class="cls-8" points="20.81 50.37 20.77 66.67 19.68 66.31 19.72 50.01 20.81 50.37"/><polygon class="cls-2" points="20.93 50.5 20.88 66.8 20.77 66.67 20.81 50.37 20.93 50.5"/><polygon class="cls-79" points="48.12 50.1 48.08 66.4 47.9 67.22 47.94 50.92 48.12 50.1"/><polygon class="cls-17" points="47.94 50.92 47.9 67.22 47.42 67.35 47.47 51.05 47.94 50.92"/><polygon class="cls-80" points="22.91 51.05 22.86 67.36 22.3 67.3 22.35 50.99 22.91 51.05"/><polygon class="cls-81" points="23.95 51.07 23.9 67.38 22.86 67.36 22.91 51.05 23.95 51.07"/><polygon class="cls-82" points="24.34 51.18 24.3 67.49 23.9 67.38 23.95 51.07 24.34 51.18"/><polygon class="cls-76" points="22.35 50.99 22.3 67.3 21.77 67.48 21.82 51.18 22.35 50.99"/><polygon class="cls-72" points="47.47 51.05 47.42 67.35 47.14 67.63 47.19 51.32 47.47 51.05"/><polygon class="cls-2" points="21.26 51.27 21.22 67.58 20.88 66.8 20.93 50.5 21.26 51.27"/><polygon class="cls-40" points="21.82 51.18 21.77 67.48 21.68 67.75 21.73 51.45 21.82 51.18"/><polygon class="cls-67" points="21.73 51.45 21.68 67.75 21.22 67.58 21.26 51.27 21.73 51.45"/><polygon class="cls-20" points="27.27 51.6 27.22 67.9 26.84 67.99 26.89 51.68 27.27 51.6"/><polygon class="cls-2" points="24.17 51.78 24.13 68.08 23.97 67.85 24.02 51.55 24.17 51.78"/><polygon class="cls-76" points="26.89 51.68 26.84 67.99 26.44 68.12 26.49 51.81 26.89 51.68"/><polygon class="cls-83" points="27.6 51.82 27.56 68.12 27.22 67.9 27.27 51.6 27.6 51.82"/><polygon class="cls-84" points="26.49 51.81 26.44 68.12 26.09 68.19 26.13 51.89 26.49 51.81"/><polygon class="cls-18" points="26.13 51.89 26.09 68.19 25.6 68.22 25.65 51.92 26.13 51.89"/><polygon class="cls-67" points="46.91 52.01 46.86 68.31 46.58 68.2 46.63 51.9 46.91 52.01"/><polygon class="cls-43" points="47.34 52.02 47.3 68.32 46.86 68.31 46.91 52.01 47.34 52.02"/><polygon class="cls-49" points="43.9 52.03 43.86 68.33 43.39 68.29 43.44 51.99 43.9 52.03"/><polygon class="cls-72" points="46.63 51.9 46.58 68.2 45.65 68.36 45.69 52.05 46.63 51.9"/><polygon class="cls-31" points="44.19 52.06 44.14 68.36 43.86 68.33 43.9 52.03 44.19 52.06"/><polygon class="cls-18" points="45.69 52.05 45.65 68.36 44.86 68.4 44.91 52.1 45.69 52.05"/><polygon class="cls-85" points="24.89 52.08 24.85 68.38 24.13 68.08 24.17 51.78 24.89 52.08"/><polygon class="cls-84" points="25.65 51.92 25.6 68.22 24.85 68.38 24.89 52.08 25.65 51.92"/><polygon class="cls-23" points="44.91 52.1 44.86 68.4 44.57 68.44 44.62 52.14 44.91 52.1"/><polygon class="cls-46" points="44.62 52.14 44.57 68.44 44.14 68.36 44.19 52.06 44.62 52.14"/><polygon class="cls-22" points="43.44 51.99 43.39 68.29 43.28 68.54 43.33 52.24 43.44 51.99"/><polygon class="cls-2" points="27.61 52.25 27.56 68.56 27.49 68.41 27.54 52.11 27.61 52.25"/><polygon class="cls-10" points="41.4 52.42 41.36 68.72 40.92 68.61 40.96 52.31 41.4 52.42"/><polygon class="cls-18" points="42.15 52.4 42.1 68.71 41.63 68.74 41.68 52.43 42.15 52.4"/><polygon class="cls-66" points="41.68 52.43 41.63 68.74 41.36 68.72 41.4 52.42 41.68 52.43"/><polygon class="cls-66" points="43.1 52.45 43.06 68.75 42.1 68.71 42.15 52.4 43.1 52.45"/><polygon class="cls-25" points="43.56 52.36 43.52 68.66 43.06 68.75 43.1 52.45 43.56 52.36"/><polygon class="cls-36" points="40.96 52.31 40.92 68.61 39.77 69.07 39.81 52.77 40.96 52.31"/><polygon class="cls-38" points="29.36 53.17 29.32 69.47 27.56 68.56 27.61 52.25 29.36 53.17"/><polygon class="cls-2" points="29.39 53.32 29.34 69.62 29.32 69.47 29.36 53.17 29.39 53.32"/><polygon class="cls-86" points="40.08 53.71 40.03 70.01 39.37 70.69 39.42 54.38 40.08 53.71"/><polygon class="cls-2" points="25.6 54.53 25.55 70.84 25.47 70.65 25.52 54.35 25.6 54.53"/><polygon class="cls-37" points="39.42 54.38 39.37 70.69 39.07 71.03 39.11 54.73 39.42 54.38"/><polygon class="cls-2" points="25.64 54.73 25.59 71.03 25.55 70.84 25.6 54.53 25.64 54.73"/><polygon class="cls-55" points="39.11 54.73 39.07 71.03 38.77 71.19 38.82 54.88 39.11 54.73"/><polygon class="cls-87" points="39.53 55.71 39.48 72.01 39.23 72.32 39.28 56.02 39.53 55.71"/><polygon class="cls-2" points="25.14 56.1 25.09 72.41 24.99 72.22 25.04 55.92 25.14 56.1"/><polygon class="cls-55" points="39.28 56.02 39.23 72.32 38.85 72.49 38.9 56.19 39.28 56.02"/><polygon class="cls-69" points="34.8 57.01 34.75 73.31 33.25 73.31 33.3 57.01 34.8 57.01"/><polygon class="cls-2" points="25.88 57.05 25.84 73.35 25.09 72.41 25.14 56.1 25.88 57.05"/><polygon class="cls-61" points="33.3 57.01 33.25 73.31 31.97 73.37 32.02 57.07 33.3 57.01"/><polygon class="cls-74" points="32.02 57.07 31.97 73.37 30.83 73.41 30.88 57.11 32.02 57.07"/><polygon class="cls-41" points="29.12 57.12 29.08 73.42 27.66 73.32 27.7 57.02 29.12 57.12"/><polygon class="cls-88" points="27.7 57.02 27.66 73.32 26.58 73.45 26.63 57.15 27.7 57.02"/><polygon class="cls-71" points="29.43 57.16 29.39 73.46 29.08 73.42 29.12 57.12 29.43 57.16"/><polygon class="cls-45" points="35.28 57.18 35.24 73.49 34.75 73.31 34.8 57.01 35.28 57.18"/><polygon class="cls-23" points="30.88 57.11 30.83 73.41 30.32 73.48 30.37 57.18 30.88 57.11"/><polygon class="cls-16" points="26.63 57.15 26.58 73.45 26.2 73.49 26.25 57.18 26.63 57.15"/><polygon class="cls-71" points="29.76 57.2 29.71 73.5 29.39 73.46 29.43 57.16 29.76 57.2"/><polygon class="cls-74" points="30.37 57.18 30.32 73.48 29.71 73.5 29.76 57.2 30.37 57.18"/><polygon class="cls-88" points="26.25 57.18 26.2 73.49 25.93 73.52 25.97 57.22 26.25 57.18"/><polygon class="cls-2" points="25.97 57.22 25.93 73.52 25.84 73.35 25.88 57.05 25.97 57.22"/><polygon class="cls-89" points="35.85 57.48 35.8 73.79 35.27 73.8 35.32 57.5 35.85 57.48"/><polygon class="cls-2" points="35.32 57.5 35.27 73.8 35.24 73.49 35.28 57.18 35.32 57.5"/><polygon class="cls-62" points="36.41 57.76 36.37 74.06 35.8 73.79 35.85 57.48 36.41 57.76"/><polygon class="cls-81" points="37.17 57.77 37.12 74.07 36.37 74.06 36.41 57.76 37.17 57.77"/><polygon class="cls-54" points="37.74 57.83 37.69 74.13 37.37 74.14 37.41 57.83 37.74 57.83"/><polygon class="cls-29" points="37.41 57.83 37.37 74.14 37.12 74.07 37.17 57.77 37.41 57.83"/><polygon class="cls-82" points="39.17 57.05 39.12 73.35 39.01 74.15 39.06 57.84 39.17 57.05"/><polygon class="cls-90" points="38.28 57.86 38.24 74.16 37.69 74.13 37.74 57.83 38.28 57.86"/><polygon class="cls-91" points="39.06 57.84 39.01 74.15 38.24 74.16 38.28 57.86 39.06 57.84"/><polygon class="cls-92" points="27.72 0.54 28.6 1.14 28.69 1.72 29.12 2.47 29.17 2.63 29.42 3.01 29.6 3.29 29.83 3.48 30.11 3.83 30.46 4.62 30.43 5.14 30.82 5.61 31.16 6.12 31.19 6.55 31.65 7.18 31.99 7.33 32.21 7.44 32.81 7.82 33.15 7.98 33.51 8.28 35.55 9.42 36.14 10.23 36.44 10.48 36.95 11.04 37.34 11.3 37.61 11.83 37.63 12.01 37.75 12.22 38.39 12.56 38.92 12.86 39.95 13.23 40.14 13.34 40.54 13.69 40.74 13.8 41.38 13.98 42.6 14.48 42.9 15.35 43.8 16.47 43.92 16.68 44.88 17.55 46.04 18.02 47.27 18.67 47.3 19.34 47.38 19.86 47.46 20.34 47.64 21.48 47.63 21.67 47.66 21.84 47.56 22.05 47.59 22.24 47.32 22.56 47.03 22.78 46.68 23.24 46.45 23.48 46.28 23.62 46.25 23.98 46.22 24.27 46.26 24.52 46.2 24.85 46.14 24.99 46.27 25.23 46.39 25.48 46.53 25.68 46.57 25.83 46.82 26.26 46.89 26.55 47.04 26.81 47.16 27.14 47.59 27.49 47.75 27.62 47.83 27.77 48 28.47 48.01 29.57 47.93 29.86 47.92 30.27 47.87 30.45 47.85 30.64 47.9 30.85 48.53 31.45 49.35 31.8 51.16 32.59 51.99 33.23 52.31 33.6 52.91 33.92 53.17 34.04 53.48 34.24 53.88 34.44 54.21 34.66 54.94 35.02 55.85 35.44 56.09 35.95 56.31 36.24 56.45 36.49 56.54 37.02 56.82 37.49 57.12 37.96 57.27 38.29 57.58 38.7 57.58 38.88 57.45 39.15 57.24 39.37 56.99 39.57 56.75 39.76 56.09 40.49 56.49 41.31 56.53 41.54 56.43 41.77 56.27 41.97 55.9 42.61 55.76 42.89 55.69 43.04 55.91 43.57 56.06 44.06 56.05 44.22 55.88 44.53 55.92 45.26 56.29 46.11 56.19 46.66 56.02 47.08 55.9 47.22 55.67 47.39 55.24 47.46 54.25 47.98 53.78 48.12 53.37 47.76 51.75 47.25 51.62 46.75 50.97 46.25 50.69 46.24 50.42 46.21 49.64 46.27 49.4 46.49 49.33 46.89 49.2 47.1 49.03 47.29 48.52 47.67 48.37 47.88 48.44 48.14 48.44 48.42 48.1 48.6 47.92 48.72 47.44 48.71 47.06 48.73 46.63 49.13 47.36 49.58 47.63 49.88 48.12 50.1 47.94 50.92 47.47 51.05 47.19 51.32 47.31 51.78 47.34 52.02 46.91 52.01 46.63 51.9 45.69 52.05 44.91 52.1 44.62 52.14 44.19 52.06 43.9 52.03 43.44 51.99 43.33 52.24 43.56 52.36 43.1 52.45 42.15 52.4 41.68 52.43 41.4 52.42 40.96 52.31 39.81 52.77 39.89 52.9 40.08 53.71 39.42 54.38 39.11 54.73 38.82 54.88 39.15 55.13 39.53 55.71 39.28 56.02 38.9 56.19 39.07 56.78 39.17 57.05 39.06 57.84 38.28 57.86 37.74 57.83 37.41 57.83 37.17 57.77 36.41 57.76 35.85 57.48 35.32 57.5 35.28 57.18 34.8 57.01 33.3 57.01 32.02 57.07 30.88 57.11 30.37 57.18 29.76 57.2 29.43 57.16 29.12 57.12 27.7 57.02 26.63 57.15 26.25 57.18 25.97 57.22 25.88 57.05 25.14 56.1 25.04 55.92 25.06 55.74 25.14 55.52 25.17 55.31 25.25 55.11 25.47 54.92 25.64 54.73 25.6 54.53 25.52 54.35 25.57 54.16 25.96 54 26.39 53.97 27.76 54.15 28.5 53.86 29.14 53.64 29.39 53.32 29.36 53.17 27.61 52.25 27.54 52.11 27.6 51.82 27.27 51.6 26.89 51.68 26.49 51.81 26.13 51.89 25.65 51.92 24.89 52.08 24.17 51.78 24.02 51.55 24.34 51.18 23.95 51.07 22.91 51.05 22.35 50.99 21.82 51.18 21.73 51.45 21.26 51.27 20.93 50.5 20.81 50.37 19.72 50.01 19.09 49.65 18.39 49.44 18.58 49.19 19.02 49.05 19.84 49.02 20.2 48.58 20.48 48.29 20.67 48.08 20.77 47.9 21.59 47.9 21.94 47.86 22.16 47.75 24.23 45.9 23.84 45.71 23.7 45.53 23.56 45.39 23.23 45.26 23.03 44.94 22.57 44.94 22.22 44.89 21.9 44.77 21.13 44.39 21.57 44.29 21.67 43.56 22.03 43.31 22.43 43.21 23.18 43.14 23.6 43.02 24.03 43.05 24.66 43.25 26.47 43.47 26.91 43.52 27.26 43.61 28.84 43.54 30.84 42.81 31.58 41.98 31.57 40.68 31.2 40.11 32.24 40.25 32.7 40.34 33.15 40.36 33.46 40.47 34.09 40.74 34.28 41.07 35.72 40.43 35.81 39.78 36.09 39.18 35.88 39.08 34.95 39.13 34.7 39.01 34.86 38.74 34.3 38.04 34.16 37 34.24 36.84 33.86 36.62 33.68 36.46 33.17 36.15 33.13 35.8 32.38 35.8 32.31 35.21 31.74 34.98 30.99 34.58 30.18 33.97 28.37 33.48 27.94 33.12 27.77 32.86 27.76 32.72 27.46 32.49 27.25 32.42 26.96 32.21 26.64 31.72 26.48 31.57 26.22 31.5 25.75 31.39 25.13 31.45 24.79 31.42 24.43 31.47 24.07 31.55 23.82 31.62 22.82 32.07 22.49 31.94 22.14 31.83 21.81 31.77 21.47 31.77 21.11 31.84 20.8 31.97 20.63 32.15 20.05 32.29 19.25 32.52 19.07 32.41 18.97 32.27 18.87 31.87 17.51 31.06 17.05 30.91 16.61 30.39 16.32 29.95 16.32 29.79 16.54 29.35 16.52 29.19 15.94 28.73 16.22 28.51 16.64 28.32 16.95 28.12 17.07 27.45 16.65 27.13 16.57 26.86 16.61 26.53 16.57 26.25 16.21 26.09 15.72 25.84 15.24 25.84 15 25.81 14.33 25.62 13.64 25.7 13.18 25.61 12.69 25.32 12.5 25.23 11.98 25.05 10.76 25.21 10.38 25.56 8.16 26.39 8.22 26.61 8.3 26.75 7.47 27.65 7.52 27.85 7.32 28.09 7.12 28.2 6.88 28.3 6.56 28.39 6.14 29.1 5.73 29.42 4.58 28.59 3.92 28.46 3.02 28.39 2.72 28.35 2.7 28.2 2.22 27.95 1.56 27.21 0.61 26.29 0.72 26.03 0.45 25.77 0.05 25.54 1.19 24.89 2.22 24.3 2.5 24.14 3.58 23.52 4.77 22.84 5.83 22.23 6.54 21.83 6.76 21.56 7.24 21.35 7.65 21.32 8.25 20.75 8.33 20.41 8.79 20.43 9.02 20.37 9.33 20.35 9.75 20.33 9.97 20.14 10.76 19.99 11.5 19.88 11.92 19.85 12.61 19.51 13.13 18.86 13.41 18.79 14.38 18.54 15.5 18.03 15.74 17.84 16.09 17.7 16.82 17.47 17.52 17.14 18.63 17.05 18.99 16.96 19.25 16.93 21.75 16.81 21.62 16.39 20.93 15.83 20.12 15.63 19.81 15.58 19.32 15.45 19.24 15.27 18.52 14.72 18.85 14.45 18.92 14.18 18.36 13.48 18.02 12.94 17.78 12.55 17.45 12.01 17.12 11.5 17.02 11.34 16.85 11.06 16.64 10.72 15.61 10.38 15.37 9.95 15.18 9.79 14.35 9.41 14.27 9.1 13.75 8.56 13.26 8.21 13.06 7.98 13.02 7.71 13.11 7.46 13.33 7.22 14.3 6.82 14.89 6.23 15.84 5.6 16.03 5.39 16.37 5.17 16.89 4.59 17.12 4.44 17.12 4.28 17.09 4.11 17.21 3.88 18.35 3.5 18.7 3.42 19 3.29 19.55 2.97 21.32 2.43 21.76 2.33 22.04 2.08 22.19 1.91 22.43 1.78 22.73 1.69 23.31 1.79 23.5 1.17 24.11 0.66 24.48 0.16 24.85 0 25.79 0.1 26.15 0.18 26.6 0.02 26.84 0.09 27.72 0.54"/></g></g></g></svg>