<svg xmlns="http://www.w3.org/2000/svg" viewBox="0 0 13.59 28.23"><defs><style>.cls-1{isolation:isolate;}.cls-2{fill:#481212;}.cls-3{fill:#7d1f1f;}.cls-4{fill:#9e2727;}.cls-5{fill:#a22828;}.cls-6{fill:#5c1616;}.cls-7{fill:#6a1a1a;}.cls-8{fill:#892121;}.cls-9{fill:#a12727;}.cls-10{fill:#4b1212;}.cls-11{fill:#a82929;}.cls-12{fill:#781d1d;}.cls-13{fill:#812020;}.cls-14{fill:#8a2222;}.cls-15{fill:#962525;}.cls-16{fill:#771d1d;}.cls-17{fill:#932424;}.cls-18{fill:#761d1d;}.cls-19{fill:#902323;}.cls-20{fill:#a42828;}.cls-21{fill:#972525;}.cls-22{fill:#7f1f1f;}.cls-23{fill:#7b1e1e;}.cls-24{fill:#9d2626;}.cls-25{fill:#a62929;}.cls-26{fill:#882121;}.cls-27{fill:#a92929;}.cls-28{fill:#9a2626;}.cls-29{fill:#852121;}.cls-30{fill:#952424;}.cls-31{fill:#a72929;}.cls-32{fill:#741c1c;}.cls-33{fill:#691a1a;}.cls-34{fill:#982525;}.cls-35{fill:#a32828;}.cls-36{fill:#942424;}.cls-37{fill:#741d1d;}.cls-38{fill:#9b2626;}.cls-39{fill:#4c1313;}.cls-40{fill:#8e2323;}.cls-41{fill:#a52828;}.cls-42{fill:#491212;}.cls-43{fill:#551515;}.cls-44{fill:#9c2626;}.cls-45{fill:#651919;}.cls-46{fill:#5d1717;}.cls-47{fill:#9f2727;}.cls-48{fill:#912323;}.cls-49{fill:#701c1c;}.cls-50{fill:#801f1f;}.cls-51{fill:#541515;}.cls-52{fill:#4d1313;}.cls-53{fill:#842020;}.cls-54{fill:#822020;}.cls-55{fill:#c83131;}</style></defs><title>Djibouti</title><g id="Layer_2" data-name="Layer 2"><g id="Layer_1-2" data-name="Layer 1"><g class="cls-1"><polygon class="cls-2" points="2.42 1.72 2.38 18.02 2.17 17.72 2.22 1.42 2.42 1.72"/><polygon class="cls-3" points="9.79 1.77 9.75 18.07 9.68 18.24 9.73 1.94 9.79 1.77"/><polygon class="cls-4" points="9.73 1.94 9.68 18.24 9.65 18.28 9.69 1.98 9.73 1.94"/><polygon class="cls-5" points="9.69 1.98 9.65 18.28 9.5 18.4 9.55 2.1 9.69 1.98"/><polygon class="cls-6" points="2.63 2.15 2.58 18.45 2.37 18.34 2.41 2.04 2.63 2.15"/><polygon class="cls-7" points="2.91 2.23 2.86 18.54 2.58 18.45 2.63 2.15 2.91 2.23"/><polygon class="cls-8" points="9.55 2.1 9.5 18.4 9.41 18.56 9.46 2.26 9.55 2.1"/><polygon class="cls-9" points="9.46 2.26 9.41 18.56 9.31 18.65 9.36 2.35 9.46 2.26"/><polygon class="cls-10" points="3.05 2.36 3 18.66 2.86 18.54 2.91 2.23 3.05 2.36"/><polygon class="cls-11" points="9.36 2.35 9.31 18.65 9.03 18.82 9.08 2.52 9.36 2.35"/><polygon class="cls-4" points="9.08 2.52 9.03 18.82 8.94 18.91 8.98 2.61 9.08 2.52"/><polygon class="cls-2" points="2.86 2.64 2.81 18.94 2.81 18.87 2.85 2.57 2.86 2.64"/><polygon class="cls-2" points="2.9 2.77 2.85 19.07 2.81 18.94 2.86 2.64 2.9 2.77"/><polygon class="cls-12" points="8.98 2.61 8.94 18.91 8.87 19.13 8.92 2.82 8.98 2.61"/><polygon class="cls-2" points="2.77 3.07 2.72 19.37 2.68 19.25 2.73 2.94 2.77 3.07"/><polygon class="cls-13" points="9.03 3.47 8.98 19.78 8.97 19.8 9.01 3.5 9.03 3.47"/><polygon class="cls-14" points="9.01 3.5 8.97 19.8 8.95 19.84 8.99 3.54 9.01 3.5"/><polygon class="cls-15" points="8.99 3.54 8.95 19.84 8.9 19.89 8.95 3.59 8.99 3.54"/><polygon class="cls-16" points="8.95 3.59 8.9 19.89 8.89 19.94 8.94 3.63 8.95 3.59"/><polygon class="cls-2" points="0.07 3.8 0.03 20.1 0 19.7 0.05 3.4 0.07 3.8"/><polygon class="cls-17" points="9.03 3.79 8.98 20.09 8.93 20.17 8.97 3.87 9.03 3.79"/><polygon class="cls-11" points="8.97 3.87 8.93 20.17 8.58 20.39 8.62 4.08 8.97 3.87"/><polygon class="cls-17" points="8.62 4.08 8.58 20.39 8.52 20.46 8.56 4.16 8.62 4.08"/><polygon class="cls-18" points="8.56 4.16 8.52 20.46 8.49 20.56 8.54 4.26 8.56 4.16"/><polygon class="cls-2" points="10.95 4.3 10.91 20.61 10.86 20.52 10.91 4.22 10.95 4.3"/><polygon class="cls-19" points="8.54 4.26 8.49 20.56 8.44 20.65 8.48 4.34 8.54 4.26"/><polygon class="cls-2" points="0.22 4.35 0.17 20.65 0.03 20.1 0.07 3.8 0.22 4.35"/><polygon class="cls-2" points="10.97 4.4 10.93 20.7 10.91 20.61 10.95 4.3 10.97 4.4"/><polygon class="cls-20" points="8.48 4.34 8.44 20.65 8.19 20.71 8.24 4.41 8.48 4.34"/><polygon class="cls-9" points="8.24 4.41 8.19 20.71 8.09 20.8 8.13 4.49 8.24 4.41"/><polygon class="cls-2" points="0.46 4.72 0.41 21.02 0.17 20.65 0.22 4.35 0.46 4.72"/><polygon class="cls-21" points="8.13 4.49 8.09 20.8 7.69 21.28 7.74 4.98 8.13 4.49"/><polygon class="cls-22" points="7.74 4.98 7.69 21.28 7.63 21.44 7.67 5.14 7.74 4.98"/><polygon class="cls-2" points="9.08 5.48 9.03 21.78 9.03 21.71 9.07 5.41 9.08 5.48"/><polygon class="cls-2" points="0.79 5.93 0.74 22.23 0.41 21.02 0.46 4.72 0.79 5.93"/><polygon class="cls-2" points="0.93 6.13 0.88 22.43 0.74 22.23 0.79 5.93 0.93 6.13"/><polygon class="cls-23" points="8.07 6.14 8.03 22.44 8.01 22.5 8.05 6.2 8.07 6.14"/><polygon class="cls-2" points="0.96 6.21 0.91 22.51 0.88 22.43 0.93 6.13 0.96 6.21"/><polygon class="cls-24" points="8.05 6.2 8.01 22.5 7.86 22.66 7.9 6.35 8.05 6.2"/><polygon class="cls-25" points="7.9 6.35 7.86 22.66 7.8 22.7 7.85 6.39 7.9 6.35"/><polygon class="cls-14" points="8.66 6.4 8.62 22.7 8.52 22.7 8.56 6.4 8.66 6.4"/><polygon class="cls-2" points="8.39 6.41 8.35 22.72 8.29 22.62 8.34 6.31 8.39 6.41"/><polygon class="cls-26" points="8.46 6.42 8.42 22.72 8.35 22.72 8.39 6.41 8.46 6.42"/><polygon class="cls-5" points="8.56 6.4 8.52 22.7 8.42 22.72 8.46 6.42 8.56 6.4"/><polygon class="cls-2" points="0.89 6.43 0.84 22.74 0.84 22.64 0.88 6.34 0.89 6.43"/><polygon class="cls-11" points="7.85 6.39 7.8 22.7 7.62 22.77 7.66 6.46 7.85 6.39"/><polygon class="cls-2" points="8.71 6.47 8.67 22.78 8.62 22.7 8.66 6.4 8.71 6.47"/><polygon class="cls-11" points="7.66 6.46 7.62 22.77 7.45 22.87 7.49 6.57 7.66 6.46"/><polygon class="cls-27" points="7.49 6.57 7.45 22.87 7.38 22.9 7.43 6.6 7.49 6.57"/><polygon class="cls-28" points="7.22 6.59 7.18 22.89 7.11 22.9 7.16 6.6 7.22 6.59"/><polygon class="cls-29" points="7.37 6.6 7.32 22.91 7.18 22.89 7.22 6.59 7.37 6.6"/><polygon class="cls-30" points="7.43 6.6 7.38 22.9 7.32 22.91 7.37 6.6 7.43 6.6"/><polygon class="cls-31" points="7.16 6.6 7.11 22.9 6.97 22.99 7.02 6.69 7.16 6.6"/><polygon class="cls-32" points="7.02 6.69 6.97 22.99 6.96 23.07 7 6.76 7.02 6.69"/><polygon class="cls-2" points="1.12 6.88 1.08 23.18 0.84 22.74 0.89 6.43 1.12 6.88"/><polygon class="cls-20" points="13.59 7.43 13.54 23.74 13.4 23.77 13.45 7.47 13.59 7.43"/><polygon class="cls-33" points="13.45 7.47 13.4 23.77 13.39 23.84 13.44 7.54 13.45 7.47"/><polygon class="cls-2" points="1.36 7.64 1.31 23.95 1.08 23.18 1.12 6.88 1.36 7.64"/><polygon class="cls-34" points="13.45 7.63 13.41 23.93 13.34 24.01 13.39 7.7 13.45 7.63"/><polygon class="cls-27" points="13.39 7.7 13.34 24.01 13.24 24.05 13.29 7.75 13.39 7.7"/><polygon class="cls-31" points="13.29 7.75 13.24 24.05 13.03 24.12 13.08 7.82 13.29 7.75"/><polygon class="cls-27" points="13.08 7.82 13.03 24.12 12.73 24.26 12.77 7.96 13.08 7.82"/><polygon class="cls-35" points="11.86 7.92 11.81 24.23 11.63 24.27 11.68 7.97 11.86 7.92"/><polygon class="cls-11" points="12.77 7.96 12.73 24.26 12.55 24.33 12.6 8.03 12.77 7.96"/><polygon class="cls-2" points="1.47 8 1.42 24.3 1.31 23.95 1.36 7.64 1.47 8"/><polygon class="cls-36" points="12.6 8.03 12.55 24.33 12.34 24.34 12.39 8.04 12.6 8.03"/><polygon class="cls-37" points="12.39 8.04 12.34 24.34 11.81 24.23 11.86 7.92 12.39 8.04"/><polygon class="cls-27" points="11.68 7.97 11.63 24.27 11.47 24.36 11.52 8.05 11.68 7.97"/><polygon class="cls-2" points="1.47 8.09 1.42 24.39 1.42 24.3 1.47 8 1.47 8.09"/><polygon class="cls-11" points="11.52 8.05 11.47 24.36 10.89 24.57 10.94 8.26 11.52 8.05"/><polygon class="cls-11" points="10.94 8.26 10.89 24.57 10.84 24.6 10.89 8.29 10.94 8.26"/><polygon class="cls-25" points="10.89 8.29 10.84 24.6 10.61 24.76 10.66 8.46 10.89 8.29"/><polygon class="cls-2" points="1.39 8.45 1.34 24.75 1.28 24.67 1.33 8.37 1.39 8.45"/><polygon class="cls-2" points="1.41 8.54 1.36 24.84 1.34 24.75 1.39 8.45 1.41 8.54"/><polygon class="cls-38" points="10.66 8.46 10.61 24.76 10.19 25.21 10.24 8.91 10.66 8.46"/><polygon class="cls-2" points="1.34 9.03 1.3 25.33 1.18 25.15 1.23 8.85 1.34 9.03"/><polygon class="cls-23" points="10.24 8.91 10.19 25.21 10.05 25.63 10.1 9.33 10.24 8.91"/><polygon class="cls-39" points="1.76 9.38 1.71 25.68 1.3 25.33 1.34 9.03 1.76 9.38"/><polygon class="cls-40" points="10.1 9.33 10.05 25.63 9.97 25.75 10.02 9.45 10.1 9.33"/><polygon class="cls-27" points="10.02 9.45 9.97 25.75 9.87 25.81 9.91 9.5 10.02 9.45"/><polygon class="cls-25" points="9.91 9.5 9.87 25.81 9.73 25.85 9.78 9.54 9.91 9.5"/><polygon class="cls-27" points="9.78 9.54 9.73 25.85 9.55 25.92 9.6 9.62 9.78 9.54"/><polygon class="cls-21" points="9.6 9.62 9.55 25.92 9.42 26.09 9.46 9.79 9.6 9.62"/><polygon class="cls-41" points="9.46 9.79 9.42 26.09 9.37 26.13 9.41 9.82 9.46 9.79"/><polygon class="cls-42" points="2.18 9.85 2.14 26.15 1.71 25.68 1.76 9.38 2.18 9.85"/><polygon class="cls-27" points="9.41 9.82 9.37 26.13 9.24 26.19 9.29 9.89 9.41 9.82"/><polygon class="cls-41" points="9.29 9.89 9.24 26.19 9.19 26.23 9.23 9.93 9.29 9.89"/><polygon class="cls-43" points="2.55 10.06 2.51 26.36 2.14 26.15 2.18 9.85 2.55 10.06"/><polygon class="cls-19" points="9.23 9.93 9.19 26.23 9.06 26.43 9.1 10.12 9.23 9.93"/><polygon class="cls-44" points="9.1 10.12 9.06 26.43 8.99 26.49 9.04 10.19 9.1 10.12"/><polygon class="cls-11" points="9.04 10.19 8.99 26.49 8.87 26.57 8.91 10.26 9.04 10.19"/><polygon class="cls-31" points="8.91 10.26 8.87 26.57 8.45 26.71 8.49 10.41 8.91 10.26"/><polygon class="cls-45" points="3.5 10.41 3.45 26.71 2.51 26.36 2.55 10.06 3.5 10.41"/><polygon class="cls-41" points="8.49 10.41 8.45 26.71 8.12 26.95 8.17 10.65 8.49 10.41"/><polygon class="cls-34" points="8.17 10.65 8.12 26.95 8.01 27.09 8.05 10.78 8.17 10.65"/><polygon class="cls-46" points="4.31 10.78 4.27 27.09 3.45 26.71 3.5 10.41 4.31 10.78"/><polygon class="cls-47" points="8.06 11.03 8.01 27.33 7.87 27.46 7.92 11.16 8.06 11.03"/><polygon class="cls-11" points="7.92 11.16 7.87 27.46 7.51 27.69 7.56 11.38 7.92 11.16"/><polygon class="cls-48" points="7.56 11.38 7.51 27.69 7.49 27.72 7.53 11.42 7.56 11.38"/><polygon class="cls-49" points="7.54 11.46 7.49 27.76 7.49 27.8 7.53 11.49 7.54 11.46"/><polygon class="cls-50" points="7.33 11.51 7.29 27.82 7.22 27.81 7.27 11.51 7.33 11.51"/><polygon class="cls-11" points="7.53 11.49 7.49 27.8 7.42 27.82 7.46 11.52 7.53 11.49"/><polygon class="cls-36" points="7.46 11.52 7.42 27.82 7.34 27.83 7.39 11.52 7.46 11.52"/><polygon class="cls-16" points="7.39 11.52 7.34 27.83 7.29 27.82 7.33 11.51 7.39 11.52"/><polygon class="cls-51" points="5.6 11.54 5.55 27.84 4.27 27.09 4.31 10.78 5.6 11.54"/><polygon class="cls-52" points="5.84 11.73 5.79 28.03 5.55 27.84 5.6 11.54 5.84 11.73"/><polygon class="cls-11" points="7.27 11.51 7.22 27.81 6.28 28.17 6.33 11.87 7.27 11.51"/><polygon class="cls-2" points="5.91 11.91 5.87 28.21 5.79 28.03 5.84 11.73 5.91 11.91"/><polygon class="cls-53" points="6 11.92 5.95 28.22 5.87 28.21 5.91 11.91 6 11.92"/><polygon class="cls-41" points="6.33 11.87 6.28 28.17 6.06 28.23 6.11 11.93 6.33 11.87"/><polygon class="cls-54" points="6.11 11.93 6.06 28.23 5.95 28.22 6 11.92 6.11 11.93"/><polygon class="cls-55" points="9.48 1.27 9.66 1.42 9.77 1.59 9.79 1.77 9.73 1.94 9.69 1.98 9.55 2.1 9.46 2.26 9.36 2.35 9.08 2.52 8.98 2.61 8.92 2.82 9.03 3.47 9.01 3.5 8.99 3.54 8.95 3.59 8.94 3.63 8.95 3.68 9.02 3.75 9.03 3.79 8.97 3.87 8.62 4.08 8.56 4.16 8.54 4.26 8.48 4.34 8.24 4.41 8.13 4.49 7.74 4.98 7.67 5.14 7.67 5.32 8.06 6.08 8.07 6.14 8.05 6.2 7.9 6.35 7.85 6.39 7.66 6.46 7.49 6.57 7.43 6.6 7.37 6.6 7.22 6.59 7.16 6.6 7.02 6.69 7 6.76 7.05 6.79 7.12 6.73 7.29 6.8 7.47 6.89 7.64 6.95 7.94 6.87 8.19 6.86 8.31 6.83 8.38 6.78 8.39 6.65 8.44 6.6 8.52 6.57 8.6 6.56 8.68 6.53 8.71 6.47 8.66 6.4 8.56 6.4 8.46 6.42 8.39 6.41 8.34 6.31 8.38 6.18 8.56 5.94 8.96 5.65 9.06 5.54 9.08 5.48 9.07 5.41 9.11 5.37 9.24 5.36 9.32 5.34 9.48 5.24 10.39 4.7 10.51 4.6 10.65 4.53 10.88 4.49 10.97 4.4 10.95 4.3 10.91 4.22 10.96 4.17 11.07 4.19 11.56 4.36 11.75 4.38 11.88 4.37 12.19 4.31 12.38 4.31 12.59 4.82 13.59 7.43 13.45 7.47 13.44 7.54 13.45 7.63 13.39 7.7 13.29 7.75 13.08 7.82 12.77 7.96 12.6 8.03 12.39 8.04 11.86 7.92 11.68 7.97 11.52 8.05 10.94 8.26 10.89 8.29 10.66 8.46 10.24 8.91 10.1 9.33 10.02 9.45 9.91 9.5 9.78 9.54 9.6 9.62 9.46 9.79 9.41 9.82 9.29 9.89 9.23 9.93 9.1 10.12 9.04 10.19 8.91 10.26 8.49 10.41 8.17 10.65 8.05 10.78 8.06 11.03 7.92 11.16 7.56 11.38 7.53 11.42 7.54 11.46 7.53 11.49 7.46 11.52 7.39 11.52 7.33 11.51 7.27 11.51 6.33 11.87 6.11 11.93 6 11.92 5.91 11.91 5.84 11.73 5.6 11.54 4.31 10.78 3.5 10.41 2.55 10.06 2.18 9.85 1.76 9.38 1.34 9.03 1.23 8.85 1.27 8.75 1.41 8.54 1.39 8.45 1.33 8.37 1.34 8.32 1.4 8.26 1.45 8.18 1.47 8.09 1.47 8 1.36 7.64 1.12 6.88 0.89 6.43 0.88 6.34 0.96 6.21 0.93 6.13 0.79 5.93 0.46 4.72 0.22 4.35 0.07 3.8 0.05 3.4 0.14 3.31 0.37 3.24 0.81 3.14 2.77 3.07 2.73 2.94 2.9 2.77 2.86 2.64 2.85 2.57 3.01 2.43 3.05 2.36 2.91 2.23 2.63 2.15 2.41 2.04 2.42 1.72 2.22 1.42 2.22 1.29 2.29 1.26 2.44 1.26 2.5 1.21 3.31 0.02 3.5 0 3.68 0.03 3.87 0.08 4.06 0.1 5.44 0.16 5.84 0.21 6.04 0.21 6.17 0.17 6.2 0.06 6.44 0.2 6.56 0.26 6.71 0.31 6.86 0.33 6.99 0.34 7.13 0.35 7.26 0.41 7.53 0.56 7.69 0.63 7.83 0.66 8.42 0.71 8.55 0.77 8.93 1.01 9.48 1.27"/></g></g></g></svg>