<svg xmlns="http://www.w3.org/2000/svg" viewBox="0 0 35.75 52.11"><defs><style>.cls-1{isolation:isolate;}.cls-2{fill:#481212;}.cls-3{fill:#5a1616;}.cls-4{fill:#7c1e1e;}.cls-5{fill:#c83131;}.cls-6{fill:#982525;}.cls-7{fill:#6f1b1b;}.cls-8{fill:#a82929;}.cls-9{fill:#771d1d;}.cls-10{fill:#5e1717;}.cls-11{fill:#501414;}.cls-12{fill:#4b1212;}.cls-13{fill:#5b1616;}.cls-14{fill:#6c1b1b;}.cls-15{fill:#791e1e;}.cls-16{fill:#6d1b1b;}.cls-17{fill:#491212;}.cls-18{fill:#4d1313;}.cls-19{fill:#a72929;}.cls-20{fill:#7d1f1f;}.cls-21{fill:#7b1e1e;}.cls-22{fill:#902323;}.cls-23{fill:#4c1313;}.cls-24{fill:#a42828;}.cls-25{fill:#a62929;}.cls-26{fill:#942424;}.cls-27{fill:#a92929;}.cls-28{fill:#681919;}.cls-29{fill:#a32828;}.cls-30{fill:#9f2727;}.cls-31{fill:#4a1212;}.cls-32{fill:#8b2222;}.cls-33{fill:#6a1a1a;}.cls-34{fill:#912424;}.cls-35{fill:#581616;}.cls-36{fill:#a12727;}.cls-37{fill:#551515;}.cls-38{fill:#6e1b1b;}.cls-39{fill:#6b1a1a;}.cls-40{fill:#7e1f1f;}.cls-41{fill:#842020;}.cls-42{fill:#a02727;}.cls-43{fill:#922424;}.cls-44{fill:#8e2323;}.cls-45{fill:#862121;}.cls-46{fill:#661919;}.cls-47{fill:#9e2727;}.cls-48{fill:#9a2626;}.cls-49{fill:#8a2222;}.cls-50{fill:#751d1d;}.cls-51{fill:#812020;}.cls-52{fill:#511414;}.cls-53{fill:#7f1f1f;}.cls-54{fill:#601717;}.cls-55{fill:#992525;}.cls-56{fill:#892222;}.cls-57{fill:#a22828;}.cls-58{fill:#a52828;}.cls-59{fill:#9c2626;}.cls-60{fill:#9b2626;}.cls-61{fill:#741d1d;}.cls-62{fill:#952424;}</style></defs><title>Eq. Guinea</title><g id="Layer_2" data-name="Layer 2"><g id="Layer_1-2" data-name="Layer 1"><g class="cls-1"><polygon class="cls-2" points="14.02 35.66 13.97 51.97 13.93 51.92 13.98 35.61 14.02 35.66"/><polygon class="cls-3" points="14.1 35.71 14.06 52.01 13.97 51.97 14.02 35.66 14.1 35.71"/><polygon class="cls-4" points="14.23 35.73 14.18 52.03 14.06 52.01 14.1 35.71 14.23 35.73"/><polygon class="cls-5" points="14.37 35.69 14.37 35.79 14.18 35.81 14.2 35.79 14.21 35.75 14.23 35.73 14.1 35.71 14.02 35.66 13.98 35.61 14 35.55 14.24 35.58 14.37 35.69"/><polygon class="cls-6" points="14.37 35.79 14.33 52.09 14.13 52.11 14.18 35.81 14.37 35.79"/></g><g class="cls-1"><polygon class="cls-2" points="16.69 5.43 16.64 21.73 16.62 21.61 16.66 5.31 16.69 5.43"/><polygon class="cls-7" points="16.9 5.48 16.85 21.79 16.64 21.73 16.69 5.43 16.9 5.48"/><polygon class="cls-8" points="35.75 4.4 35.7 20.7 33.71 21.86 33.76 5.55 35.75 4.4"/><polygon class="cls-9" points="17.07 5.51 17.03 21.82 16.85 21.79 16.9 5.48 17.07 5.51"/><polygon class="cls-10" points="17.24 5.59 17.19 21.89 17.03 21.82 17.07 5.51 17.24 5.59"/><polygon class="cls-8" points="33.76 5.55 33.71 21.86 33.23 22.14 33.28 5.83 33.76 5.55"/><polygon class="cls-11" points="18.02 6.12 17.98 22.43 17.19 21.89 17.24 5.59 18.02 6.12"/><polygon class="cls-2" points="18.03 6.16 17.98 22.47 17.98 22.43 18.02 6.12 18.03 6.16"/><polygon class="cls-2" points="18.04 6.21 18 22.51 17.98 22.47 18.03 6.16 18.04 6.21"/><polygon class="cls-12" points="18.09 6.25 18.05 22.55 18 22.51 18.04 6.21 18.09 6.25"/><polygon class="cls-13" points="18.18 6.29 18.13 22.6 18.05 22.55 18.09 6.25 18.18 6.29"/><polygon class="cls-14" points="18.25 6.32 18.21 22.62 18.13 22.6 18.18 6.29 18.25 6.32"/><polygon class="cls-15" points="18.44 6.35 18.39 22.65 18.21 22.62 18.25 6.32 18.44 6.35"/><polygon class="cls-16" points="19.16 6.55 19.12 22.86 18.39 22.65 18.44 6.35 19.16 6.55"/><polygon class="cls-8" points="33.28 5.83 33.23 22.14 31.73 23 31.77 6.7 33.28 5.83"/><polygon class="cls-13" points="19.46 6.7 19.42 23 19.12 22.86 19.16 6.55 19.46 6.7"/><polygon class="cls-17" points="19.62 6.87 19.57 23.17 19.42 23 19.46 6.7 19.62 6.87"/><polygon class="cls-2" points="19.66 7.22 19.61 23.52 19.57 23.44 19.61 7.14 19.66 7.22"/><polygon class="cls-2" points="19.66 7.26 19.61 23.56 19.61 23.52 19.66 7.22 19.66 7.26"/><polygon class="cls-2" points="19.67 7.3 19.63 23.61 19.61 23.56 19.66 7.26 19.67 7.3"/><polygon class="cls-18" points="19.81 7.41 19.76 23.71 19.63 23.61 19.67 7.3 19.81 7.41"/><polygon class="cls-2" points="19.83 7.45 19.79 23.75 19.76 23.71 19.81 7.41 19.83 7.45"/><polygon class="cls-2" points="19.84 7.52 19.8 23.82 19.78 23.78 19.83 7.48 19.84 7.52"/><polygon class="cls-2" points="19.92 7.63 19.87 23.93 19.8 23.82 19.84 7.52 19.92 7.63"/><polygon class="cls-2" points="19.93 7.67 19.89 23.98 19.87 23.93 19.92 7.63 19.93 7.67"/><polygon class="cls-2" points="19.93 7.73 19.89 24.04 19.89 23.98 19.93 7.67 19.93 7.73"/><polygon class="cls-8" points="31.77 6.7 31.73 23 29.74 24.15 29.79 7.84 31.77 6.7"/><polygon class="cls-2" points="19.9 7.9 19.85 24.21 19.85 24.17 19.89 7.86 19.9 7.9"/><polygon class="cls-8" points="29.79 7.84 29.74 24.15 29.59 24.24 29.64 7.93 29.79 7.84"/><polygon class="cls-2" points="19.94 7.99 19.89 24.3 19.85 24.21 19.9 7.9 19.94 7.99"/><polygon class="cls-19" points="21.25 8.23 21.2 24.53 21.08 24.61 21.12 8.31 21.25 8.23"/><polygon class="cls-2" points="19.94 8.44 19.89 24.75 19.89 24.3 19.94 7.99 19.94 8.44"/><polygon class="cls-20" points="21.12 8.31 21.08 24.61 20.98 24.87 21.03 8.57 21.12 8.31"/><polygon class="cls-2" points="20.05 8.59 20 24.89 19.89 24.75 19.94 8.44 20.05 8.59"/><polygon class="cls-8" points="21.03 8.57 20.98 24.87 20.84 24.93 20.89 8.62 21.03 8.57"/><polygon class="cls-21" points="20.33 8.63 20.28 24.93 20 24.89 20.05 8.59 20.33 8.63"/><polygon class="cls-22" points="20.89 8.62 20.84 24.93 20.28 24.93 20.33 8.63 20.89 8.62"/><polygon class="cls-8" points="29.64 7.93 29.59 24.24 27.76 25.29 27.8 8.99 29.64 7.93"/><polygon class="cls-2" points="20.52 9.09 20.48 25.39 20.39 25.22 20.44 8.91 20.52 9.09"/><polygon class="cls-2" points="20.64 9.24 20.59 25.55 20.48 25.39 20.52 9.09 20.64 9.24"/><polygon class="cls-23" points="20.7 9.29 20.65 25.59 20.59 25.55 20.64 9.24 20.7 9.29"/><polygon class="cls-2" points="20.71 9.33 20.66 25.64 20.65 25.59 20.7 9.29 20.71 9.33"/><polygon class="cls-8" points="27.8 8.99 27.76 25.29 27.03 25.71 27.08 9.41 27.8 8.99"/><polygon class="cls-2" points="20.72 9.41 20.68 25.72 20.66 25.64 20.71 9.33 20.72 9.41"/><polygon class="cls-24" points="27.08 9.41 27.03 25.71 26.87 25.84 26.91 9.54 27.08 9.41"/><polygon class="cls-2" points="20.75 9.57 20.71 25.87 20.68 25.72 20.72 9.41 20.75 9.57"/><polygon class="cls-25" points="26.91 9.54 26.87 25.84 26.75 25.92 26.79 9.62 26.91 9.54"/><polygon class="cls-26" points="25.41 9.85 25.37 26.15 25.3 26.15 25.34 9.85 25.41 9.85"/><polygon class="cls-24" points="25.34 9.85 25.3 26.15 25.18 26.18 25.23 9.88 25.34 9.85"/><polygon class="cls-27" points="25.23 9.88 25.18 26.18 25.08 26.23 25.12 9.93 25.23 9.88"/><polygon class="cls-28" points="27.12 9.88 27.07 26.18 27.07 26.26 27.11 9.96 27.12 9.88"/><polygon class="cls-27" points="25.12 9.93 25.08 26.23 24.99 26.27 25.03 9.97 25.12 9.93"/><polygon class="cls-29" points="25.03 9.97 24.99 26.27 24.9 26.3 24.94 9.99 25.03 9.97"/><polygon class="cls-30" points="27.11 9.96 27.07 26.26 26.98 26.34 27.03 10.04 27.11 9.96"/><polygon class="cls-30" points="24.94 9.99 24.9 26.3 24.64 26.34 24.69 10.04 24.94 9.99"/><polygon class="cls-8" points="24.69 10.04 24.64 26.34 24.54 26.38 24.59 10.07 24.69 10.04"/><polygon class="cls-27" points="27.03 10.04 26.98 26.34 26.85 26.4 26.9 10.09 27.03 10.04"/><polygon class="cls-31" points="20.71 10.09 20.67 26.39 20.58 26.31 20.63 10.01 20.71 10.09"/><polygon class="cls-24" points="26.9 10.09 26.85 26.4 26.69 26.44 26.73 10.14 26.9 10.09"/><polygon class="cls-31" points="25.25 10.14 25.2 26.44 25.15 26.39 25.19 10.09 25.25 10.14"/><polygon class="cls-32" points="26.54 10.15 26.49 26.45 26.13 26.44 26.17 10.14 26.54 10.15"/><polygon class="cls-26" points="26.73 10.14 26.69 26.44 26.49 26.45 26.54 10.15 26.73 10.14"/><polygon class="cls-6" points="26.17 10.14 26.13 26.44 25.93 26.46 25.98 10.16 26.17 10.14"/><polygon class="cls-25" points="25.98 10.16 25.93 26.46 25.8 26.5 25.84 10.2 25.98 10.16"/><polygon class="cls-33" points="25.47 10.21 25.43 26.51 25.2 26.44 25.25 10.14 25.47 10.21"/><polygon class="cls-34" points="24.16 10.11 24.11 26.41 24.04 26.51 24.09 10.21 24.16 10.11"/><polygon class="cls-2" points="24.15 10.22 24.1 26.52 24.1 26.45 24.14 10.15 24.15 10.22"/><polygon class="cls-35" points="20.97 10.22 20.93 26.52 20.67 26.39 20.71 10.09 20.97 10.22"/><polygon class="cls-36" points="24.59 10.07 24.54 26.38 24.33 26.57 24.37 10.27 24.59 10.07"/><polygon class="cls-2" points="24.19 10.27 24.14 26.57 24.1 26.52 24.15 10.22 24.19 10.27"/><polygon class="cls-27" points="25.84 10.2 25.8 26.5 25.57 26.6 25.62 10.3 25.84 10.2"/><polygon class="cls-37" points="25.62 10.3 25.57 26.6 25.43 26.51 25.47 10.21 25.62 10.3"/><polygon class="cls-19" points="24.37 10.27 24.33 26.57 24.24 26.6 24.28 10.3 24.37 10.27"/><polygon class="cls-38" points="24.28 10.3 24.24 26.6 24.14 26.57 24.19 10.27 24.28 10.3"/><polygon class="cls-17" points="21.06 10.31 21.02 26.61 20.93 26.52 20.97 10.22 21.06 10.31"/><polygon class="cls-39" points="24.09 10.21 24.04 26.51 24.02 26.68 24.07 10.38 24.09 10.21"/><polygon class="cls-2" points="21.15 10.44 21.1 26.74 21.02 26.61 21.06 10.31 21.15 10.44"/><polygon class="cls-2" points="21.18 10.57 21.13 26.87 21.1 26.74 21.15 10.44 21.18 10.57"/><polygon class="cls-34" points="23.18 10.82 23.13 27.12 23 27.13 23.05 10.82 23.18 10.82"/><polygon class="cls-30" points="24.13 10.68 24.09 26.98 23.92 27.14 23.97 10.83 24.13 10.68"/><polygon class="cls-40" points="23.31 10.84 23.27 27.14 23.13 27.12 23.18 10.82 23.31 10.84"/><polygon class="cls-2" points="21.17 10.83 21.12 27.14 21.06 27.03 21.11 10.73 21.17 10.83"/><polygon class="cls-30" points="23.05 10.82 23 27.13 22.83 27.16 22.88 10.85 23.05 10.82"/><polygon class="cls-8" points="22.88 10.85 22.83 27.16 22.69 27.21 22.73 10.91 22.88 10.85"/><polygon class="cls-16" points="23.74 10.96 23.69 27.26 23.27 27.14 23.31 10.84 23.74 10.96"/><polygon class="cls-41" points="23.87 10.97 23.83 27.27 23.69 27.26 23.74 10.96 23.87 10.97"/><polygon class="cls-34" points="23.97 10.83 23.92 27.14 23.83 27.27 23.87 10.97 23.97 10.83"/><polygon class="cls-42" points="22.73 10.91 22.69 27.21 22.62 27.27 22.66 10.97 22.73 10.91"/><polygon class="cls-43" points="22.66 10.97 22.62 27.27 22.57 27.34 22.62 11.03 22.66 10.97"/><polygon class="cls-2" points="21.4 11.09 21.35 27.39 21.12 27.14 21.17 10.83 21.4 11.09"/><polygon class="cls-2" points="21.44 11.18 21.4 27.48 21.35 27.39 21.4 11.09 21.44 11.18"/><polygon class="cls-42" points="22.62 11.03 22.57 27.34 22.41 27.48 22.46 11.18 22.62 11.03"/><polygon class="cls-44" points="22.46 11.18 22.41 27.48 22.3 27.65 22.35 11.35 22.46 11.18"/><polygon class="cls-45" points="21.59 11.37 21.54 27.67 21.34 27.66 21.38 11.35 21.59 11.37"/><polygon class="cls-46" points="21.65 11.39 21.6 27.69 21.54 27.67 21.59 11.37 21.65 11.39"/><polygon class="cls-47" points="22.35 11.35 22.3 27.65 22.23 27.72 22.27 11.42 22.35 11.35"/><polygon class="cls-48" points="22.27 11.42 22.23 27.72 22.13 27.73 22.18 11.43 22.27 11.42"/><polygon class="cls-49" points="22.18 11.43 22.13 27.73 21.81 27.72 21.85 11.42 22.18 11.43"/><polygon class="cls-12" points="21.7 11.44 21.65 27.74 21.6 27.69 21.65 11.39 21.7 11.44"/><polygon class="cls-6" points="21.85 11.42 21.81 27.72 21.65 27.74 21.7 11.44 21.85 11.42"/><polygon class="cls-5" points="27.12 9.88 27.11 9.96 27.03 10.04 26.9 10.09 26.73 10.14 26.54 10.15 26.17 10.14 25.98 10.16 25.84 10.2 25.62 10.3 25.47 10.21 25.25 10.14 25.19 10.09 25.2 10.03 25.26 9.97 25.34 9.9 25.41 9.85 25.34 9.85 25.23 9.88 25.12 9.93 25.03 9.97 24.94 9.99 24.69 10.04 24.59 10.07 24.37 10.27 24.28 10.3 24.19 10.27 24.15 10.22 24.14 10.15 24.16 10.11 24.09 10.21 24.07 10.38 24.09 10.54 24.13 10.62 24.13 10.68 23.97 10.83 23.87 10.97 23.74 10.96 23.31 10.84 23.18 10.82 23.05 10.82 22.88 10.85 22.73 10.91 22.66 10.97 22.62 11.03 22.46 11.18 22.35 11.35 22.27 11.42 22.18 11.43 21.85 11.42 21.7 11.44 21.65 11.39 21.59 11.37 21.38 11.35 21.44 11.27 21.44 11.18 21.4 11.09 21.17 10.83 21.11 10.73 21.13 10.66 21.18 10.57 21.15 10.44 21.06 10.31 20.97 10.22 20.71 10.09 20.63 10.01 20.73 9.85 20.75 9.57 20.72 9.41 20.71 9.33 20.7 9.29 20.64 9.24 20.52 9.09 20.44 8.91 20.47 8.77 20.58 8.74 20.74 8.74 20.91 8.69 21.07 8.57 21.13 8.47 21.17 8.35 21.25 8.23 21.12 8.31 21.03 8.57 20.89 8.62 20.33 8.63 20.05 8.59 19.94 8.44 19.94 7.99 19.9 7.9 19.89 7.86 19.93 7.73 19.93 7.67 19.92 7.63 19.84 7.52 19.83 7.48 19.83 7.45 19.81 7.41 19.67 7.3 19.66 7.26 19.66 7.22 19.61 7.14 19.62 6.87 19.46 6.7 19.16 6.55 18.44 6.35 18.25 6.32 18.18 6.29 18.09 6.25 18.04 6.21 18.03 6.16 18.02 6.12 17.24 5.59 17.07 5.51 16.9 5.48 16.69 5.43 16.66 5.31 16.7 5.18 16.89 5.21 17.02 5.27 17.14 5.36 17.29 5.43 17.47 5.45 17.77 5.43 18.05 5.4 18.21 5.36 18.35 5.3 18.98 5.18 19.14 5.12 20.03 4.6 20.46 4.35 21.9 3.51 23.98 2.3 25.96 1.15 27.94 0 28.24 0.12 28.77 0.42 30.52 1.42 30.87 1.62 32.26 2.41 34.01 3.41 35.75 4.4 33.76 5.55 33.28 5.83 31.77 6.7 29.79 7.84 29.64 7.93 27.8 8.99 27.08 9.41 26.91 9.54 26.79 9.62 26.86 9.7 27.06 9.81 27.12 9.88"/></g><g class="cls-1"><polygon class="cls-28" points="2.61 3.61 2.56 19.91 2.54 20.17 2.59 3.87 2.61 3.61"/><polygon class="cls-2" points="0.05 4.24 0 20.54 0 20.28 0.05 3.97 0.05 4.24"/><polygon class="cls-2" points="0.15 4.5 0.1 20.81 0 20.54 0.05 4.24 0.15 4.5"/><polygon class="cls-2" points="0.3 4.69 0.26 20.99 0.1 20.81 0.15 4.5 0.3 4.69"/><polygon class="cls-50" points="2.97 4.6 2.92 20.9 2.89 21.02 2.94 4.72 2.97 4.6"/><polygon class="cls-51" points="3.09 4.88 3.05 21.18 2.97 21.36 3.02 5.06 3.09 4.88"/><polygon class="cls-52" points="0.87 5.07 0.83 21.37 0.26 20.99 0.3 4.69 0.87 5.07"/><polygon class="cls-2" points="0.91 5.14 0.87 21.45 0.83 21.37 0.87 5.07 0.91 5.14"/><polygon class="cls-2" points="0.91 5.25 0.87 21.55 0.87 21.45 0.91 5.14 0.91 5.25"/><polygon class="cls-53" points="1 5.44 0.95 21.74 0.8 21.73 0.85 5.42 1 5.44"/><polygon class="cls-54" points="1.14 5.5 1.09 21.8 0.95 21.74 1 5.44 1.14 5.5"/><polygon class="cls-2" points="1.21 5.58 1.16 21.89 1.09 21.8 1.14 5.5 1.21 5.58"/><polygon class="cls-55" points="3.67 6.19 3.63 22.5 3.52 22.51 3.56 6.2 3.67 6.19"/><polygon class="cls-56" points="3.36 6.25 3.31 22.55 3.23 22.55 3.27 6.25 3.36 6.25"/><polygon class="cls-57" points="3.56 6.2 3.52 22.51 3.31 22.55 3.36 6.25 3.56 6.2"/><polygon class="cls-2" points="0.57 6.27 0.53 22.57 0.45 22.43 0.5 6.12 0.57 6.27"/><polygon class="cls-22" points="3.27 6.25 3.23 22.55 3.2 22.59 3.25 6.29 3.27 6.25"/><polygon class="cls-58" points="3.25 6.29 3.2 22.59 3.07 22.63 3.12 6.32 3.25 6.29"/><polygon class="cls-47" points="3.12 6.32 3.07 22.63 2.79 22.67 2.83 6.37 3.12 6.32"/><polygon class="cls-2" points="0.66 6.37 0.61 22.67 0.53 22.57 0.57 6.27 0.66 6.37"/><polygon class="cls-59" points="2.83 6.37 2.79 22.67 2.76 22.71 2.8 6.4 2.83 6.37"/><polygon class="cls-36" points="2.8 6.4 2.76 22.71 2.64 22.81 2.68 6.51 2.8 6.4"/><polygon class="cls-8" points="2.68 6.51 2.64 22.81 2.57 22.85 2.61 6.55 2.68 6.51"/><polygon class="cls-18" points="0.89 6.56 0.85 22.86 0.61 22.67 0.66 6.37 0.89 6.56"/><polygon class="cls-57" points="2.61 6.55 2.57 22.85 2.46 22.88 2.51 6.57 2.61 6.55"/><polygon class="cls-60" points="2.51 6.57 2.46 22.88 2.24 22.91 2.28 6.6 2.51 6.57"/><polygon class="cls-2" points="0.93 6.61 0.89 22.91 0.85 22.86 0.89 6.56 0.93 6.61"/><polygon class="cls-8" points="2.28 6.6 2.24 22.91 2.13 22.94 2.18 6.64 2.28 6.6"/><polygon class="cls-17" points="0.98 6.66 0.94 22.96 0.89 22.91 0.93 6.61 0.98 6.66"/><polygon class="cls-9" points="1.12 6.69 1.07 22.99 0.94 22.96 0.98 6.66 1.12 6.69"/><polygon class="cls-53" points="1.26 6.71 1.22 23.01 1.07 22.99 1.12 6.69 1.26 6.71"/><polygon class="cls-8" points="2.18 6.64 2.13 22.94 1.99 23.03 2.04 6.72 2.18 6.64"/><polygon class="cls-61" points="1.37 6.73 1.32 23.03 1.22 23.01 1.26 6.71 1.37 6.73"/><polygon class="cls-8" points="2.04 6.72 1.99 23.03 1.79 23.1 1.84 6.79 2.04 6.72"/><polygon class="cls-5" points="3.52 5.76 3.66 6.11 3.67 6.19 3.56 6.2 3.36 6.25 3.27 6.25 3.25 6.29 3.12 6.32 2.83 6.37 2.8 6.4 2.68 6.51 2.61 6.55 2.51 6.57 2.28 6.6 2.18 6.64 2.04 6.72 1.84 6.79 1.61 6.81 1.37 6.73 1.26 6.71 1.12 6.69 0.98 6.66 0.93 6.61 0.89 6.56 0.66 6.37 0.57 6.27 0.5 6.12 0.51 5.99 0.71 5.92 0.74 5.85 0.86 5.78 1.14 5.67 1.21 5.58 1.14 5.5 1 5.44 0.85 5.42 0.89 5.35 0.91 5.25 0.91 5.14 0.87 5.07 0.3 4.69 0.15 4.5 0.05 4.24 0.05 3.97 0.24 3.77 0.26 3.79 0.3 3.85 0.54 3.75 0.64 3.71 0.66 3.64 0.85 3.58 1.1 3.47 1.31 3.34 1.43 3.19 1.47 3.2 1.51 3.19 1.57 3.17 1.97 3.19 2.14 3.21 2.31 3.28 2.43 3.36 2.51 3.44 2.58 3.52 2.61 3.61 2.59 3.87 2.7 4.01 2.74 4.29 2.75 4.32 2.97 4.6 2.94 4.72 3.07 4.83 3.09 4.86 3.09 4.88 3.02 5.06 3.1 5.13 3.4 5.31 3.47 5.39 3.52 5.76"/><polygon class="cls-28" points="1.61 6.81 1.56 23.11 1.32 23.03 1.37 6.73 1.61 6.81"/><polygon class="cls-62" points="1.84 6.79 1.79 23.1 1.56 23.11 1.61 6.81 1.84 6.79"/></g></g></g></svg>